<svg xmlns="http://www.w3.org/2000/svg" version="1.0" width="1024" height="288" viewBox="-1.169 -1.169 147.039 41.296"><g style="fill:#6982a2;fill-opacity:1"><path d="M309.413 512.891c-5.022.258-6.75 2.472-6.75 6.718v13.5s2.483-2.156 7.188-2.156h21.406c4.218 0 8.438-1.392 8.438-6.344v-5.593c0-4.362-1.577-6.125-6.594-6.125h-22.625c-.364 0-.728-.02-1.063 0m44.125.343v7.469h2.688c.77 0 1.448-.225 1.937-.719.836-.837.75-1.91.75-3.031s.09-2.16-.75-3c-.489-.493-1.167-.719-1.937-.719zm32.657 0v7.469h1.343v-3.344c0-.712.448-.937.875-.937.43 0 .907.215.907.937v3.344h1.343v-3.531c0-1.152-.626-2-1.812-2-.481 0-.949.216-1.313.594v-2.532zm-13.938.563v1.594h-.562v1.062h.562v2.688c0 .774.487 1.562 1.594 1.562h.719v-1.156h-.469c-.323 0-.469-.185-.469-.5v-2.594h.938v-1.062h-.938v-1.594zm-17.281.75h1.094c.499 0 .842.166 1.093.469.272.334.313.806.313 1.937 0 1.133-.04 1.665-.313 2-.251.304-.594.469-1.093.469h-1.094zm7.437.625c-1.407 0-2.375 1.032-2.375 2.812 0 2.21 1.25 2.782 2.532 2.782.98 0 1.51-.289 2.062-.844l-.844-.813c-.345.344-.625.5-1.218.5-.761 0-1.188-.515-1.188-1.218h3.406v-.594c0-1.499-.863-2.625-2.375-2.625m15.438 0c-1.106 0-2.094.618-2.094 1.75 0 1.005.615 1.438 1.594 1.531l.844.09c.429.04.593.227.593.5 0 .408-.5.562-.968.562-.417 0-.991-.08-1.438-.531l-.906.906c.686.692 1.458.782 2.312.782 1.283 0 2.313-.577 2.313-1.782 0-.921-.551-1.488-1.625-1.593l-.844-.09c-.48-.04-.562-.271-.562-.469 0-.272.24-.531.781-.531.469 0 .938.09 1.25.375l.844-.844c-.519-.492-1.251-.656-2.094-.656m5.531 0c-1.085 0-2.406.602-2.406 2.812s1.321 2.782 2.406 2.782c.749 0 1.333-.248 1.813-.75l-.938-.907c-.282.305-.521.438-.875.438-.325 0-.551-.135-.75-.375-.208-.262-.312-.612-.312-1.188s.104-.957.312-1.218c.199-.241.425-.344.75-.344.354 0 .593.103.875.406l.938-.906c-.48-.502-1.064-.75-1.813-.75m10.813 0c-1.406 0-2.344 1.032-2.344 2.812 0 2.21 1.218 2.782 2.5 2.782.979 0 1.507-.289 2.062-.844l-.812-.813c-.343.344-.655.5-1.25.5-.76 0-1.188-.515-1.188-1.218h3.407v-.594c0-1.499-.862-2.625-2.375-2.625m-28.25.06v3.5c0 .597.125 1.122.562 1.563.302.303.74.469 1.281.469.5 0 .989-.186 1.344-.563v.5h1.344v-5.469h-1.375v3.313c0 .745-.479 1-.906 1-.426 0-.875-.255-.875-1v-3.313zm-3.532 1.094c.458 0 .76.238.907.563.08.199.115.32.125.562h-2.063c.01-.242.04-.363.125-.562.145-.325.447-.563.906-.563m31.782 0c.459 0 .761.238.906.563.09.199.115.32.125.562h-2.063c.01-.242.04-.363.125-.562.148-.325.449-.563.907-.563m13.218 7.125v1.094h1.375v-1.094zm-53.875.03v7.469h1.438v-2.969h1.062l1.438 2.969h1.687l-1.656-3.219c.721-.261 1.344-.92 1.344-1.968 0-1.248-.894-2.282-2.406-2.282zm61.688 0v7.469h1.375v-3.344c0-.713.447-.937.875-.937s.875.214.875.937v3.344h1.344v-3.531c0-1.152-.626-2-1.813-2-.48 0-.918.187-1.281.562v-2.5zm-43.188.563v1.594h-.562v1.062h.562v2.688c0 .775.489 1.562 1.594 1.562h.719v-1.156h-.469c-.323 0-.469-.184-.469-.5V526.7h.938v-1.062h-.938v-1.594zm-17.062.75h1.375c.637 0 1.062.394 1.062.969 0 .576-.425 1-1.062 1h-1.375zm7.219.625c-1.408 0-2.375 1.001-2.375 2.781 0 2.213 1.248 2.813 2.531 2.813.977 0 1.512-.29 2.062-.844l-.843-.813c-.344.347-.626.5-1.219.5-.763 0-1.188-.518-1.188-1.218h3.407v-.594c0-1.498-.864-2.625-2.375-2.625m6.281 0c-.501 0-.988.187-1.344.562v-.5h-1.344v5.469h1.375v-3.312c0-.744.479-.969.907-.969.426 0 .875.225.875.969v3.312h1.375v-3.5c0-.596-.125-1.09-.563-1.531-.299-.304-.738-.5-1.281-.5m9.156 0c-1.405 0-2.375 1.001-2.375 2.781 0 2.213 1.248 2.813 2.531 2.813.98 0 1.508-.29 2.063-.844l-.844-.813c-.342.347-.622.5-1.219.5-.76 0-1.187-.518-1.187-1.218h3.406v-.594c0-1.498-.864-2.625-2.375-2.625m6.281 0c-.5 0-.989.187-1.343.562v-.5h-1.344v5.469h1.375v-3.312c0-.744.478-.969.906-.969.426 0 .875.225.875.969v3.312h1.375v-3.5c0-.596-.124-1.09-.562-1.531-.303-.304-.738-.5-1.282-.5m10.469 0c-1.405 0-2.375 1.001-2.375 2.781 0 2.213 1.217 2.813 2.5 2.813.977 0 1.509-.29 2.063-.844l-.813-.813c-.342.347-.625.5-1.219.5-.76 0-1.187-.518-1.187-1.218h3.375v-.594c0-1.498-.831-2.625-2.344-2.625m6.281 0c-.582 0-1.114.281-1.375.594v-.532h-1.312v5.469h1.344v-3.281c0-.693.459-1 .875-1 .237 0 .416.05.562.156l.906-1.125c-.291-.2-.599-.281-1-.281m3.407 0c-1.105 0-2.094.619-2.094 1.75 0 1.006.583 1.437 1.562 1.531l.875.09c.429.04.563.226.563.5 0 .408-.498.562-.969.562-.415 0-.989-.08-1.437-.531l-.875.906c.687.692 1.458.782 2.312.782 1.282 0 2.281-.577 2.281-1.782 0-.92-.521-1.489-1.593-1.593l-.875-.09c-.482-.04-.563-.27-.563-.469 0-.272.24-.531.781-.531.47 0 .938.09 1.25.375l.844-.844c-.521-.491-1.216-.656-2.062-.656m8.375 0c-1.085 0-2.438.57-2.438 2.781 0 2.213 1.353 2.813 2.438 2.813.751 0 1.302-.247 1.781-.75l-.906-.907c-.284.304-.52.438-.875.438a.97.97 0 0 1-.782-.375c-.207-.262-.312-.643-.312-1.219s.105-.925.312-1.187c.198-.24.458-.344.782-.344.355 0 .591.102.875.406l.906-.906c-.479-.502-1.03-.75-1.781-.75m10.812 0c-1.408 0-2.375 1.001-2.375 2.781 0 2.213 1.219 2.813 2.5 2.813.979 0 1.511-.29 2.063-.844l-.813-.813c-.342.347-.627.5-1.219.5-.761 0-1.187-.518-1.187-1.218h3.375v-.594c0-1.498-.833-2.625-2.344-2.625m6.281 0c-.582 0-1.114.281-1.375.594v-.532h-1.312v5.469h1.344v-3.281c0-.693.458-1 .875-1 .237 0 .414.05.562.156l.906-1.125c-.29-.2-.599-.281-1-.281m10.25 0c-.5 0-1.019.187-1.375.562v-.5h-1.312v5.469h1.344v-3.312c0-.744.481-.969.906-.969.429 0 .906.225.906.969v3.312h1.344v-3.5c0-.596-.09-1.09-.531-1.531-.304-.304-.739-.5-1.282-.5m4.938 0c-.531 0-1.008.197-1.313.5-.509.514-.562 1.204-.562 2.156 0 .955.05 1.643.562 2.156.305.304.75.5 1.282.5.533 0 .957-.163 1.312-.562v.562c0 .556-.283 1.125-1.094 1.125-.461 0-.76-.114-1.062-.406l-.844.844c.562.545 1.133.719 1.969.719 1.459 0 2.375-.942 2.375-2.25v-5.282h-1.313v.532c-.377-.42-.738-.594-1.312-.594m-58.25.06 2 5.469h1.062l2-5.469h-1.437l-1.094 3.375-1.094-3.375zm20.969 0v5.469h1.343v-5.469zm23.718 0v3.5c0 .6.124 1.122.563 1.563.3.305.739.469 1.281.469.5 0 1.018-.184 1.375-.563v.5h1.313v-5.469h-1.375v3.313c0 .744-.48 1-.907 1s-.875-.256-.875-1v-3.313zm-68.968 1.063c.459 0 .759.269.906.594.08.199.114.321.125.562h-2.063c.01-.241.04-.363.125-.562a.965.965 0 0 1 .907-.594m15.437 0c.458 0 .76.269.906.594.08.199.115.321.125.562h-2.062c.01-.241.04-.363.125-.562a.96.96 0 0 1 .906-.594m16.75 0c.458 0 .759.269.906.594.08.199.115.321.125.562h-2.062c.01-.241.04-.363.125-.562.147-.325.447-.594.906-.594m28.875 0c.459 0 .758.269.906.594.08.199.115.321.125.562h-2.062c.01-.241.04-.363.125-.562a.96.96 0 0 1 .906-.594m21.844.125c.804 0 .906.684.906 1.406 0 .724-.102 1.406-.906 1.406-.799 0-.906-.682-.906-1.406 0-.722.107-1.406.906-1.406" style="fill:#fff;fill-opacity:1;fill-rule:nonzero;stroke:none" transform="translate(-302.649 -512.883)"/><path d="M339.697 531.597v13.511c0 4.532-2.002 6.733-7.829 6.733h-22.627c-5.017 0-6.592-1.79-6.592-6.151v-5.607c0-4.953 4.227-6.345 8.444-6.345h21.393c4.701 0 7.211-2.141 7.211-2.141" style="fill:#fff;fill-opacity:1;fill-rule:nonzero;stroke:none" transform="translate(-302.649 -512.883)"/></g></svg>
