<svg id="DOPP_Logo_Doppelmayr_AlpineBlue_Digital_sRGB" xmlns="http://www.w3.org/2000/svg" width="200" height="40" viewBox="0 0 660.34 100"><g fill="#1256fa" id="Logo"><path d="M139.94,27.04h26.86c15.45,0,27.55,8.42,27.55,22.96s-12.11,22.96-27.55,22.96h-26.86V27.04Zm26.86,37.78c9.88,0,17.95-5.15,17.95-14.82s-8.07-14.82-17.95-14.82h-17.53v29.64h17.53Zm34.23-10.64c0-10.16,8.35-19.41,23.52-19.41s23.52,9.25,23.52,19.41-8.35,19.48-23.52,19.48-23.52-9.25-23.52-19.48Zm23.52,11.97c7.72,0,14.47-4.45,14.47-11.97s-6.75-11.9-14.47-11.9-14.47,4.45-14.47,11.9,6.75,11.97,14.47,11.97Zm31.79-30.75h9.04v4.87c3.06-3.9,8.14-5.57,13.98-5.57,14.75,0,22.96,9.32,22.96,19.48s-8.21,19.48-22.96,19.48c-5.64,0-10.78-1.67-13.91-5.57v14.61h-9.11V35.39Zm36.94,18.78c0-7.37-6.75-11.83-14.26-11.83-7.93,0-14.33,4.45-14.33,11.83s6.4,11.83,14.33,11.83c7.51,0,14.26-4.38,14.26-11.83Zm17.32-18.78h9.04v4.87c3.06-3.9,8.14-5.57,13.98-5.57,14.75,0,22.96,9.32,22.96,19.48s-8.21,19.48-22.96,19.48c-5.64,0-10.78-1.67-13.91-5.57v14.61h-9.11V35.39Zm36.94,18.78c0-7.37-6.75-11.83-14.26-11.83-7.93,0-14.33,4.45-14.33,11.83s6.4,11.83,14.33,11.83c7.51,0,14.26-4.38,14.26-11.83Zm16.21-.07c0-10.16,7.44-19.34,22.82-19.34s22.96,9.18,22.96,20.04c0,.83-.07,1.88-.21,2.99h-36.6c1.46,5.98,7.65,8.28,15.79,8.28,5.84,0,12.11-.97,17.88-3.48v7.58c-5.98,2.71-12.45,3.48-17.95,3.48-17.95,0-24.7-9.11-24.7-19.55Zm36.39-3.34c-1.25-5.36-5.77-8.7-13.85-8.7-7.31,0-12.11,3.06-13.5,8.7h27.34Zm28.45-23.72v45.78h-9.04V27.04h9.04Zm21.15,26.79v19.13h-9.04V35.39h8.77v5.01c2.78-3.97,8.77-5.71,14.05-5.71,7.86,0,13.78,2.57,16.98,7.1,4.31-4.73,9.11-7.1,16.35-7.1,11.83,0,20.04,6.12,20.04,16.7v21.57h-9.04v-19.69c0-7.17-3.97-10.92-11.69-10.92-7.03,0-12.8,4.04-12.8,10.92v19.69h-9.04v-19.69c0-7.17-3.83-10.92-11.69-10.92-7.03,0-12.87,3.9-12.87,11.48Zm98.31-19.13c5.84,0,10.92,1.67,13.98,5.57v-4.87h9.04v37.57h-9.04v-4.94c-3.13,3.97-8.28,5.64-13.98,5.64-14.75,0-22.96-9.25-22.96-19.48s8.21-19.48,22.96-19.48Zm14.68,19.48c0-7.51-6.4-11.83-14.33-11.83-7.51,0-14.26,4.31-14.26,11.83s6.75,11.83,14.26,11.83c7.93,0,14.33-4.24,14.33-11.83Zm14.4-18.78h9.74l14.05,27.55,13.5-27.55h9.46l-23.72,47.31h-9.18l5.64-11.48-.14,.14-19.34-35.97Zm62.55,18.23l-.07,19.34h-8.97V35.39h8.77v6.96c1.88-4.87,6.96-7.65,14.05-7.65,2.5,0,4.66,.07,6.89,.28v7.72h-6.54c-8.21,0-14.12,3.34-14.12,10.92Zm-539.68-3.62c0,27.61-22.41,50-50.05,50-9.89,0-19.12-2.87-26.88-7.82V7.82C30.83,2.87,40.06,0,49.95,0c27.64,0,50.05,22.39,50.05,50h0Zm-23.3,0c0-14.76-11.98-26.73-26.75-26.73-1.3,0-2.59,.1-3.84,.27v52.9c1.26,.18,2.54,.28,3.84,.28,14.78,0,26.75-11.97,26.75-26.73h0ZM15.49,13.84C5.95,22.94,0,35.78,0,50s5.95,27.06,15.49,36.16V13.84Z" fill="inherit"></path></g></svg>