<svg version="1.1" id="Layer_1" xmlns="http://www.w3.org/2000/svg" x="0" y="0" viewBox="0 0 660 90" xml:space="preserve"><style>.st0{fill:#fff}</style><path id="logo" class="st0" d="M180 45c0-24.8-20.2-45-45.1-45H82v37H45v16h37v21H45c-16 0-29-13-29-29s13-29 29.1-29h18.5V0H45.1C20.2 0 0 20.2 0 45c0 24.5 20.3 45 45.1 45H135c24.7 0 45-20.3 45-45m-45.1 29H98V53h37V37H98V16h37c16 0 29.1 13 29.1 29S151 74 134.9 74"/><path id="logo-text" class="st0" d="M606.6 31.2c-2.5 1.5-5.4 2.7-8.7 2.7-4.2 0-7.2-2.4-7.5-6.8h18.1c0-9.4-2.7-16.2-12.5-16.2-8.1 0-12.1 6.4-12.1 14.2 0 8.8 5 13.9 13.7 13.9 3.7 0 6.5-.7 9-2.1zm-315 0c-2.5 1.5-5.4 2.7-8.7 2.7-4.2 0-7.2-2.4-7.5-6.8h18.1c0-9.4-2.7-16.2-12.5-16.2-8.1 0-12.1 6.4-12.1 14.2 0 8.8 5 13.9 13.7 13.9 3.7 0 6.5-.7 9-2.1zm225.8 0c-2.5 1.5-5.4 2.7-8.7 2.7-4.2 0-7.2-2.4-7.5-6.8h18.1c0-9.4-2.7-16.2-12.5-16.2-8.1 0-12.1 6.4-12.1 14.2 0 8.8 5 13.9 13.7 13.9 3.7 0 6.5-.7 9-2.1zM314.9 11.9c-2.1-.5-4.2-1-7.4-1-5.3 0-10.3 2.6-10.3 8.3 0 9.7 11.8 6.1 11.8 11.3 0 2.6-2.7 3.3-4.5 3.3-2.3 0-4.6-.7-6.7-1.8l-.4 5.7c2.5.7 5.1 1.1 7.7 1.1 5.5 0 11-2.5 11-8.7 0-9.7-11.8-7-11.8-11.2 0-2.3 2.2-3 4-3 2.5 0 4 .4 6.1 1.1zm104.2 19.3c-2.5 1.5-5.4 2.7-8.7 2.7-4.2 0-7.2-2.4-7.5-6.8H421c0-9.4-2.7-16.2-12.5-16.2-8.1 0-12.1 6.4-12.1 14.2 0 8.8 5 13.9 13.7 13.9 3.7 0 6.5-.7 9-2.1zm-76.9 0c-2.5 1.5-5.4 2.7-8.7 2.7-4.2 0-7.2-2.4-7.5-6.8h18.1c0-9.4-2.7-16.2-12.5-16.2-8.1 0-12.1 6.4-12.1 14.2 0 8.8 5 13.9 13.7 13.9 3.7 0 6.5-.7 9-2.1zm85.3-3.9h11.7V39h3.7V27.3h11.7v-3.7h-11.7V12h-3.7v11.7h-11.7zm219.2 3c0 5.3 2.9 8.7 8.3 8.7 2 0 3.6-.2 5-.6l-.2-5.5c-.7.5-1.9.7-3.1.7-2.6 0-3.2-2.1-3.2-4.4V16.7h6v-5.1h-6V4l-6.8 2.2v5.4h-5v5.1h5zM248.9 2.9c-3.1-.9-6.3-1.5-10.4-1.5-12 0-19.5 7-19.5 19.4 0 12.3 8 18.2 19.5 18.2 3.8 0 7.7-.8 11.5-1.9V17.5h-14.3v5.7h7.5v9.5c-1.5.4-3.1.5-4.7.5-7.6 0-12-5.6-12-13S231.1 7 239.4 7c2.8 0 6.4.6 9.1 1.9zm118.3 8.9c-1.9-.6-3.9-.9-6.6-.9-8.2 0-12.7 6.1-12.7 13.9 0 8.2 4.3 14.2 12.9 14.2 2.8 0 4.8-.3 6.8-.9l-.3-5.8c-1.2.5-3.3 1.3-5.2 1.3-4.8 0-7.1-3.8-7.1-8.7 0-5 2.7-8.5 6.9-8.5 2.1 0 3.4.4 4.6 1zM531 38.4h7.7l9.7-26.8h-6.8l-6.3 19.5h-.1l-6.5-19.5h-7.3zm82.8 0h6.8V25.3c0-3.4 1.1-8.9 6-8.9 4.4 0 4.4 4.4 4.4 7.7v14.3h6.8V21.5c0-6-2.7-10.5-8.9-10.5-3.6 0-6.5 1.2-8.6 4.3h-.1v-3.6h-6.5v26.7zm-41.8 0h6.8V11.6H572zm-19.6 0h6.8v-9.8c0-3.9 0-10.9 5.5-10.9 1.2 0 2.4.2 3 .6v-7c-.7-.2-1.4-.2-2.1-.2-4.1 0-6.9 4.2-7.2 6.7h-.1v-6.1h-6v26.7zm-91.9 0h9.7c10.9 0 20.5-3.8 20.5-18.2S481.1 2 470.2 2h-9.7zm-81.7-16.1V0H372v38.4h6.8v-13h.1l8.7 13h8.6l-11-14.8 9.8-12h-8zM257 38.4h6.8V11.6H257zM467.6 7.8h4c5.9 0 11.7 4.5 11.7 12.4s-5.7 12.4-11.7 12.4h-4zm-64.7 14.5c.3-3.6 2.2-6.3 6-6.3s5.3 2.9 5.5 6.3zm-76.8 0c.3-3.6 2.2-6.3 6-6.3s5.3 2.9 5.5 6.3zm175.1 0c.3-3.6 2.2-6.3 6-6.3s5.3 2.9 5.5 6.3zm89.3 0c.3-3.6 2.2-6.3 6-6.3s5.3 2.9 5.5 6.3zm-315 0c.3-3.6 2.2-6.3 6-6.3s5.3 2.9 5.5 6.3zM572 6.7h6.8V0H572zm-315 0h6.8V0H257z"/></svg>