<svg aria-label="Genoverband logo" xmlns="http://www.w3.org/2000/svg" viewBox="0 0 350 52.848" width="350" height="52.848"><path fill="#ffffff" class="logo-color" d="M45.364 19.934h-9.83v-6.31h15.791v18.338h-5.76l-.317-2.907c-1.765 2.611-5.475 4.059-8.783 4.059-9.217 0-16.541-7.282-16.541-16.721S27.238 0 36.592 0c5.517 0 10.104 1.945 13.54 5.824l-5.697 4.365c-1.85-2.209-4.629-3.53-7.98-3.53-5.253 0-9.439 4.238-9.439 9.967s4.196 9.84 9.576 9.84c4.016 0 7.673-2.294 8.773-6.521ZM34.002 52.848v-7.124c-14.819 0-26.878-12.06-26.878-26.868H0c0 18.772 15.22 34.002 34.002 34.002Zm142.827-20.843h22.492V25.61h-15.664v-6.395h14.11V12.82h-14.11V7.526h15.664V1.142h-22.492v30.874Zm40.217-30.863c5.782 0 10.147 4.228 10.147 9.925 0 3.657-2.368 7.23-5.591 8.868l6.68 12.081h-7.853l-5.612-10.813h-4.408v10.813h-6.838V1.142h13.455Zm-6.617 14.121h5.951c2.209 0 3.974-1.765 3.974-3.974s-1.765-3.974-3.974-3.974h-5.951v7.938Zm-50.861 9.703-8.16-23.824h-7.272l11.383 30.874h7.895l11.331-30.874h-7.282zM268.477 1.142h9.037l11.246 30.874h-7.06l-2.198-6.173h-12.874l-2.124 6.173h-7.272zm4.45 6.447-4.101 11.87h8.382zM55.649 32.005h22.492V25.61H62.477v-6.395h14.11V12.82h-14.11V7.526h15.664V1.142H55.649v30.874ZM88.193 1.142l13.624 18.528V1.142h6.447v30.874h-5.739L88.9 13.497v18.518h-6.447V1.142zM128.304.085c-9.523.042-16.753 7.145-16.668 16.499-.085 9.343 7.145 16.457 16.668 16.488 9.534-.042 16.763-7.145 16.679-16.488.095-9.354-7.145-16.457-16.679-16.499m0 26.286c-5.422 0-9.608-4.196-9.608-9.787s4.186-9.798 9.608-9.798 9.618 4.196 9.618 9.798-4.196 9.787-9.618 9.787M255.899 9.439c-.085 3.181-1.363 5.517-4.186 6.838 3.129.835 5.073 3.657 5.073 7.06 0 4.989-4.587 8.688-10.369 8.688h-14.903V1.142h14.459c5.338-.042 9.84 3.213 9.925 8.297m-10.147-2.241h-7.409v6.395h7.409c1.934 0 3.308-1.459 3.308-3.308s-1.406-3.086-3.308-3.086m-7.409 18.782h7.547c2.294 0 3.964-1.459 3.964-3.488s-1.67-3.488-3.964-3.488h-7.547v6.965Zm95.337-24.838h-11.69v30.874h11.69c9.396 0 16.319-6.49 16.319-15.432s-6.921-15.443-16.317-15.443m0 24.701h-4.851V7.304h4.851c5.253 0 9.174 3.879 9.269 9.269-.085 5.253-4.016 9.259-9.269 9.259Zm-36.92-24.701 13.635 18.528V1.142h6.437v30.874h-5.739L297.47 13.498v18.518h-6.447V1.142h5.729Z"/></svg>