<svg width="300" height="233" viewBox="0 0 72 56" fill="none" xmlns="http://www.w3.org/2000/svg"><path d="M12.87 3.177c3.433 0 5.56 1.457 6.753 3.737h4.066C22.01 2.766 18.43 0 12.871 0 5.036 0 0 5.793 0 13.642s5.036 13.642 12.87 13.642c4.403 0 6.902-1.869 8.208-3.738l.373 3.177h2.798V12.894H12.497v3.177h8.208c0 3.738-2.052 8.036-7.834 8.036-6.156 0-9.14-5.046-9.14-10.465 0-5.42 2.984-10.465 9.14-10.465M27.63 26.723h18.28v-3.177H31.36v-8.783h13.804v-3.177H31.36V3.738h14.55V.56H27.63zm39.344 0h3.917V.561h-3.73v12.52c0 4.111 0 5.793.186 8.223h-.15c-.82-1.495-2.238-3.738-5.036-7.774L53.171.56h-3.918v26.163h3.73v-12.52c0-4.112 0-5.794-.186-8.223h.15c.82 1.495 2.238 3.737 5.036 7.774zM17.042 36.818c0 1.996-.7 2.957-2.103 2.957-1.217 0-2.36-2.144-4.759-2.144-2.324 0-4.095 1.552-4.095 3.77 0 1.626.738 2.735 1.587 3.77.664.776.885 1.293.885 1.774 0 .517-.221.924-.811 1.515-1.292 1.442-1.734 2.366-1.734 3.511C6.012 54.596 7.893 56 9.775 56c2.324 0 3.615-1.146 4.795-3.88.665-1.48.886-1.849 1.44-1.849.331 0 .663.259.663 1.109 0 1.183-.295 2.624-.664 4.066h3.542c.258-1.183.48-2.55.48-3.881 0-3.03-1.218-4.694-3.542-4.768-2.288-.074-3.136 1.257-4.39 3.77-.738 1.478-1.18 2.218-1.919 2.218-.516 0-.885-.333-.885-.85 0-.37.148-.666.369-.962 1.697-1.737 2.103-3.104 2.103-4.139 0-1.367-.48-2.366-1.476-3.474-.332-.37-.812-.813-.812-1.442 0-.48.406-.887 1.033-.887 1.55 0 1.771 2.107 4.501 2.144 3.431 0 5.608-2.55 5.608-6.394 0-4.62-3.431-7.207-8.596-7.207H.405v25.872h3.688v-22.73h7.932c3.099 0 5.017 1.478 5.017 4.102m5.42 18.628h3.689c.369-1.183.516-2.403.516-3.585 0-2.735-1.438-3.955-1.438-6.284 0-2.66 1.586-3.326 1.586-8.094v-7.91h-3.69v7.91c0 4.768-1.585 5.433-1.585 8.094 0 2.329 1.475 3.549 1.475 6.284 0 1.182-.184 2.402-.553 3.585m8.002-.296v.296h8.854c7.931 0 12.543-4.805 12.543-12.936 0-8.094-4.612-12.936-12.912-12.936h-8.891v3.696c0 4.546 2.177 6.246 6.788 7.798 2.435.813 3.173 1.663 3.173 3.179 0 .96-.738 1.663-1.771 1.663-2.03 0-2.398-3.326-6.124-3.326-2.509 0-4.169 1.441-4.169 3.991 0 2.957 2.583 4.916 2.509 8.575m.811-8.464c0-.554.48-.887.886-.887.553 0 .996.259 2.029 1.405 1.07 1.256 2.471 1.995 4.132 1.995 2.951 0 5.238-2.328 5.238-4.915 0-3.105-1.697-5.1-5.312-6.357-4.28-1.479-4.538-2.366-4.538-4.362v-.85h4.87c6.456 0 9.592 3.696 9.592 9.795 0 6.098-3.136 9.794-9.223 9.794h-5.423c-.627-3.178-2.25-4.066-2.25-5.618M72 56v-3.659c-1.328-1.257-3.357-1.922-5.423-1.922-4.242 0-5.202 2.033-7.747 2.033-1.476 0-2.435-.776-2.435-2.218 0-1.922 1.586-2.809 6.013-2.365 5.46.554 7.821-2.218 7.821-5.803 0-2.587-1.844-5.174-5.534-5.174-2.14 0-3.578.924-5.238.924-1.734 0-2.84-.592-2.84-4.214v-.887H72v-3.141H53.038v4.028c0 5.692 2.545 7.762 5.829 7.762 2.324 0 3.652-.998 5.644-.998 1.18 0 2.103.702 2.103 1.922 0 1.257-.517 2.587-4.132 2.218-5.09-.518-9.702.517-9.702 5.913 0 2.624 1.918 5.581 5.607 5.581 3.91 0 4.5-2.218 8.19-2.218 2.029 0 3.874.666 5.423 2.218" fill="#fff"/></svg>
