<?xml version="1.0" encoding="UTF-8"?>
<svg id="iprona_x5F_Logo" xmlns="http://www.w3.org/2000/svg" version="1.1" xmlns:xlink="http://www.w3.org/1999/xlink" viewBox="0 0 950.9 303">
  <!-- Generator: Adobe Illustrator 29.6.1, SVG Export Plug-In . SVG Version: 2.1.1 Build 9)  -->
  <defs>
    <style>
      .st0 {
        fill: #fff;
      }

      .st1 {
        fill: url(#linear-gradient1);
      }

      .st2 {
        fill: url(#linear-gradient);
      }
    </style>
    <linearGradient id="linear-gradient" x1="118.72" y1="331.21" x2="118.72" y2="-10.84" gradientUnits="userSpaceOnUse">
      <stop offset="0" stop-color="#f9007d"/>
      <stop offset="1" stop-color="#360f72"/>
    </linearGradient>
    <linearGradient id="linear-gradient1" x1="126.69" y1="331.86" x2="126.69" y2="-5.55" xlink:href="#linear-gradient"/>
  </defs>
  <path class="st2" d="M181.09,131.51c-58.23,0-81.26,46.09-93.9,69.14-3.83,7.07-7.14,14.44-10.33,21.89-2.41,5.4-10.55,2.48-8.9-3.27,9.4-29.06,26.75-64.7,49.76-83.59-8.1-3.03-16.85-4.68-25.56-4.68C41.34,131,0,173.64,0,226.06c0,45.3,33.21,76.94,80.76,76.94,41.78,0,70.3-23.87,95.34-79.82,5.22-12.01,12.49-23.12,21.58-32.97,10.86-11.48,24.97-19.42,39.75-22.59-12.32-21.54-32.67-36.11-56.34-36.11Z"/>
  <path class="st1" d="M126.69,91.72c20.6,0,36.14-15.41,36.14-35.85,0-14.71-5.89-23.04-18.39-37.24L126.69,0l-18.02,18.91c-11.23,12.84-18.11,21.52-18.11,36.97,0,20.44,15.54,35.85,36.14,35.85Z"/>
  <path class="st0" d="M901.11,131.51c-17.27,0-32.81,3.17-44.33,9.5l8.64,22.73c7.77-3.74,18.71-6.9,31.95-6.9s23.02,5.75,24.75,16.4l-25.9.86c-26.77.86-43.75,15.25-43.75,35.68s14.1,34.53,37.7,34.53c14.39,0,25.33-6.04,32.81-13.81v10.93h27.92v-63.02c0-31.08-19.28-46.9-49.79-46.9ZM922.41,210.64c-5.18,6.62-14.68,10.65-23.6,10.65-11.8,0-16.41-5.47-16.41-12.66s4.03-13.52,17.84-14.1l22.16-.86v16.98Z"/>
  <path class="st0" d="M794.9,131.51c-12.09,0-23.89,4.03-31.66,15.54v-12.66h-27.92v107.04h28.78v-58.7c0-16.11,10.36-24.17,22.74-24.17s20.72,8.63,20.72,23.88v58.99h28.78v-68.2c0-24.75-17.27-41.72-41.45-41.72Z"/>
  <path class="st0" d="M661.35,131.8c-33.1,0-58.43,23.88-58.43,56.11s25.33,56.11,58.43,56.11,58.43-23.88,58.43-56.11-25.33-56.11-58.43-56.11ZM661.35,217.26c-16.12,0-29.07-12.09-29.07-29.35s12.95-29.35,29.07-29.35,29.07,12.09,29.07,29.35-12.95,29.35-29.07,29.35Z"/>
  <path class="st0" d="M579.72,131.51c-11.23,0-19.86,5.18-26.77,15.25v-12.37h-27.92v107.04h28.78v-58.41c0-15.83,9.5-23.82,23.03-23.82,5.18,0,11.51,1.15,15.83,3.45l10.65-25.96c-6.04-3.17-14.1-5.18-23.6-5.18Z"/>
  <path class="st0" d="M352.92,82.02c-10.36,0-18.42,7.48-18.42,17.84s8.06,17.84,18.42,17.84,18.42-7.48,18.42-17.84-8.06-17.84-18.42-17.84Z"/>
  <rect class="st0" x="338.82" y="134.39" width="28.78" height="107.04"/>
  <path class="st0" d="M453.66,131.51c-14.39,0-24.76,6.04-31.66,14.68v-11.8h-28.21v151.07h28.78v-55.25c6.91,8.34,16.98,13.81,31.37,13.81,31.08,0,54.69-24.17,54.69-56.11s-23.6-56.4-54.97-56.4ZM449.92,217.26c-17.27,0-28.78-12.66-28.78-29.35s11.51-29.35,28.78-29.35c18.13,0,29.36,13.23,29.36,29.35s-11.22,29.35-29.36,29.35Z"/>
</svg>