<?xml version="1.0" encoding="UTF-8"?>
<svg id="iprona_x5F_Logo" xmlns="http://www.w3.org/2000/svg" version="1.1" viewBox="0 0 950.9 303">
  <!-- Generator: Adobe Illustrator 29.6.1, SVG Export Plug-In . SVG Version: 2.1.1 Build 9)  -->
  <defs>
    <style>
      .st0 {
        fill: #fff;
      }
    </style>
  </defs>
  <path class="st0" d="M0,226.06c0,45.3,33.21,76.94,80.76,76.94,41.78,0,70.3-23.87,95.34-79.82,5.22-12.01,12.49-23.12,21.58-32.97,10.86-11.48,24.97-19.42,39.75-22.59-12.32-21.54-32.67-36.11-56.34-36.11-58.23,0-81.26,46.09-93.9,69.14-3.83,7.07-7.14,14.44-10.33,21.89-2.41,5.4-10.55,2.48-8.9-3.27,9.4-29.06,26.75-64.7,49.76-83.59-8.1-3.03-16.85-4.68-25.56-4.68C41.34,131,0,173.64,0,226.06"/>
  <path class="st0" d="M108.67,18.91c-11.23,12.84-18.11,21.52-18.11,36.97,0,20.44,15.54,35.85,36.14,35.85s36.14-15.41,36.14-35.85c0-14.71-5.89-23.04-18.39-37.24L126.69,0l-18.02,18.91Z"/>
  <path class="st0" d="M882.4,208.63c0-6.91,4.03-13.52,17.84-14.1l22.16-.86v16.98c-5.18,6.62-14.68,10.65-23.6,10.65-11.8,0-16.41-5.47-16.41-12.66M852.46,209.78c0,20.43,14.1,34.53,37.7,34.53,14.39,0,25.33-6.04,32.81-13.81v10.93h27.92v-63.02c0-31.08-19.28-46.9-49.79-46.9-17.27,0-32.81,3.17-44.33,9.5l8.64,22.73c7.77-3.74,18.71-6.9,31.95-6.9s23.02,5.75,24.75,16.4l-25.9.86c-26.77.86-43.75,15.25-43.75,35.68"/>
  <path class="st0" d="M735.32,241.43h28.78v-58.7c0-16.11,10.36-24.17,22.74-24.17s20.72,8.63,20.72,23.88v58.99h28.78v-68.2c0-24.75-17.27-41.72-41.45-41.72-12.09,0-23.89,4.03-31.66,15.54v-12.66h-27.92v107.04Z"/>
  <path class="st0" d="M632.28,187.91c0-17.26,12.95-29.35,29.07-29.35s29.07,12.09,29.07,29.35-12.95,29.35-29.07,29.35-29.07-12.09-29.07-29.35M602.92,187.91c0,32.23,25.33,56.11,58.43,56.11s58.43-23.88,58.43-56.11-25.33-56.11-58.43-56.11-58.43,23.88-58.43,56.11"/>
  <path class="st0" d="M525.03,241.43h28.78v-58.41c0-15.83,9.5-23.82,23.03-23.82,5.18,0,11.51,1.15,15.83,3.45l10.65-25.96c-6.04-3.17-14.1-5.18-23.6-5.18-11.23,0-19.86,5.18-26.77,15.25v-12.37h-27.92v107.04Z"/>
  <path class="st0" d="M338.82,241.43h28.78v-107.04h-28.78v107.04ZM334.5,99.86c0,10.36,8.06,17.84,18.42,17.84s18.42-7.48,18.42-17.84-8.06-17.84-18.42-17.84-18.42,7.48-18.42,17.84"/>
  <path class="st0" d="M421.14,187.91c0-16.69,11.51-29.35,28.78-29.35,18.13,0,29.36,13.23,29.36,29.35s-11.22,29.35-29.36,29.35-28.78-12.66-28.78-29.35M393.79,285.46h28.78v-55.25c6.91,8.34,16.98,13.81,31.37,13.81,31.08,0,54.69-24.17,54.69-56.11s-23.6-56.4-54.97-56.4c-14.39,0-24.76,6.04-31.66,14.68v-11.8h-28.21v151.07Z"/>
</svg>