<svg width="900" height="300" viewBox="0 0 900 300" xmlns="http://www.w3.org/2000/svg"><path d="M792.35 2a78 78 0 0 1 33.29 -0.31 86.4 86.4 0 0 1 54.5 32.1c4.47 5.51 8 11.84 12.43 18.4l-51.42 24.17c-8.92 -14.12 -20.6 -21.02 -36.57 -18.07 -9.94 1.81 -17.65 6.98 -20.98 17.24 -3.5 10.79 1.26 19.13 8.85 26.34q3.46 3.22 7.46 5.7c10.39 6.63 21.05 12.83 31.37 19.61 13.82 9.1 28.17 17.65 40.9 28.19 16.3 13.51 26.73 31.18 27.35 53.34 0.97 39.36 -27.35 76.16 -65.1 85.37l-3.67 0.9a83.4 83.4 0 0 1 -38.61 0.66 150 150 0 0 1 -17.16 -5.62c-24.63 -9.58 -41.74 -27.48 -54.02 -51.91l49.47 -23.47c8.16 7.33 14.92 14.65 22.7 20.17 9.58 6.58 20.56 6.45 31.23 2.04 16.04 -6.63 20.69 -25.21 9.52 -38.5a52 52 0 0 0 -11.7 -10.36 3210 3210 0 0 0 -53.78 -33.6c-19.5 -12 -34.39 -27.91 -39.98 -50.83C716 52.21 747.67 11.92 792.57 2.06M104.4 295.82a90 90 0 0 1 -29.84 -0.13c-31 -5.04 -53.7 -22.08 -69.96 -48.76 -1.37 -2.24 -3.03 -4.33 -4.55 -6.48v-2.74l50.64 -23.63c2.89 3.66 5.52 7.34 8.53 10.72 7.19 8.07 15.76 13.79 26.83 14.52 21.2 1.44 37.29 -13.64 37.29 -35.3V6.49h56.16v7.36c0 63.43 -0.35 126.86 0 190.29 0.48 49.1 -35.3 85.99 -75.1 91.69m367.18 -193.3v188.52h-51.94V6.4h55.77l125.13 189.46 1.47 -0.38V6.58h51.98v284.24h-55.81L473.35 101.97zM271.54 205.34V6.63h55.37v198.7zm55.49 85.71h-55.39v-55.97h55.4z" fill="#DA0024" fill-rule="evenodd"/></svg>