<?xml version="1.0" encoding="utf-8"?>
<!-- Generator: Adobe Illustrator 21.1.0, SVG Export Plug-In . SVG Version: 6.00 Build 0)  -->
<svg version="1.1" id="Ebene_1" xmlns="http://www.w3.org/2000/svg" xmlns:xlink="http://www.w3.org/1999/xlink" x="0px" y="0px"
	 viewBox="0 0 167.4 55.5" style="enable-background:new 0 0 167.4 55.5;" xml:space="preserve">
<style type="text/css">
	.st0{enable-background:new    ;}
	.st1{fill:#FFFFFF;}
	.st2{fill:#FF9600;}
	.st3{fill:#785541;}
</style>
<title>Zeichenfläche 1</title>
<g class="st0">
	<path class="st1" d="M67.5,27.6h-2.1v-9.8h2.1V27.6z M74.1,27.6h-2.6l-3.9-5.4l3.5-4.4h2.6l-3.8,4.3L74.1,27.6z"/>
	<path class="st1" d="M76.9,27.6h-2v-9.8h2V27.6z"/>
	<path class="st1" d="M85.7,24.2c0,1.1-0.3,2-1,2.6s-1.6,0.9-2.7,0.9s-2-0.3-2.7-0.9c-0.7-0.6-1-1.5-1-2.6s0.3-2,1-2.6
		s1.6-0.9,2.7-0.9s2,0.3,2.7,0.9C85.4,22.2,85.7,23.1,85.7,24.2z M81.3,19.4h-1.8v-1.6h1.8V19.4z M83.7,24.2c0-0.7-0.1-1.2-0.3-1.6
		c-0.4-0.5-0.8-0.8-1.4-0.8c-1.1,0-1.6,0.8-1.6,2.4c0,1.6,0.5,2.4,1.6,2.4c0.6,0,1-0.3,1.3-0.8C83.5,25.4,83.7,24.8,83.7,24.2z
		 M84.5,19.4h-1.8v-1.6h1.8V19.4z"/>
	<path class="st1" d="M94.3,24.1c0,1-0.2,1.9-0.7,2.5c-0.6,0.7-1.3,1.1-2.3,1.1c-0.8,0-1.5-0.3-2.1-1v3.4h-2v-7.7
		c0-0.5,0-1.1-0.1-1.7H89v1c0.5-0.8,1.3-1.2,2.3-1.2s1.7,0.3,2.2,1C94,22.3,94.3,23.1,94.3,24.1z M92.3,24.2c0-0.6-0.1-1.1-0.3-1.5
		c-0.3-0.5-0.7-0.8-1.2-0.8c-0.6,0-1,0.3-1.3,0.8c-0.2,0.4-0.3,0.9-0.3,1.6c0,0.6,0.1,1.1,0.3,1.5c0.3,0.5,0.7,0.8,1.2,0.8
		c0.6,0,1-0.3,1.3-0.8C92.1,25.3,92.3,24.8,92.3,24.2z"/>
</g>
<g class="st0">
	<path class="st1" d="M100.2,19.2c-0.2,0-0.5,0-0.6,0c-0.4,0-0.7,0.1-0.9,0.3c-0.1,0.2-0.2,0.4-0.2,0.8v0.6h1.6v1.2h-1.6v5.5h-2
		v-5.5h-1.3v-1.3h1.3v-0.6c0-1.6,0.8-2.4,2.3-2.4c0.3,0,0.8,0,1.3,0.1L100.2,19.2L100.2,19.2z"/>
</g>
<g class="st0">
	<path class="st1" d="M107.4,24.6h-4.9c0,0.6,0.1,1,0.4,1.4s0.7,0.6,1.2,0.6c0.8,0,1.3-0.4,1.4-1.2h1.9c-0.1,0.8-0.5,1.4-1.1,1.8
		c-0.6,0.3-1.3,0.5-2.2,0.5c-1.1,0-2-0.3-2.6-0.9s-0.9-1.4-0.9-2.5c0-1.2,0.3-2.1,0.9-2.7c0.6-0.7,1.5-1,2.6-1c1.5,0,2.5,0.6,3,1.8
		C107.3,22.9,107.4,23.6,107.4,24.6z M105.5,23.5c0-1.1-0.5-1.7-1.4-1.7c-0.5,0-0.9,0.2-1.1,0.5c-0.3,0.3-0.4,0.7-0.4,1.2H105.5z"/>
	<path class="st1" d="M113.2,22.5c-0.2,0-0.4,0-0.6,0c-1.2,0-1.8,0.6-1.8,1.9v3.2h-2v-5.1c0-0.2,0-0.5,0-0.8c0-0.4,0-0.6,0-0.8h1.9
		l0.1,1.3c0.4-0.9,1.1-1.3,2.1-1.3c0.1,0,0.3,0,0.3,0V22.5z"/>
</g>
<g class="st0">
	<path class="st2" d="M73.9,40.8h-2.1v-4.2h-4.2v4.2h-2.1V31h2.1v4h4.2v-4h2.1V40.8z"/>
	<path class="st2" d="M82.8,37.4c0,1.1-0.3,2-1,2.6s-1.6,0.9-2.7,0.9s-2-0.3-2.7-0.9c-0.7-0.6-1-1.5-1-2.6s0.3-2,1-2.6
		s1.6-0.9,2.7-0.9s2,0.3,2.7,0.9S82.8,36.3,82.8,37.4z M80.8,37.4c0-0.7-0.1-1.2-0.3-1.6c-0.3-0.5-0.7-0.8-1.3-0.8
		c-1.1,0-1.6,0.8-1.6,2.4c0,1.6,0.5,2.4,1.6,2.4c0.6,0,1-0.3,1.3-0.8C80.7,38.6,80.8,38,80.8,37.4z"/>
	<path class="st2" d="M86.2,40.8h-2V31h2V40.8z"/>
	<path class="st2" d="M93.4,40.8h-5.9v-1.3l3.6-4.1h-3.4v-1.3h5.6v1.4l-3.5,4.1h3.6C93.4,39.6,93.4,40.8,93.4,40.8z"/>
	<path class="st2" d="M101.4,40.8h-2v-3.6c0-0.6-0.1-1.1-0.2-1.3c-0.2-0.4-0.6-0.6-1.1-0.6s-0.9,0.3-1.2,0.8
		c-0.2,0.4-0.3,0.8-0.3,1.3v3.5h-2v-9.8h2V35c0.6-0.7,1.3-1.1,2.2-1.1c1.7,0,2.5,0.8,2.5,2.5L101.4,40.8L101.4,40.8z"/>
	<path class="st2" d="M109.3,40.8h-1.9c-0.1-0.3-0.1-0.6-0.2-0.9c-0.5,0.7-1.2,1.1-2.2,1.1c-0.7,0-1.3-0.2-1.7-0.5
		c-0.5-0.4-0.7-0.9-0.7-1.6c0-1.5,1.3-2.3,4-2.3h0.6v-0.3c0-0.9-0.3-1.4-1-1.4s-1,0.4-1,1.1h-2c0-0.8,0.3-1.3,1-1.7
		c0.5-0.3,1.2-0.4,2.1-0.4c1,0,1.7,0.2,2.2,0.5c0.5,0.4,0.8,1.1,0.8,2.2v2C109.2,39.5,109.2,40.3,109.3,40.8z M107.2,37.6
		C107.2,37.5,107.2,37.5,107.2,37.6c-0.1-0.1-0.2-0.1-0.3-0.1s-0.2,0-0.3,0c-1.4,0-2.1,0.4-2.1,1.3c0,0.3,0.1,0.6,0.3,0.7
		c0.2,0.2,0.5,0.3,0.8,0.3C106.7,39.8,107.2,39.1,107.2,37.6z"/>
	<path class="st2" d="M117.6,40.8h-2v-3.6c0-0.6-0.1-1.1-0.2-1.3c-0.2-0.4-0.6-0.6-1.1-0.6s-0.9,0.3-1.2,0.8
		c-0.2,0.4-0.3,0.8-0.3,1.4v3.4h-2v-5.5c0-0.5,0-0.9-0.1-1.3h2v1c0.6-0.8,1.3-1.1,2.2-1.1c1.7,0,2.5,0.8,2.5,2.5v4.3H117.6z"/>
	<path class="st2" d="M126.2,40.8h-2l-0.1-0.9c-0.6,0.7-1.3,1-2.1,1c-1,0-1.7-0.3-2.3-1c-0.5-0.6-0.7-1.5-0.7-2.5s0.2-1.8,0.7-2.4
		c0.5-0.8,1.3-1.1,2.3-1.1c0.9,0,1.7,0.3,2.2,1v-3.8h2V39C126.1,39.8,126.1,40.4,126.2,40.8z M124.2,37.4c0-0.6-0.1-1.1-0.4-1.6
		c-0.3-0.5-0.7-0.7-1.3-0.7c-1,0-1.5,0.8-1.5,2.3c0,1.6,0.5,2.3,1.6,2.3c0.5,0,1-0.3,1.2-0.8C124.1,38.5,124.2,38,124.2,37.4z"/>
	<path class="st2" d="M134.3,37.8h-4.9c0,0.6,0.1,1,0.4,1.4c0.3,0.4,0.7,0.6,1.2,0.6c0.8,0,1.3-0.4,1.4-1.2h1.9
		c-0.1,0.8-0.5,1.4-1.1,1.8c-0.6,0.3-1.3,0.5-2.2,0.5c-1.1,0-2-0.3-2.6-0.9c-0.6-0.6-0.9-1.4-0.9-2.5c0-1.2,0.3-2.1,0.9-2.7
		c0.6-0.7,1.5-1,2.6-1c1.5,0,2.5,0.6,3,1.8C134.2,36.1,134.3,36.8,134.3,37.8z M132.4,36.7c0-1.1-0.5-1.7-1.4-1.7
		c-0.5,0-0.9,0.2-1.1,0.5s-0.4,0.7-0.4,1.2H132.4z"/>
	<path class="st2" d="M137.7,40.8h-2V31h2V40.8z"/>
</g>
<polygon class="st2" points="36.3,0.5 0.4,8.4 0.4,12.4 36.3,6.2 "/>
<polygon class="st2" points="30.8,9.4 0.4,14.1 0.4,18.1 30.8,14.9 "/>
<polygon class="st2" points="30.8,40.3 0.4,37.1 0.4,41.1 30.8,45.8 "/>
<polygon class="st2" points="0.4,23.9 23.7,22.9 23.7,17.8 0.4,19.9 "/>
<polygon class="st2" points="0.4,35.3 23.7,37.4 23.7,32.3 0.4,31.4 "/>
<polygon class="st2" points="16.4,25.2 0.4,25.6 0.4,29.6 16.4,30 "/>
<polygon class="st2" points="36.3,49 0.4,42.8 0.4,46.8 36.3,54.7 "/>
<polygon class="st3" points="51.6,46.8 51.6,42.8 36.3,49 36.3,54.7 "/>
<polygon class="st3" points="51.6,37.1 30.8,40.3 30.8,45.8 51.6,41.1 "/>
<polygon class="st3" points="51.6,31.4 23.7,32.3 23.7,37.4 51.6,35.3 "/>
<polygon class="st3" points="51.6,25.6 16.4,25.2 16.4,30 51.6,29.6 "/>
<polygon class="st3" points="51.6,23.9 23.7,22.9 23.7,17.8 51.6,19.9 "/>
<polygon class="st3" points="51.6,18.1 30.8,14.9 30.8,9.4 51.6,14.1 "/>
<polygon class="st3" points="51.6,12.4 36.3,6.2 36.3,0.5 51.6,8.4 "/>
</svg>
