<svg version="1.1" id="Ebene_1" xmlns="http://www.w3.org/2000/svg" x="0" y="0" viewBox="0 0 167.4 55.5" xml:space="preserve"><style>.st0{enable-background:new}.st1{fill:#fff}</style><g class="st0"><path class="st1" d="M67.5 27.6h-2.1v-9.8h2.1zm6.6 0h-2.6l-3.9-5.4 3.5-4.4h2.6l-3.8 4.3zm2.8 0h-2v-9.8h2zm8.8-3.4c0 1.1-.3 2-1 2.6s-1.6.9-2.7.9-2-.3-2.7-.9-1-1.5-1-2.6.3-2 1-2.6 1.6-.9 2.7-.9 2 .3 2.7.9 1 1.5 1 2.6m-4.4-4.8h-1.8v-1.6h1.8zm2.4 4.8c0-.7-.1-1.2-.3-1.6-.4-.5-.8-.8-1.4-.8-1.1 0-1.6.8-1.6 2.4s.5 2.4 1.6 2.4c.6 0 1-.3 1.3-.8.2-.4.4-1 .4-1.6m.8-4.8h-1.8v-1.6h1.8zm9.8 4.7c0 1-.2 1.9-.7 2.5-.6.7-1.3 1.1-2.3 1.1-.8 0-1.5-.3-2.1-1v3.4h-2v-7.7c0-.5 0-1.1-.1-1.7H89v1c.5-.8 1.3-1.2 2.3-1.2s1.7.3 2.2 1c.5.8.8 1.6.8 2.6m-2 .1q0-.9-.3-1.5c-.3-.5-.7-.8-1.2-.8-.6 0-1 .3-1.3.8-.2.4-.3.9-.3 1.6q0 .9.3 1.5c.3.5.7.8 1.2.8.6 0 1-.3 1.3-.8.1-.5.3-1 .3-1.6"/></g><g class="st0"><path class="st1" d="M100.2 19.2h-.6q-.6 0-.9.3c-.1.2-.2.4-.2.8v.6h1.6v1.2h-1.6v5.5h-2v-5.5h-1.3v-1.3h1.3v-.6c0-1.6.8-2.4 2.3-2.4.3 0 .8 0 1.3.1z"/></g><g class="st0"><path class="st1" d="M107.4 24.6h-4.9c0 .6.1 1 .4 1.4s.7.6 1.2.6c.8 0 1.3-.4 1.4-1.2h1.9c-.1.8-.5 1.4-1.1 1.8-.6.3-1.3.5-2.2.5-1.1 0-2-.3-2.6-.9s-.9-1.4-.9-2.5q0-1.8.9-2.7c.6-.7 1.5-1 2.6-1q2.25 0 3 1.8c.2.5.3 1.2.3 2.2m-1.9-1.1c0-1.1-.5-1.7-1.4-1.7-.5 0-.9.2-1.1.5-.3.3-.4.7-.4 1.2zm7.7-1h-.6c-1.2 0-1.8.6-1.8 1.9v3.2h-2v-6.7h1.9l.1 1.3c.4-.9 1.1-1.3 2.1-1.3h.3z"/></g><g class="st0"><path class="st1" d="M73.9 40.8h-2.1v-4.2h-4.2v4.2h-2.1V31h2.1v4h4.2v-4h2.1zm8.9-3.4c0 1.1-.3 2-1 2.6s-1.6.9-2.7.9-2-.3-2.7-.9-1-1.5-1-2.6.3-2 1-2.6 1.6-.9 2.7-.9 2 .3 2.7.9 1 1.5 1 2.6m-2 0c0-.7-.1-1.2-.3-1.6-.3-.5-.7-.8-1.3-.8-1.1 0-1.6.8-1.6 2.4s.5 2.4 1.6 2.4c.6 0 1-.3 1.3-.8.2-.4.3-1 .3-1.6m5.4 3.4h-2V31h2zm7.2 0h-5.9v-1.3l3.6-4.1h-3.4v-1.3h5.6v1.4l-3.5 4.1h3.6zm8 0h-2v-3.6c0-.6-.1-1.1-.2-1.3-.2-.4-.6-.6-1.1-.6s-.9.3-1.2.8c-.2.4-.3.8-.3 1.3v3.5h-2v-9.8h2V35c.6-.7 1.3-1.1 2.2-1.1 1.7 0 2.5.8 2.5 2.5zm7.9 0h-1.9c-.1-.3-.1-.6-.2-.9-.5.7-1.2 1.1-2.2 1.1-.7 0-1.3-.2-1.7-.5-.5-.4-.7-.9-.7-1.6 0-1.5 1.3-2.3 4-2.3h.6v-.3c0-.9-.3-1.4-1-1.4s-1 .4-1 1.1h-2c0-.8.3-1.3 1-1.7.5-.3 1.2-.4 2.1-.4 1 0 1.7.2 2.2.5.5.4.8 1.1.8 2.2v2c-.1.9-.1 1.7 0 2.2m-2.1-3.2q0-.15 0 0c-.1-.1-.2-.1-.3-.1h-.3c-1.4 0-2.1.4-2.1 1.3 0 .3.1.6.3.7.2.2.5.3.8.3 1.1 0 1.6-.7 1.6-2.2m10.4 3.2h-2v-3.6c0-.6-.1-1.1-.2-1.3-.2-.4-.6-.6-1.1-.6s-.9.3-1.2.8c-.2.4-.3.8-.3 1.4v3.4h-2v-5.5c0-.5 0-.9-.1-1.3h2v1c.6-.8 1.3-1.1 2.2-1.1 1.7 0 2.5.8 2.5 2.5v4.3zm8.6 0h-2l-.1-.9c-.6.7-1.3 1-2.1 1-1 0-1.7-.3-2.3-1-.5-.6-.7-1.5-.7-2.5s.2-1.8.7-2.4c.5-.8 1.3-1.1 2.3-1.1.9 0 1.7.3 2.2 1v-3.8h2V39q-.15 1.2 0 1.8m-2-3.4c0-.6-.1-1.1-.4-1.6s-.7-.7-1.3-.7c-1 0-1.5.8-1.5 2.3 0 1.6.5 2.3 1.6 2.3.5 0 1-.3 1.2-.8.3-.4.4-.9.4-1.5m10.1.4h-4.9c0 .6.1 1 .4 1.4q.45.6 1.2.6c.8 0 1.3-.4 1.4-1.2h1.9c-.1.8-.5 1.4-1.1 1.8-.6.3-1.3.5-2.2.5-1.1 0-2-.3-2.6-.9s-.9-1.4-.9-2.5q0-1.8.9-2.7c.6-.7 1.5-1 2.6-1q2.25 0 3 1.8c.2.5.3 1.2.3 2.2m-1.9-1.1c0-1.1-.5-1.7-1.4-1.7-.5 0-.9.2-1.1.5s-.4.7-.4 1.2zm5.3 4.1h-2V31h2z"/></g><path d="M36.3.5.4 8.4v4l35.9-6.2zm-5.5 8.9L.4 14.1v4l30.4-3.2zm0 30.9L.4 37.1v4l30.4 4.7zM.4 23.9l23.3-1v-5.1L.4 19.9zm0 11.4 23.3 2.1v-5.1L.4 31.4zm16-10.1-16 .4v4l16 .4zM36.3 49 .4 42.8v4l35.9 7.9z" style="fill:#eee"/><path d="M51.6 46.8v-4L36.3 49v5.7zm0-9.7-20.8 3.2v5.5l20.8-4.7zm0-5.7-27.9.9v5.1l27.9-2.1zm0-5.8-35.2-.4V30l35.2-.4zm0-1.7-27.9-1v-5.1l27.9 2.1zm0-5.8-20.8-3.2V9.4l20.8 4.7zm0-5.7L36.3 6.2V.5l15.3 7.9z" style="fill:#555"/></svg>