<svg xmlns="http://www.w3.org/2000/svg" viewBox="0 0 1920 1080"><path d="m1818.45 386.41-131.43 130.94 131.43 130.94zm-30.32 271.64-106.98-106.59v106.59zm-135.34-106.59L1545.8 658.05h106.99zm-137.29 96.83 131.42-130.94-131.42-130.94zm331.31-330.14v368.14h-359.68V318.15l179.83 179.21zm-138.43 76.48c0 22.79-18.54 41.26-41.41 41.26s-41.4-18.47-41.4-41.26 18.54-41.26 41.4-41.26 41.41 18.47 41.41 41.26M592.02 636.19l-60.35-158.86h-38.92l80.85 196.33-36.19 87.94h35.06l120.57-284.27h-37.63zM427 628.31c-12.09 19.57-36.66 30.73-61.6 30.73s-42.7-9.09-42.7-31.48c0-18.83 10.58-31.63 54.42-35.02l49.89-4.14v39.91Zm-47.62-156.26c-44.59 0-79.36 15.81-84.65 59.87h37.41c5.29-24.1 22.29-28.24 46.86-28.24 33.63 0 47.99 15.06 47.99 45.56v9.41l-49.89 3.39c-66.13 4.52-91.83 25.23-91.83 67.4s30.61 62.12 74.45 62.12c31.75 0 52.91-11.3 68.4-32.01h.75v26.74h35.15V548.86c0-50.46-31.36-76.81-84.65-76.81m447.75 0c-26.45 0-46.86 11.67-59.71 30.88h-.76v-117.1h-37.03v300.46h37.03V535.31c11.72-18.83 28.73-30.12 52.15-30.12 33.63 0 47.61 21.47 47.61 52.71v128.39h37.04V551.5c0-46.31-28.72-79.44-76.34-79.44m479.99-.01c-31.36 0-51.28 13.93-63 35.77h-1.13v-30.5h-35.15v208.97h37.03V537.95c10.96-22.97 36.54-32.38 62.24-32.38h14.37v-33.51h-14.37Zm-313.43 91.12c5.29-33.89 28.72-58.36 60.46-58.36 41.19 0 59.71 27.11 63.49 58.36zm62.35-91.12c-60.84 0-100.52 49.32-100.52 111.07 0 68.15 40.81 108.43 101.27 108.43 48.37 0 80.87-26.74 93.34-62.5h-39.31c-7.93 20.33-33.63 29.74-53.28 29.74-41.57 0-62.36-26.35-64.63-64h161.36v-17.32c0-57.23-36.65-105.43-98.25-105.43m-945.99-86.21H72.59v300.46H245.3v-33.88H110.01z" style="fill:#ffffff"/></svg>