<svg xmlns="http://www.w3.org/2000/svg" viewBox="0 0 2279.977 514.522" height="514.522" width="2279.977" xml:space="preserve"><defs><clipPath id="a" clipPathUnits="userSpaceOnUse"><path d="M24.593 311.528h272.512v66.91H24.593z"/></clipPath></defs><g clip-path="url(#a)" transform="matrix(10 0 0 -10 -433.815 3666.643)"><path style="fill:#ffffff;fill-opacity:1;fill-rule:nonzero;stroke:none" d="M0 0c-3.04 0-5.168-1.173-6.645-3.083C-8.121-1.086-10.51 0-13.202 0c-2.519 0-4.517-1.042-5.689-3.214v2.693h-5.516v-20.846h5.733v11.683c0 2.996 1.737 4.69 4.082 4.69 2.258 0 3.822-1.52 3.822-4.343v-12.03h5.732v11.596c0 3.083 1.824 4.777 4.126 4.777 2.171 0 3.778-1.39 3.778-4.343v-12.03h5.733v12.898C8.599-3.083 4.603 0 0 0m34.351-.521h-5.515v-2.562C27.576-1.129 25.492 0 22.409 0c-5.776 0-10.814-4.647-10.814-10.944s5.038-10.944 10.814-10.944c2.692 0 5.037.999 6.427 3.084v-2.563h5.515zM22.973-16.763a5.79 5.79 0 0 0-5.819 5.819 5.79 5.79 0 0 0 5.819 5.819c3.214 0 5.733-2.562 5.733-5.819s-2.519-5.819-5.733-5.819M49.985-.217c-2.128 0-4.386-.999-5.515-3.301v2.997h-5.515v-20.846h5.732v10.336c0 3.214 1.954 5.603 5.733 5.603h1.346v5.124c-.565.043-1.26.087-1.781.087m25.97-21.15-9.12 10.901 8.642 9.945h-6.818l-7.687-9.163V6.558h-5.776v-27.925h5.776v9.685l7.991-9.685zM98.06-.521h-5.516v-2.562C91.284-1.129 89.2 0 86.117 0c-5.776 0-10.814-4.647-10.814-10.944s5.038-10.944 10.814-10.944c2.692 0 5.038.999 6.427 3.084v-2.563h5.516zM86.681-16.763a5.79 5.79 0 0 0-5.819 5.819 5.79 5.79 0 0 0 5.819 5.819c3.214 0 5.733-2.562 5.733-5.819s-2.519-5.819-5.733-5.819M114.171 0c-2.475 0-4.734-1.042-5.993-3.04v2.519h-5.515v-20.846h5.732v11.683c0 2.996 2.041 4.69 4.386 4.69 2.259 0 3.952-1.52 3.952-4.343v-12.03h5.733v12.898c0 5.559-3.822 8.469-8.295 8.469m19.152-5.472h4.95v4.951h-4.95v7.079l-5.69-1.737V-.521h-3.3v-4.951h3.214v-9.424c0-5.168 2.779-6.992 7.817-6.992 1.042 0 2.041.13 2.909.304v4.734a13.5 13.5 0 0 0-1.867-.13c-2.171 0-3.083.695-3.083 2.519z" transform="translate(133.106 351.882)"/><path style="fill:#fff;fill-opacity:1;fill-rule:nonzero;stroke:none" d="M0 0c0-14.194-11.506-25.7-25.7-25.7S-51.4-14.194-51.4 0s11.506 25.7 25.7 25.7S0 14.194 0 0" transform="translate(94.808 340.938)"/><path style="fill:#aaaaaa;fill-opacity:1;fill-rule:nonzero;stroke:none" d="M0 0q-.22.043-.442.081a22 22 0 0 1-.887.14q-.222.03-.445.058a23 23 0 0 1-.893.093 34 34 0 0 1-.896.061q-.223.012-.446.02a23 23 0 0 1-.452.009A17 17 0 0 0-3.117.38a16 16 0 0 0 .89-.109 21 21 0 0 0 .884-.154q.219-.044.438-.092a21 21 0 0 0 .867-.219C7.613-2.322 13.227-9.34 13.227-17.669c0-2.709-.594-5.28-1.659-7.589C8.695-31.484 2.397-35.806-4.91-35.806s-13.605 4.322-16.477 10.548a18.1 18.1 0 0 1-1.66-7.589c0-8.329 5.615-15.346 13.265-17.475a16 16 0 0 1 .868-.218 15 15 0 0 1 .879-.175 17 17 0 0 1 1.333-.181q.222-.023.447-.038.22-.016.444-.028a17 17 0 0 1 .786-.021l.115-.001a34 34 0 0 1 .898.016 22 22 0 0 1 .897.046 23 23 0 0 1 .895.077 34 34 0 0 1 .891.109 21 21 0 0 1 .887.139q.222.039.442.081c11.859 2.292 20.816 12.729 20.816 25.258S11.859-2.292 0 0" transform="translate(74.017 366.196)"/><path style="fill:#333333;fill-opacity:1;fill-rule:nonzero;stroke:none" d="M0 0q-.215.06-.432.115a21 21 0 0 1-.874.196 16 16 0 0 1-.883.154 16 16 0 0 1-.89.109 17 17 0 0 1-1.344.082 17 17 0 0 1-.898.002L-5.77.647A33 33 0 0 1-6.667.6a22 22 0 0 1-.894-.077 23 23 0 0 1-.447-.05l-.445-.058a34 34 0 0 1-.887-.14l-.442-.081c-11.859-2.292-20.816-12.729-20.816-25.258s8.957-22.966 20.816-25.258a31 31 0 0 1 .885-.155l.444-.066.445-.058a34 34 0 0 1 .894-.093q.223-.018.447-.034.225-.016.449-.027.611-.032 1.231-.035l-.334.005q-.227.006-.452.017-.223.011-.445.027a17 17 0 0 0-.893.088q-.218.026-.434.059a17 17 0 0 0-1.767.351 23 23 0 0 0-.432.115c-7.65 2.128-13.265 9.146-13.265 17.475 0 2.709.595 5.28 1.66 7.589 2.872 6.226 9.17 10.548 16.477 10.548s13.605-4.322 16.477-10.548a18.1 18.1 0 0 1 1.66 7.589C13.265-9.146 7.65-2.128 0 0" transform="translate(73.98 366.002)"/><path style="fill:#aaaaaa;fill-opacity:1;fill-rule:nonzero;stroke:none" d="M0 0a7.449 7.449 0 1 0-14.898 0A7.449 7.449 0 0 0 0 0" transform="translate(76.557 340.938)"/></g></svg>
