<?xml version="1.0" encoding="UTF-8"?>
<svg xmlns="http://www.w3.org/2000/svg" version="1.1" viewBox="0 0 1539.58 566.93">
  <!-- Generator: Adobe Illustrator 29.6.1, SVG Export Plug-In . SVG Version: 2.1.1 Build 9)  -->
  <defs>
    <style>
      .st0 {
        fill: #fff;
      }
    </style>
  </defs>
  <g id="Ebene_7">
    <path class="st0" d="M324.5,283.46c0,22.67-18.37,41.04-41.04,41.04s-41.04-18.37-41.04-41.04,18.37-41.04,41.04-41.04,41.04,18.37,41.04,41.04ZM186.48,295.39c-3.61,10.57-5.43,21.64-5.43,33.02,0,45.83,30.8,86.41,74.9,98.68.81.23,1.62.44,2.44.65.82.21,1.64.4,2.46.59.82.18,1.64.36,2.47.53.82.16,1.65.32,2.48.46.85.15,1.7.28,2.56.41.81.12,1.63.23,2.45.33.83.1,1.67.2,2.52.28.84.08,1.68.15,2.52.21.84.06,1.67.11,2.51.15.85.04,1.7.07,2.55.09.63.02,1.26.03,1.88.03h.65c.86,0,1.72,0,2.57-.02.86-.01,1.72-.04,2.58-.07.86-.03,1.71-.07,2.57-.11.86-.04,1.72-.1,2.57-.15.85-.06,1.71-.12,2.56-.2.86-.07,1.71-.16,2.56-.24.86-.09,1.71-.18,2.56-.29.86-.1,1.71-.21,2.55-.33.85-.12,1.7-.24,2.54-.38.85-.13,1.7-.27,2.54-.42.84-.15,1.69-.3,2.53-.46,69.09-13.35,119.23-74.2,119.23-144.68,0-51.11-26.37-97.15-67.21-123.69,20.13,20.56,32.26,48.62,32.26,78.75,0,16.42-3.46,32.24-10.29,47.04-18.32,39.71-58.41,65.37-102.13,65.37-40,0-76.95-21.47-96.98-55.54ZM380.45,271.54c3.61-10.57,5.43-21.64,5.43-33.02,0-45.83-30.8-86.41-74.9-98.68h0c-.81-.23-1.62-.44-2.44-.65-.82-.21-1.63-.4-2.46-.59-.82-.18-1.64-.36-2.47-.52-.83-.17-1.65-.32-2.49-.46-.83-.14-1.66-.28-2.5-.4-.83-.12-1.67-.24-2.51-.34-.84-.1-1.68-.2-2.52-.28-.84-.08-1.68-.15-2.53-.22-.84-.06-1.69-.11-2.53-.15-.84-.04-1.69-.07-2.54-.09-.84-.02-1.69-.03-2.54-.03s-1.72,0-2.57.02c-.86.01-1.72.04-2.57.07-.86.03-1.72.07-2.57.11-.86.04-1.71.1-2.57.15-.86.06-1.71.12-2.57.2-.86.07-1.71.16-2.56.24-.85.09-1.71.18-2.56.29-.85.1-1.7.21-2.55.33-.85.12-1.7.24-2.55.38-.85.13-1.69.27-2.54.42-.85.15-1.69.3-2.53.47-69.09,13.35-119.23,74.2-119.23,144.68,0,51.11,26.37,97.15,67.21,123.69-20.13-20.56-32.26-48.62-32.26-78.75,0-16.42,3.46-32.25,10.29-47.04,18.32-39.71,58.41-65.37,102.13-65.37,40,0,76.95,21.47,96.98,55.54Z"/>
  </g>
  <g id="Layer_3">
    <path class="st0" d="M1408.04,252.66h28.23v-28.23h-28.23v-40.37l-32.44,9.91v30.46h-18.82v28.23h18.33v53.74c0,29.47,15.85,39.87,44.58,39.87,5.94,0,11.64-.74,16.59-1.73v-26.99c-3.47.49-7.18.74-10.65.74-12.38,0-17.58-3.96-17.58-14.36v-51.26ZM1298.83,221.45c-14.12,0-26.99,5.94-34.18,17.34v-14.36h-31.45v118.87h32.69v-66.62c0-17.09,11.64-26.75,25.01-26.75s22.54,8.67,22.54,24.77v68.6h32.69v-73.55c0-31.7-21.79-48.29-47.3-48.29M1142.06,317.05c-18.57,0-33.18-14.86-33.18-33.19s14.61-33.18,33.18-33.18,32.69,14.61,32.69,33.18-14.36,33.19-32.69,33.19M1206.95,224.43h-31.45v14.61c-7.18-11.14-19.07-17.58-36.65-17.58-32.94,0-61.67,26.5-61.67,62.41s28.73,62.41,61.67,62.41c15.35,0,28.73-5.7,36.65-17.58v14.61h31.45v-118.87ZM1080.9,343.3l-52.01-62.16,49.28-56.71h-38.88l-43.83,52.25v-92.62h-32.94v159.24h32.94v-55.23l45.57,55.23h39.87ZM932.8,222.69c-12.14,0-25.01,5.7-31.45,18.82v-17.09h-31.45v118.87h32.69v-58.94c0-18.33,11.14-31.95,32.69-31.95h7.68v-29.22c-3.22-.25-7.18-.5-10.15-.5M778.76,317.05c-18.57,0-33.18-14.86-33.18-33.19s14.61-33.18,33.18-33.18,32.69,14.61,32.69,33.18-14.36,33.19-32.69,33.19M843.65,224.43h-31.45v14.61c-7.18-11.14-19.07-17.58-36.65-17.58-32.94,0-61.67,26.5-61.67,62.41s28.73,62.41,61.67,62.41c15.35,0,28.73-5.7,36.65-17.58v14.61h31.45v-118.87ZM647.76,221.45c-17.34,0-29.47,6.69-37.89,17.58-8.42-11.39-22.04-17.58-37.4-17.58-14.36,0-25.76,5.94-32.44,18.33v-15.35h-31.45v118.87h32.69v-66.62c0-17.09,9.91-26.75,23.28-26.75s21.79,8.67,21.79,24.77v68.6h32.69v-66.12c0-17.58,10.4-27.24,23.53-27.24,12.38,0,21.55,7.93,21.55,24.77v68.6h32.69v-73.55c0-30.71-22.78-48.29-49.04-48.29"/>
  </g>
</svg>