<svg xmlns="http://www.w3.org/2000/svg" height="140" viewBox="0 0 388.486 140.174" width="388"><path fill="#fe0000" d="M24.134 48.268A24.134 24.134 0 1 0 0 24.134a24.134 24.134 0 0 0 24.134 24.134m93.424 0a24.134 24.134 0 1 0-24.134-24.134 24.134 24.134 0 0 0 24.134 24.134m202.418-1.634a22.578 22.578 0 1 0-22.578-22.576 22.58 22.58 0 0 0 22.578 22.576M195.414 43.52a19.464 19.464 0 1 0-19.464-19.464 19.46 19.46 0 0 0 19.464 19.464M24.144 88.674A17.906 17.906 0 1 0 6.238 70.768a17.9 17.9 0 0 0 17.906 17.906"/><path fill="#fe0000" d="M117.558 90.23a19.464 19.464 0 1 0-19.464-19.464 19.46 19.46 0 0 0 19.464 19.464m202.418 0a19.464 19.464 0 1 0-19.464-19.464 19.46 19.46 0 0 0 19.464 19.464m-124.564 3.114a22.576 22.576 0 1 0-22.57-22.568 22.58 22.58 0 0 0 22.578 22.578M70.848 71.702a24.134 24.134 0 1 0-24.136-24.136 24.14 24.14 0 0 0 24.136 24.136M24.058 137.8a20.242 20.242 0 1 0-20.242-20.24 20.24 20.24 0 0 0 20.242 20.24m93.502 2.374a22.576 22.576 0 1 0-22.578-22.618 22.62 22.62 0 0 0 22.578 22.618m249.132-.896a21.8 21.8 0 1 0-21.8-21.8 21.8 21.8 0 0 0 21.8 21.8m-124.568.896a22.576 22.576 0 1 0-22.578-22.578 22.58 22.58 0 0 0 22.578 22.578m77.774-2.454a20.24 20.24 0 1 0-20.242-20.242 20.24 20.24 0 0 0 20.242 20.242m-124.484-.778a19.462 19.462 0 1 0-19.464-19.464 19.46 19.46 0 0 0 19.464 19.464"/></svg>