<svg xmlns="http://www.w3.org/2000/svg" width="784" height="768" viewBox="-9.185 -9.185 331.191 324.52"><path d="M148.069 98.727h-14.464v52.012h14.464c20.654 0 30.511-5.408 30.511-25.935.001-20.669-9.912-26.077-30.511-26.077m1.449 75.14h-42.37V37.803h26.458v37.796h15.912c32.879 0 55.52 16.257 55.52 49.129 0 32.885-22.641 49.139-55.52 49.139m105.701-75.148h-14.465v52.012h14.465c20.652 0 30.512-5.407 30.512-25.935 0-20.668-9.914-26.077-30.512-26.077m1.448 75.14H214.3V0h26.455v75.591h15.912c32.877 0 55.52 16.257 55.52 49.129-.001 32.885-22.644 49.139-55.52 49.139M40.92 150.739H26.456V98.726H40.92c20.651 0 30.512 5.409 30.512 25.936.001 20.666-9.915 26.077-30.512 26.077m1.448-75.14H0V211.66h26.456v-37.793h15.912c32.878 0 55.521-16.26 55.521-49.131.001-32.884-22.643-49.137-55.521-49.137" style="fill:#ffffff"/><path d="M291.493 306.15h5.393v-6.648l3.471-3.629 6.07 10.277h6.395l-8.674-14.262 8.029-8.416h-6.811l-8.48 9.25v-9.25h-5.393zm-24.485 0h5.434l-.158-14.262c1.541 3.02 1.924 3.725 3.979 7.1l4.238 7.162h5.555v-22.678h-5.428l.256 14.553c-1.059-1.992-1.602-3.023-3.4-6.199l-4.91-8.354h-5.564v22.678zm-11.314-7.707h-5.748c.514-1.701 1.379-4.369 1.863-6.07.32-1.158.645-2.346.93-3.502zm-5.815-14.97-8.414 22.678h6.039l1.123-3.631h8.352l1.125 3.631h6.039l-8.35-22.678zm-18.921 13.072c1.16.033 3.408.062 3.408 2.797 0 2.602-2.475 2.666-4.371 2.699h-3.953v-5.496zm-.256-8.834c1.094 0 2.99.096 2.99 2.283 0 2.344-2.09 2.408-3.377 2.441h-4.273v-4.725h4.66zm-10.055 18.439h9.572c2.604 0 4.434-.098 6.137-.834 2.824-1.252 3.756-3.723 3.756-5.49 0-1.289-.451-2.543-1.254-3.408-1.248-1.416-3.08-1.701-4.459-1.926 1.219-.26 3.402-.707 4.43-3.02.096-.227.418-.967.418-2.188 0-2.152-1.125-4.367-3.918-5.266-1.381-.451-3.533-.547-5.912-.547h-8.77zm-21.639-22.677v22.678h5.65v-9.156h10.828V292.6h-10.828v-4.762h11.758v-4.365zm-22.443 22.677h17.762v-4.461h-12.111v-5.404h10.377v-4.297h-10.377v-4.117h11.117v-4.398h-16.768zm-11.678-22.677v22.678h5.648v-22.678zm-14.201 4.238c1.189.031 3.278.127 3.278 3.02 0 3.023-2.604 3.088-3.408 3.117h-4.692v-6.137zm-10.504 18.439h5.683v-8.098h3.566l4.5 8.098h6.261l-5.233-9.059c1.541-.58 4.655-1.703 4.655-6.266 0-2.055-.738-3.854-1.798-5.041-2.086-2.248-5.041-2.281-7.419-2.312h-10.214zm-13.994-9.605c1.157.033 3.407.062 3.407 2.797 0 2.602-2.475 2.666-4.371 2.699h-3.955v-5.496zm-.257-8.834c1.093 0 2.989.096 2.989 2.283 0 2.344-2.089 2.408-3.375 2.441h-4.276v-4.725h4.662zm-10.055 18.439h9.572c2.604 0 4.436-.098 6.137-.834 2.825-1.252 3.756-3.723 3.756-5.49 0-1.289-.449-2.543-1.252-3.408-1.252-1.416-3.081-1.701-4.462-1.926 1.22-.26 3.402-.707 4.431-3.02.096-.227.417-.967.417-2.188 0-2.152-1.124-4.367-3.917-5.266-1.38-.451-3.534-.547-5.912-.547h-8.77zm-16.725-17.892c1.736 0 3.921-.033 5.465 2.021 1.028 1.416 1.188 2.992 1.188 4.562 0 6.525-4.179 6.688-7.199 6.752H96.87v-13.336zm-7.996 17.892h8.929c2.377-.033 8.706-.16 10.793-7.16.288-.965.577-2.41.577-4.371 0-3.182-.898-6.361-3.243-8.482-2.889-2.568-7.068-2.633-9.832-2.664h-7.225zm-24.687 0h5.435l-.16-14.262c1.541 3.02 1.925 3.725 3.979 7.1l4.237 7.162h5.553v-22.678h-5.425l.257 14.553c-1.06-1.992-1.604-3.023-3.403-6.199l-4.91-8.354h-5.564zm-11.635-7.707h-5.75c.513-1.701 1.38-4.369 1.862-6.07.322-1.158.643-2.346.932-3.502zm-5.814-14.97-8.416 22.678h6.039l1.125-3.631h8.352l1.125 3.631h6.038l-8.352-22.678zm-25.968 0v22.678h5.65v-9.156h10.826V292.6H28.701v-4.762h11.758v-4.365zm-13.769 4.173c1.639 0 4.5 0 4.5 3.309 0 3.506-2.571 3.568-4.693 3.568H5.682v-6.877zM0 306.15h5.682v-7.422h3.76c3.087-.064 7.262-.16 9.22-4.205.514-1.059.771-2.281.771-3.535 0-1.543-.417-3.375-1.285-4.66-1.99-2.855-5.298-2.855-9.026-2.855H0zm163.602-34.013h17.76v-4.465H169.25v-5.4h10.377v-4.301H169.25v-4.115h11.117v-4.396h-16.766v22.677zm-10.935-22.678v8.191h-8.293v-8.191h-5.715v22.678h5.715v-9.674h8.293v9.674h5.683v-22.678zm-22.536 15.227c-.771 1.316-1.96 3.373-4.915 3.373-3.052 0-5.591-2.473-5.591-7.455 0-3.791 1.928-7.197 5.591-7.197.932 0 2.022.254 3.116 1.125.996.836 1.381 1.604 1.703 2.344l4.498-2.248c-.643-1.125-1.381-2.377-2.955-3.631-1.704-1.344-4.016-2.246-6.619-2.246-6.424 0-10.983 5.299-10.983 12.014 0 7.678 4.847 12.049 10.854 12.049 3.148 0 5.364-1.318 6.328-1.992 1.799-1.252 2.603-2.537 3.438-3.855zm-40.262 3.373c1.414 1.639 3.95 4.59 10.343 4.59 3.182 0 6.459-.672 8.514-3.047a7.56 7.56 0 0 0 1.797-4.82c0-2.57-1.316-4.594-3.917-5.561-1.284-.451-4.529-1.061-6.94-1.35-.964-.127-2.894-.385-2.894-2.119 0-1.092 1.125-2.377 3.376-2.377 1.445 0 2.892.547 3.696.994.9.514 1.542 1.125 2.249 1.83l4.172-2.984c-1.958-1.768-4.783-4.303-10.021-4.303-3.921 0-9.121 1.732-9.121 7.58 0 4.883 4.718 5.879 6.1 6.168 1.221.258 2.475.418 3.729.576 1.67.227 3.952.516 3.952 2.314 0 1.576-1.928 2.637-4.178 2.637a9.3 9.3 0 0 1-4.372-1.094c-1.123-.607-1.604-1.123-2.183-1.766zm-19.768-14.108h5.911v18.186h5.683v-18.186h5.879v-4.492H70.101zm-9.618-4.492v14.102c-.032 1.768-.032 4.402-3.889 4.402-1.414 0-2.958-.355-3.664-1.541-.385-.707-.418-1.672-.418-2.828v-14.135h-5.714v12.654c-.032 3.086-.032 7.068 4.334 9.316 1.541.803 3.565 1.219 5.27 1.219.964 0 6.008-.191 8.448-4.105 1.252-2.057 1.284-4.244 1.316-6.43v-12.654zm-35.961 22.678h17.762v-4.465H30.173v-5.4H40.55v-4.301H30.173v-4.115h11.116v-4.396H24.522zM7.996 254.24c1.735 0 3.921-.031 5.464 2.025 1.028 1.414 1.189 2.988 1.189 4.564 0 6.521-4.179 6.682-7.2 6.746H5.714V254.24zM0 272.137h8.928c2.378-.033 8.706-.164 10.793-7.164.289-.963.578-2.41.578-4.369 0-3.182-.899-6.363-3.243-8.48-2.89-2.568-7.068-2.631-9.832-2.664H0z" style="fill:#ffffff"/></svg>