<svg id="Layer_1" xmlns="http://www.w3.org/2000/svg" version="1.1" viewBox="0 0 600 271.154" width="600" height="271.154"><defs><style>.st0,.st1{fill:#fff}.st1{fill-rule:evenodd}</style></defs><g id="Prestel"><g id="_x3C_Group_x3E_"><path id="_x3C_Compound_Path_x3E_" class="st1" d="M277.226 123.649c0 4.76 -2.308 9.087 -8.365 11.106 -0.865 0.288 -2.019 0.577 -3.029 0.721 0.865 0.433 2.163 1.298 4.615 4.615 2.452 3.462 10.24 14.567 10.24 14.567l4.471 -0.144v3.317h-12.26l-13.846 -21.635h-3.462v18.317l5.625 -0.144v3.462h-20.337v-3.462l6.49 0.144v-39.519l-6.49 0.288v-3.462h19.615c9.087 0 16.731 3.173 16.731 11.827m-21.635 9.663s3.75 0 5.192 -0.144c5.481 -0.144 7.788 -4.038 7.788 -9.519 0 -4.76 -3.317 -8.798 -9.231 -8.798h-3.75z"/><path id="_x3C_Compound_Path_x3E_1" data-name="_x3C_Compound_Path_x3E_" class="st1" d="M227.611 124.659c0 4.904 -2.019 9.375 -7.5 12.115 -2.019 1.01 -5.192 2.019 -9.375 2.019h-5.048v15.721l7.5 -0.144v3.462h-22.356v-3.462l6.635 0.144v-39.519l-6.635 0.433v-3.606h20.481c4.904 0 16.298 0.144 16.298 12.837m-21.923 10.385h5.192c5.192 -0.144 7.5 -5.048 7.5 -10.529 0 -5.913 -3.606 -9.663 -9.087 -9.663h-3.606z"/><path id="_x3C_Path_x3E_" class="st0" d="M411.361 154.514v-39.087l-9.663 0.288 -3.317 9.087h-3.029v-12.981h40.962v12.981h-3.029l-3.606 -9.087 -9.663 -0.288v39.087l6.923 -0.433v3.75h-22.5v-3.75z"/><path id="_x3C_Path_x3E_1" data-name="_x3C_Path_x3E_" class="st0" d="M502.514 157.832v-3.462l6.635 0.144v-39.519l-6.49 0.433v-3.606h21.635v3.606l-6.49 -0.433v39.087l13.702 -0.433 3.75 -8.365h3.462l-0.865 12.548z"/><path id="_x3C_Path_x3E_2" data-name="_x3C_Path_x3E_" class="st0" d="M311.553 136.053v18.029l17.452 -0.433 3.029 -7.5h3.173l-0.865 11.683h-37.933v-3.462l6.49 0.288v-39.663l-6.49 0.288v-3.462h35.769v10.962h-3.029l-2.596 -6.923 -15 -0.288v17.163l7.933 -0.144 2.452 -5.625h2.596v15h-2.596l-2.452 -5.769z"/><path id="_x3C_Path_x3E_3" data-name="_x3C_Path_x3E_" class="st0" d="M464.005 136.053v18.029l17.452 -0.433 3.029 -7.5h3.317l-1.01 11.683h-37.788v-3.462l6.49 0.288v-39.663l-6.49 0.288v-3.462h35.769v10.962h-3.029l-2.74 -6.923 -15 -0.288v17.163l8.077 -0.144 2.308 -5.625h2.74v15h-2.74l-2.308 -5.769z"/><path id="_x3C_Path_x3E_4" data-name="_x3C_Path_x3E_" class="st0" d="M381.361 145.572c0 7.788 -6.49 13.125 -16.442 13.125 -6.635 0 -10.24 -1.298 -13.125 -2.308v-11.683h3.029l3.317 9.231c0.865 0.433 3.462 1.01 5.481 1.01 5.913 0 9.519 -1.875 9.519 -7.067 0 -3.029 -0.865 -4.76 -5.192 -7.788l-7.933 -5.192c-6.058 -3.894 -7.5 -8.365 -7.5 -11.827 0 -7.5 5.769 -12.26 15.433 -12.26 3.894 0 8.365 1.01 12.548 2.163v11.394h-3.029l-2.885 -8.654c-1.01 -0.433 -3.317 -1.01 -5.481 -1.01 -5.337 0 -8.942 2.019 -8.942 6.346 0 2.885 1.01 4.471 5.625 7.356 1.298 0.865 5.192 3.317 7.933 5.048 2.74 1.875 7.644 4.471 7.644 12.115"/><path id="_x3C_Path_x3E_5" data-name="_x3C_Path_x3E_" class="st0" d="M71.986 114.13c11.683 3.173 15.721 1.298 22.356 -0.433 8.221 -2.163 14.712 -2.74 14.712 -2.74 -9.375 -4.904 -12.404 -5.481 -19.038 -3.75 -17.163 4.327 -27.837 3.894 -27.837 3.894s-2.019 -0.288 9.808 3.029"/><path id="_x3C_Path_x3E_6" data-name="_x3C_Path_x3E_" class="st0" d="M93.764 125.236s2.163 0.288 6.923 -0.865c4.904 -1.01 9.808 -2.452 12.981 -2.885 8.654 -1.587 17.163 -0.144 17.163 -0.144s-2.885 -3.029 -8.365 -3.029c-5.769 -0.144 -10.529 0.577 -15.577 1.875 -1.298 0.288 -6.923 1.731 -8.221 2.019 -1.442 0.144 -3.029 0.721 -7.356 -0.144s-11.827 -3.462 -11.827 -3.462 3.317 0.577 10.817 -1.442c8.942 -2.452 20.769 -4.904 24.952 -4.038 0 0 -2.74 -5.337 -2.74 -9.663 0 0 -0.433 -3.462 0.433 -6.635 0.721 -2.885 2.885 -6.202 4.471 -7.644 1.298 -1.154 2.596 -1.587 3.606 -2.452 0 0 1.154 3.462 5.337 4.183 2.74 0.433 7.356 0.721 8.221 0.865s2.019 0.433 2.74 1.154 1.01 1.731 0.721 2.596c-0.433 1.01 -1.01 1.731 -1.298 1.875 -1.587 0.433 -2.596 0.433 -4.76 0.865 -1.01 0.144 -5.913 1.154 -6.346 2.019 -0.288 0.865 1.01 4.327 5.769 7.5 3.462 2.308 5.769 4.183 7.933 8.51 2.163 4.183 3.606 6.923 6.635 8.51 3.173 1.442 8.654 0.577 10.673 1.154 1.875 0.577 3.75 2.019 6.346 3.317 3.317 1.442 10.673 4.471 13.125 8.942 0 0 0.144 0.288 -0.288 0.288 -0.577 0 -4.615 0.288 -6.49 -0.721 0 0 -3.606 -4.327 -8.51 -6.202 -4.76 -1.731 -11.683 -2.163 -17.308 -0.577 -1.01 0.288 -2.163 -0.865 -3.317 -1.442 -1.731 -0.721 -4.471 -1.731 -8.798 -2.019 -3.75 -0.144 -8.51 -0.288 -12.981 0.433 -3.894 0.577 -7.644 1.731 -11.683 1.442 -5.337 -0.433 -10.817 -3.029 -12.981 -4.183"/><path id="_x3C_Path_x3E_7" data-name="_x3C_Path_x3E_" class="st0" d="M155.063 133.313s-4.76 5.913 -6.779 7.356c-1.875 1.442 -5.048 2.596 -6.779 2.74 -0.721 0.144 -0.433 -0.433 0.144 -1.01 0.433 -0.721 2.163 -3.606 2.452 -3.75 0.144 -0.288 0.288 -0.433 0.721 -0.433s2.452 -0.721 4.615 -3.173c2.019 -2.74 2.308 -2.452 2.74 -2.452 0.577 0 3.317 -0.144 2.885 0.721"/><path id="_x3C_Path_x3E_8" data-name="_x3C_Path_x3E_" class="st0" d="M110.495 131.438c3.75 -0.577 11.827 -1.731 15 -1.875 3.894 -0.144 8.942 0.577 10.673 1.01 2.452 0.577 3.317 1.298 3.75 1.442 0.433 0.288 0.433 0.865 0 1.442 -0.577 0.721 -2.019 2.74 -2.885 3.606 -1.01 0.865 -3.317 2.308 -8.654 3.606s-11.25 2.452 -12.981 2.885c-1.587 0.433 -4.183 0.721 -5.769 3.894 -1.442 3.029 -2.163 5.625 -5.481 7.356 -3.462 1.731 -10.096 5.337 -12.837 7.933 -2.74 2.452 -4.76 4.76 -7.212 12.115 -2.596 7.212 -7.212 9.087 -8.221 9.519 -1.01 0.288 -0.433 -0.865 -0.144 -1.442 0.144 -0.577 0.865 -3.894 1.01 -4.615 0.144 -0.577 1.154 -0.865 1.731 -1.154 0.721 -0.721 2.74 -1.731 3.462 -6.058 0.721 -4.471 1.442 -9.519 1.442 -10.24 0 -0.577 0.144 -0.577 0.865 -0.721s3.606 -1.875 4.327 -5.048c0.721 -3.317 0.433 -5.048 0.288 -9.087 -0.144 -3.894 2.596 -7.644 4.038 -8.942 1.298 -1.154 3.606 -2.885 7.5 -3.894 3.462 -0.721 7.212 -1.298 10.096 -1.731"/><path id="_x3C_Path_x3E_9" data-name="_x3C_Path_x3E_" class="st0" d="M77.466 169.37c0.144 -0.288 2.163 -1.587 2.74 -1.875 0.577 -0.433 0.721 -0.288 0.577 0.433 -0.144 0.865 -0.577 3.462 -1.154 4.76 -0.721 1.442 -0.865 1.587 -1.587 2.019s-1.154 0.577 -1.587 0.721c-0.433 0.288 -0.433 0 -0.288 -0.433 0.144 -0.577 1.154 -5.337 1.298 -5.625"/><path id="_x3C_Path_x3E_10" data-name="_x3C_Path_x3E_" class="st0" d="M65.351 141.966c1.731 0.721 3.029 1.731 5.769 1.442 2.885 -0.288 5.192 -1.01 7.788 -1.587 2.596 -0.721 6.779 -1.154 8.077 -1.154 1.442 0 1.154 -0.144 0.577 -0.433q-0.865 -0.216 -3.462 -1.731c-1.875 -0.865 -4.327 -1.731 -7.212 -1.587 -2.885 0.288 -6.779 1.298 -9.375 1.875 -2.452 0.433 -3.894 0.865 -4.904 0.865 -0.721 0.144 -1.442 0.288 -1.298 0.433 0.288 0.144 3.029 1.442 4.038 1.875"/></g></g></svg>
