<?xml version="1.0" encoding="UTF-8"?>
<svg id="Layer_1" xmlns="http://www.w3.org/2000/svg" version="1.1" viewBox="0 0 416 188">
  <!-- Generator: Adobe Illustrator 29.6.1, SVG Export Plug-In . SVG Version: 2.1.1 Build 9)  -->
  <defs>
    <style>
      .st0, .st1 {
        fill: #fff;
      }

      .st1 {
        fill-rule: evenodd;
      }
    </style>
  </defs>
  <g id="Prestel">
    <g id="_x3C_Group_x3E_">
      <path id="_x3C_Compound_Path_x3E_" class="st1" d="M192.21,85.73c0,3.3-1.6,6.3-5.8,7.7-.6.2-1.4.4-2.1.5.6.3,1.5.9,3.2,3.2,1.7,2.4,7.1,10.1,7.1,10.1l3.1-.1v2.3h-8.5l-9.6-15h-2.4v12.7l3.9-.1v2.4h-14.1v-2.4l4.5.1v-27.4l-4.5.2v-2.4h13.6c6.3,0,11.6,2.2,11.6,8.2ZM177.21,92.43s2.6,0,3.6-.1c3.8-.1,5.4-2.8,5.4-6.6,0-3.3-2.3-6.1-6.4-6.1h-2.6v12.8Z"/>
      <path id="_x3C_Compound_Path_x3E_1" data-name="_x3C_Compound_Path_x3E_" class="st1" d="M157.81,86.43c0,3.4-1.4,6.5-5.2,8.4-1.4.7-3.6,1.4-6.5,1.4h-3.5v10.9l5.2-.1v2.4h-15.5v-2.4l4.6.1v-27.4l-4.6.3v-2.5h14.2c3.4,0,11.3.1,11.3,8.9ZM142.61,93.63h3.6c3.6-.1,5.2-3.5,5.2-7.3,0-4.1-2.5-6.7-6.3-6.7h-2.5v14Z"/>
      <path id="_x3C_Path_x3E_" class="st0" d="M285.21,107.13v-27.1l-6.7.2-2.3,6.3h-2.1v-9h28.4v9h-2.1l-2.5-6.3-6.7-.2v27.1l4.8-.3v2.6h-15.6v-2.6l4.8.3Z"/>
      <path id="_x3C_Path_x3E_1" data-name="_x3C_Path_x3E_" class="st0" d="M348.41,109.43v-2.4l4.6.1v-27.4l-4.5.3v-2.5h15v2.5l-4.5-.3v27.1l9.5-.3,2.6-5.8h2.4l-.6,8.7h-24.5Z"/>
      <path id="_x3C_Path_x3E_2" data-name="_x3C_Path_x3E_" class="st0" d="M216.01,94.33v12.5l12.1-.3,2.1-5.2h2.2l-.6,8.1h-26.3v-2.4l4.5.2v-27.5l-4.5.2v-2.4h24.8v7.6h-2.1l-1.8-4.8-10.4-.2v11.9l5.5-.1,1.7-3.9h1.8v10.4h-1.8l-1.7-4-5.5-.1Z"/>
      <path id="_x3C_Path_x3E_3" data-name="_x3C_Path_x3E_" class="st0" d="M321.71,94.33v12.5l12.1-.3,2.1-5.2h2.3l-.7,8.1h-26.2v-2.4l4.5.2v-27.5l-4.5.2v-2.4h24.8v7.6h-2.1l-1.9-4.8-10.4-.2v11.9l5.6-.1,1.6-3.9h1.9v10.4h-1.9l-1.6-4-5.6-.1Z"/>
      <path id="_x3C_Path_x3E_4" data-name="_x3C_Path_x3E_" class="st0" d="M264.41,100.93c0,5.4-4.5,9.1-11.4,9.1-4.6,0-7.1-.9-9.1-1.6v-8.1h2.1l2.3,6.4c.6.3,2.4.7,3.8.7,4.1,0,6.6-1.3,6.6-4.9,0-2.1-.6-3.3-3.6-5.4l-5.5-3.6c-4.2-2.7-5.2-5.8-5.2-8.2,0-5.2,4-8.5,10.7-8.5,2.7,0,5.8.7,8.7,1.5v7.9h-2.1l-2-6c-.7-.3-2.3-.7-3.8-.7-3.7,0-6.2,1.4-6.2,4.4,0,2,.7,3.1,3.9,5.1.9.6,3.6,2.3,5.5,3.5,1.9,1.3,5.3,3.1,5.3,8.4Z"/>
      <path id="_x3C_Path_x3E_5" data-name="_x3C_Path_x3E_" class="st0" d="M49.91,79.13c8.1,2.2,10.9.9,15.5-.3,5.7-1.5,10.2-1.9,10.2-1.9-6.5-3.4-8.6-3.8-13.2-2.6-11.9,3-19.3,2.7-19.3,2.7,0,0-1.4-.2,6.8,2.1Z"/>
      <path id="_x3C_Path_x3E_6" data-name="_x3C_Path_x3E_" class="st0" d="M65.01,86.83s1.5.2,4.8-.6c3.4-.7,6.8-1.7,9-2,6-1.1,11.9-.1,11.9-.1,0,0-2-2.1-5.8-2.1-4-.1-7.3.4-10.8,1.3-.9.2-4.8,1.2-5.7,1.4-1,.1-2.1.5-5.1-.1s-8.2-2.4-8.2-2.4c0,0,2.3.4,7.5-1,6.2-1.7,14.4-3.4,17.3-2.8,0,0-1.9-3.7-1.9-6.7,0,0-.3-2.4.3-4.6.5-2,2-4.3,3.1-5.3.9-.8,1.8-1.1,2.5-1.7,0,0,.8,2.4,3.7,2.9,1.9.3,5.1.5,5.7.6s1.4.3,1.9.8.7,1.2.5,1.8c-.3.7-.7,1.2-.9,1.3-1.1.3-1.8.3-3.3.6-.7.1-4.1.8-4.4,1.4-.2.6.7,3,4,5.2,2.4,1.6,4,2.9,5.5,5.9,1.5,2.9,2.5,4.8,4.6,5.9,2.2,1,6,.4,7.4.8,1.3.4,2.6,1.4,4.4,2.3,2.3,1,7.4,3.1,9.1,6.2,0,0,.1.2-.2.2-.4,0-3.2.2-4.5-.5,0,0-2.5-3-5.9-4.3-3.3-1.2-8.1-1.5-12-.4-.7.2-1.5-.6-2.3-1-1.2-.5-3.1-1.2-6.1-1.4-2.6-.1-5.9-.2-9,.3-2.7.4-5.3,1.2-8.1,1-3.7-.3-7.5-2.1-9-2.9h0Z"/>
      <path id="_x3C_Path_x3E_7" data-name="_x3C_Path_x3E_" class="st0" d="M107.51,92.43s-3.3,4.1-4.7,5.1c-1.3,1-3.5,1.8-4.7,1.9-.5.1-.3-.3.1-.7.3-.5,1.5-2.5,1.7-2.6.1-.2.2-.3.5-.3s1.7-.5,3.2-2.2c1.4-1.9,1.6-1.7,1.9-1.7.4,0,2.3-.1,2,.5Z"/>
      <path id="_x3C_Path_x3E_8" data-name="_x3C_Path_x3E_" class="st0" d="M76.61,91.13c2.6-.4,8.2-1.2,10.4-1.3,2.7-.1,6.2.4,7.4.7,1.7.4,2.3.9,2.6,1,.3.2.3.6,0,1-.4.5-1.4,1.9-2,2.5-.7.6-2.3,1.6-6,2.5-3.7.9-7.8,1.7-9,2-1.1.3-2.9.5-4,2.7-1,2.1-1.5,3.9-3.8,5.1-2.4,1.2-7,3.7-8.9,5.5-1.9,1.7-3.3,3.3-5,8.4-1.8,5-5,6.3-5.7,6.6-.7.2-.3-.6-.1-1,.1-.4.6-2.7.7-3.2.1-.4.8-.6,1.2-.8.5-.5,1.9-1.2,2.4-4.2.5-3.1,1-6.6,1-7.1,0-.4.1-.4.6-.5s2.5-1.3,3-3.5c.5-2.3.3-3.5.2-6.3-.1-2.7,1.8-5.3,2.8-6.2.9-.8,2.5-2,5.2-2.7,2.4-.5,5-.9,7-1.2Z"/>
      <path id="_x3C_Path_x3E_9" data-name="_x3C_Path_x3E_" class="st0" d="M53.71,117.43c.1-.2,1.5-1.1,1.9-1.3.4-.3.5-.2.4.3-.1.6-.4,2.4-.8,3.3-.5,1-.6,1.1-1.1,1.4s-.8.4-1.1.5c-.3.2-.3,0-.2-.3.1-.4.8-3.7.9-3.9Z"/>
      <path id="_x3C_Path_x3E_10" data-name="_x3C_Path_x3E_" class="st0" d="M45.31,98.43c1.2.5,2.1,1.2,4,1,2-.2,3.6-.7,5.4-1.1,1.8-.5,4.7-.8,5.6-.8,1,0,.8-.1.4-.3-.4-.1-1.2-.5-2.4-1.2-1.3-.6-3-1.2-5-1.1-2,.2-4.7.9-6.5,1.3-1.7.3-2.7.6-3.4.6-.5.1-1,.2-.9.3.2.1,2.1,1,2.8,1.3Z"/>
    </g>
  </g>
</svg>