<?xml version="1.0" encoding="utf-8"?>
<!-- Generator: Adobe Illustrator 27.8.1, SVG Export Plug-In . SVG Version: 6.00 Build 0)  -->
<svg version="1.1" id="Ebene_1" xmlns="http://www.w3.org/2000/svg" xmlns:xlink="http://www.w3.org/1999/xlink" x="0px" y="0px"
	 viewBox="0 0 3030 414.4" style="enable-background:new 0 0 3030 414.4;" xml:space="preserve">
<style type="text/css">
	.st0{fill:none;}
	.st1{fill:#00FFFF;}
</style>
<path class="st0" d="M-194-187.1h3418v800H-194V-187.1z"/>
<g>
	<path class="st1" d="M1511.6,112.1h-18.2l-28.3-38.4H1447v38.4h-16V12.9h36.2c20.2,0,33.7,12.3,33.7,30.4c0,13.1-7.2,23.3-19.1,28
		L1511.6,112.1z M1447,27v32.6h20c11.3,0,17.6-6.8,17.6-16.2S1478.3,27,1467,27H1447z"/>
	<path class="st1" d="M1589.4,80.4h-55.1c2.1,12.2,11.3,19.4,24.1,19.4c8.6,0,15.3-3.3,21.5-8.7l7.5,10.8
		c-7.9,7.6-18.5,11.9-29.4,11.9c-22.9,0-39.7-16.7-39.7-38.5s16.7-38.6,38.2-38.6c19.7,0,34.1,14.4,34.1,33.8
		C1590.6,73.8,1590.2,77.1,1589.4,80.4z M1534.6,68.1h40.2c-0.2-11.4-8.7-18-19-18C1545.3,50,1537.1,57.1,1534.6,68.1z"/>
	<path class="st1" d="M1601.7,99.5l9-9.9c5.9,6.2,12.3,10.5,20.8,10.5c6.5,0,11.9-2.7,11.9-8.3c0-4.8-4.4-6.8-10.4-9.2l-7.5-3.2
		c-11.9-5-19.2-10.4-19.2-21.5c0-13.7,11.4-21.4,26-21.4c10.7,0,19.4,4.1,25.6,11.4l-8.6,9.8c-4.5-4.8-10.7-7.5-17.3-7.5
		c-5.9,0-10.1,2.3-10.1,7.1c0,3.9,3,5.9,9.8,8.7l7.1,2.8c13.4,5.6,20.2,11.4,20.2,22.3c0,14.9-12.6,22.6-27.4,22.6
		C1619.9,114,1608.8,108.7,1601.7,99.5L1601.7,99.5z"/>
	<path class="st1" d="M1722.4,98.7v13.4c-4.3,1-8.7,1.6-13.1,1.6c-16.4,0-27.2-7.8-27.2-25.7V52h-12V38.3h12V18.9h15.9v19.4h22v13.7
		h-22v34.7c0,9.8,5.4,12.8,14.6,12.8C1715.9,99.4,1719.2,99.2,1722.4,98.7L1722.4,98.7z"/>
	<path class="st1" d="M1798.4,67.5v44.7h-14.7v-8.3c-5.3,6.3-13.4,9.9-23.6,9.9c-15.5,0-25.7-8.6-25.7-21.4
		c0-12.9,10.7-21.1,27.2-21.1h20.9v-4.8c0-10.2-5.7-15.8-15.8-15.8c-8.6,0-14.6,4.1-20.5,11l-9.2-9.3c7.7-10.8,18.7-15.8,31.1-15.8
		C1785.9,36.6,1798.4,47,1798.4,67.5L1798.4,67.5z M1782.4,84.1v-1.4h-19c-8.4,0-13.1,3-13.1,9c0,6.5,5.7,9.8,12.9,9.8
		C1773.7,101.6,1782.4,94.2,1782.4,84.1L1782.4,84.1z"/>
	<path class="st1" d="M1819.6,81.1V38.3h15.6v44.1c0,10.4,7.4,16.8,16.7,16.8c9,0,16.3-6.5,16.3-16.8V38.3h15.8v42.9
		c0,20-14,32.6-32,32.6C1833.5,113.8,1819.6,101.1,1819.6,81.1L1819.6,81.1z"/>
	<path class="st1" d="M1948.5,38.3v14h-4.8c-11.7,0-21.7,6.8-21.7,20.4v39.4h-15.8V38.3h14.8v9.6c5.1-6.7,13.1-10.5,21.5-10.4
		C1944.5,37.5,1946.5,37.7,1948.5,38.3z"/>
	<path class="st1" d="M1959.4,10.8c0-5.9,4.8-10.8,10.8-10.8s10.8,4.8,10.8,10.8l0,0c-0.3,5.9-5.3,10.5-11.2,10.3
		C1964.1,20.8,1959.6,16.3,1959.4,10.8z M1978,112.1h-15.8V38.3h15.8V112.1z"/>
	<path class="st1" d="M2067,80.4h-55c2.1,12.2,11.3,19.4,24.1,19.4c8.6,0,15.4-3.3,21.5-8.7l7.5,10.8c-7.9,7.7-18.5,11.9-29.5,11.9
		c-22.9,0-39.7-16.7-39.7-38.5s16.7-38.6,38.2-38.6c19.7,0,34.1,14.4,34.1,33.8C2068.2,73.8,2067.8,77.1,2067,80.4z M2012.2,68.1
		h40.2c-0.1-11.4-8.7-18-19-18C2022.9,50,2014.7,57.1,2012.2,68.1L2012.2,68.1z"/>
	<path class="st1" d="M2129.1,38.3v14h-4.8c-11.7,0-21.7,6.8-21.7,20.4v39.4h-15.8V38.3h14.7v9.6c5.1-6.7,13.1-10.5,21.5-10.4
		C2125.1,37.5,2127.1,37.7,2129.1,38.3z"/>
	<path class="st1" d="M2142.5,81.1V38.3h15.6v44.1c0,10.4,7.4,16.8,16.7,16.8c9,0,16.2-6.5,16.2-16.8V38.3h15.8v42.9
		c0,20-14,32.6-32,32.6C2156.5,113.8,2142.5,101.1,2142.5,81.1z"/>
	<path class="st1" d="M2293.7,66v46.2h-15.8V68.1c0-10.1-6.3-17.1-16.1-17.1S2245,58,2245,68.1v44.1h-15.8V38.3h14.7v7.4
		c5.1-5.6,12.8-9,22.1-9C2283.5,36.6,2293.7,48.7,2293.7,66L2293.7,66z"/>
	<path class="st1" d="M2373.8,38.3h14.6v66.2c0,23.8-15,36.4-37,36.4c-13.2,0.1-25.9-4.9-35.5-14l8.7-11c7.2,5.9,15,10.5,25.9,10.5
		c13.1,0,22.1-6.9,22.1-21.1v-5.1c-5.7,6.6-14.9,10.4-25,10.4c-20.6,0-35.9-15.2-35.9-37s15.5-37,35.9-37c11.1,0,20.6,4.5,26.2,12.2
		L2373.8,38.3z M2372.7,73.5c0-16.1-11.1-22.7-22.3-22.7c-12.6,0-22.6,9-22.6,22.9s9.9,23.2,22.6,23.2
		C2361.7,96.8,2372.7,89.6,2372.7,73.5z"/>
	<path class="st1" d="M2404.5,99.5l9-9.9c5.9,6.2,12.3,10.5,20.8,10.5c6.5,0,11.9-2.7,11.9-8.3c0-4.8-4.4-6.8-10.4-9.2l-7.5-3.2
		c-11.9-5-19.2-10.4-19.2-21.5c0-13.7,11.4-21.4,26-21.4c10.7,0,19.4,4.1,25.6,11.4l-8.5,9.8c-4.5-4.8-10.8-7.5-17.3-7.5
		c-5.9,0-10.1,2.3-10.1,7.1c0,3.9,3,5.9,9.8,8.7l7.1,2.8c13.4,5.6,20.2,11.4,20.2,22.3c0,14.9-12.6,22.6-27.4,22.6
		C2422.6,114,2411.6,108.7,2404.5,99.5L2404.5,99.5z"/>
	<path class="st1" d="M2474.8,52V38.3h59v4.5L2495,98.4h39v13.7h-62.7v-4.4l38.7-55.8H2474.8z"/>
	<path class="st1" d="M2614,80.4h-55c2.1,12.2,11.3,19.4,24.1,19.4c8.6,0,15.3-3.3,21.5-8.7l7.5,10.8c-7.9,7.7-18.5,11.9-29.5,11.9
		c-22.9,0-39.7-16.7-39.7-38.5s16.7-38.6,38.2-38.6c19.7,0,34.1,14.4,34.1,33.8C2615.2,73.8,2614.8,77.1,2614,80.4z M2559.2,68.1
		h40.2c-0.1-11.4-8.7-18-18.9-18C2570,50,2561.7,57.1,2559.2,68.1L2559.2,68.1z"/>
	<path class="st1" d="M2698.4,66v46.2h-15.8V68.1c0-10.1-6.3-17.1-16.1-17.1s-16.8,7.1-16.8,17.1v44.1h-15.8V38.3h14.7v7.4
		c5.1-5.6,12.8-9,22.1-9C2688.2,36.6,2698.4,48.7,2698.4,66L2698.4,66z"/>
	<path class="st1" d="M2763.2,98.7v13.4c-4.3,1-8.7,1.6-13.1,1.6c-16.4,0-27.2-7.8-27.2-25.7V52h-12V38.3h12V18.9h15.9v19.4h22v13.7
		h-22v34.7c0,9.8,5.4,12.8,14.6,12.8C2756.7,99.4,2760,99.2,2763.2,98.7L2763.2,98.7z"/>
	<path class="st1" d="M2820,38.3v14h-4.8c-11.7,0-21.7,6.8-21.7,20.4v39.4h-15.8V38.3h14.7v9.6c5.1-6.7,13.1-10.5,21.5-10.4
		C2816,37.5,2818,37.7,2820,38.3z"/>
	<path class="st1" d="M2833,81.1V38.3h15.6v44.1c0,10.4,7.4,16.8,16.7,16.8c9,0,16.2-6.5,16.2-16.8V38.3h15.8v42.9
		c0,20-14,32.6-32,32.6C2847,113.8,2833,101.1,2833,81.1z"/>
	<path class="st1" d="M3030,66v46.2h-15.9V68.2c0-10.2-5.7-17.1-15.4-17.1s-16.2,7.1-16.2,16.4v44.7h-15.8V68.2
		c0-10.2-6-17.1-15.5-17.1c-9.6,0-16.2,6.9-16.2,17.1v43.9h-15.8V38.3h14.7v6.9c5.1-5.4,12.5-8.6,21.4-8.6
		c10.5,0,18.1,4.5,22.4,11.6c5.3-6.8,14.1-11.6,25-11.6C3020.1,36.6,3030,48.7,3030,66L3030,66z"/>
	<path class="st1" d="M1431,266.5v-99.3h31.1c32.8,0,54,20.1,54,49.5c0,28.9-21.2,49.8-54,49.8L1431,266.5z M1447,181.7v70.5h15
		c23.3,0,37.8-14.9,37.8-35.5c0-21.2-14.4-35-37.8-35L1447,181.7z"/>
	<path class="st1" d="M1534.7,235.5v-42.9h15.6v44.1c0,10.4,7.4,16.8,16.7,16.8c9,0,16.2-6.5,16.2-16.8v-44.1h15.8v42.9
		c0,20-14,32.6-32,32.6C1548.7,268.1,1534.7,255.5,1534.7,235.5L1534.7,235.5z M1539.7,165.1c0-5.6,4.8-9.9,10.4-9.9
		c5.4,0,9.8,4.4,9.8,9.9s-4.4,9.9-9.8,9.9C1544.5,174.9,1539.6,170.4,1539.7,165.1L1539.7,165.1z M1573.5,165.1
		c0.2-5.6,4.8-10,10.4-9.9c5.4,0,9.8,4.4,9.8,9.9s-4.4,9.9-9.8,9.9C1578.3,174.9,1573.5,170.4,1573.5,165.1L1573.5,165.1z"/>
	<path class="st1" d="M1613.8,253.9l9-9.9c5.9,6.2,12.3,10.5,20.8,10.5c6.5,0,11.9-2.7,11.9-8.3c0-4.8-4.4-6.8-10.4-9.2l-7.5-3.2
		c-11.9-5-19.2-10.4-19.2-21.5c0-13.7,11.4-21.4,26-21.4c10.7,0,19.4,4.1,25.6,11.4l-8.6,9.8c-4.5-4.8-10.8-7.5-17.3-7.5
		c-5.9,0-10.1,2.3-10.1,7.1c0,3.9,3,5.9,9.8,8.7l7.1,2.9c13.4,5.6,20.2,11.4,20.2,22.3c0,14.9-12.6,22.6-27.4,22.6
		C1631.9,268.3,1620.9,263,1613.8,253.9L1613.8,253.9z"/>
	<path class="st1" d="M1683,253.9l9-9.9c5.9,6.2,12.3,10.5,20.8,10.5c6.5,0,11.9-2.7,11.9-8.3c0-4.8-4.4-6.8-10.4-9.2l-7.5-3.2
		c-11.9-5-19.2-10.4-19.2-21.5c0-13.7,11.4-21.4,26-21.4c10.7,0,19.4,4.1,25.6,11.4l-8.6,9.8c-4.5-4.8-10.7-7.5-17.3-7.5
		c-5.9,0-10.1,2.3-10.1,7.1c0,3.9,3,5.9,9.8,8.7l7.1,2.9c13.4,5.6,20.2,11.4,20.2,22.3c0,14.9-12.6,22.6-27.4,22.6
		C1699.6,268.1,1689.3,262.1,1683,253.9L1683,253.9z"/>
	<path class="st1" d="M1824.3,234.8h-55c2.1,12.2,11.3,19.4,24.1,19.4c8.6,0,15.3-3.3,21.5-8.7l7.5,10.8
		c-7.9,7.7-18.5,11.9-29.5,11.9c-22.9,0-39.7-16.7-39.7-38.5s16.7-38.7,38.2-38.7c19.7,0,34.1,14.4,34.1,33.9
		C1825.5,228.2,1825.1,231.5,1824.3,234.8L1824.3,234.8z M1769.5,222.4h40.2c-0.2-11.4-8.7-18-19-18
		C1780.2,204.4,1771.9,211.4,1769.5,222.4z"/>
	<path class="st1" d="M1844.3,153.7h15.8v112.8h-15.8V153.7z"/>
	<path class="st1" d="M1939.6,153.7h15.9v112.8h-14.7V256c-5.4,7.7-14.9,12.2-25.9,12.2c-21.1,0-36.1-16.5-36.1-38.5
		s15.2-38.7,36.1-38.7c10.2,0,19.1,3.9,24.7,10.7L1939.6,153.7z M1939.9,229.7c0-16.7-11.3-24.2-22.3-24.2
		c-12.8,0-22.7,9.8-22.7,24.1s9.8,24.2,22.7,24.2C1928.6,253.7,1939.9,246.5,1939.9,229.7L1939.9,229.7z"/>
	<path class="st1" d="M1973.9,229.5c0-21.7,17.1-38.5,38.9-38.5c22,0,39.3,17,39.3,38.5s-17.3,38.6-39.3,38.6
		c-21.3,0.2-38.7-16.8-38.9-38.1C1973.9,229.9,1973.9,229.7,1973.9,229.5z M2035.9,229.6c0-13.8-9.9-24.2-22.9-24.2
		c-13.2,0-23,10.4-23,24.2c0,13.7,9.8,23.9,22.9,23.9S2035.9,243.2,2035.9,229.6L2035.9,229.6z"/>
	<path class="st1" d="M2112.9,192.6v14h-4.8c-11.7,0-21.7,6.8-21.7,20.5v39.4h-15.8v-73.9h14.7v9.6c5.1-6.7,13.1-10.5,21.5-10.4
		C2108.9,191.9,2110.9,192.1,2112.9,192.6L2112.9,192.6z"/>
	<path class="st1" d="M2149.4,179.1v13.5h17.4v13.7h-17.4v60.2h-15.8v-60.2h-10.5v-13.7h10.5v-14.9c0-17.9,10.7-25.7,26.3-25.7
		c3.5-0.1,6.9,0.4,10.2,1.4v13.4c-2.1-0.3-4.2-0.4-6.3-0.5C2154.8,166.3,2149.4,169.3,2149.4,179.1z"/>
	<path class="st1" d="M1426.5,363.2c0-29,22.6-51.1,50.8-51.1c17,0,31.6,8,40.2,20.2l-5.9,4.7c-7.7-11.2-20.5-17.8-34.1-17.6
		c-24.4,0-42.7,18.9-42.7,43.8s18.2,43.9,42.7,43.9c14.6,0,26.5-6.6,34.1-17.4l5.9,4.7c-8.6,12.2-23.2,20.2-40.2,20.2
		C1448.9,414.4,1426.5,392.1,1426.5,363.2L1426.5,363.2z"/>
	<path class="st1" d="M1532.1,376.5c0-21.4,16.5-37.8,37.6-37.8c20.9,0.4,37.5,17.6,37.1,38.5c-0.4,20.4-16.9,36.9-37.3,37.1
		C1548.6,414.4,1532.1,397.7,1532.1,376.5z M1599.5,376.6c0-17.6-13.1-30.8-29.8-30.8c-17,0-29.8,13.2-29.8,30.8
		s12.8,30.7,29.6,30.7S1599.5,393.9,1599.5,376.6z"/>
	<path class="st1" d="M1686.1,367v45.9h-7.5v-45.4c0-12.6-7.7-21.7-20.3-21.7s-21.7,9.2-21.7,21.7v45.4h-7.5v-72.6h7.2v9.8
		c5-7.1,13.1-11.3,23.2-11.3C1676.5,338.7,1686.1,350.4,1686.1,367L1686.1,367z"/>
	<path class="st1" d="M1704.5,399.3l5.3-5c6,7.7,12.9,12.9,22.7,12.9c8.6,0,16.2-4.2,16.2-12.8c0-8.1-6.8-11-14.9-14.6l-6.6-2.9
		c-9.8-4.2-17.9-9.2-17.9-19.4c0-12.2,11-19,23.2-19c9.2,0,17.9,4.3,23.5,11.6l-5,4.8c-5-5.6-11.1-9.3-19-9.3
		c-7.7,0-14.7,3.5-14.7,11.4c0,6.8,5.3,9.5,13.7,13.1l6.8,3c10.7,4.7,18.8,9.9,18.8,20.9c0,13.4-11.6,20.2-24.2,20.2
		C1719.6,414.4,1710.3,407.4,1704.5,399.3L1704.5,399.3z"/>
	<path class="st1" d="M1841.3,378.3h-60.6c0.8,17,13.2,29,29.8,29c10.1,0,18.2-4.4,24.2-11.4l4.8,5c-7.2,8.6-17.9,13.6-29.2,13.5
		c-20.6,0.2-37.4-16.4-37.6-36.9c0-0.3,0-0.5,0-0.8c0-21,16.1-37.9,36.7-37.9c17.8,0,32.5,12.5,32.5,32.3
		C1841.9,373.5,1841.7,375.9,1841.3,378.3z M1781,371.5h53.1c0.6-16.2-11.3-25.9-25-25.9C1794.4,345.6,1783,356.5,1781,371.5z"/>
	<path class="st1" d="M1899.7,340.2v6.6h-3.8c-12,0-24.7,8.3-24.7,23.3v42.7h-7.5v-72.6h7.3v12.2c5.4-8.4,14.4-12.6,24.1-12.6
		C1896.6,339.8,1898.1,340,1899.7,340.2L1899.7,340.2z"/>
	<path class="st1" d="M1968.1,340.2h8.1l-33.1,74.2h-3.1l-33.4-74.2h8.1l26.8,61.2L1968.1,340.2z"/>
	<path class="st1" d="M2044.5,367.3v45.6h-7.2v-11.3c-5.4,8-14.6,12.8-26,12.8c-13.4,0-25-6.8-25-19.7c0-11.9,10.1-19.4,25.3-19.4
		h25.3V367c0-14.3-8.1-21.2-20-21.2c-9.8,0-16.4,4.8-22.1,12.2l-5.3-4.2c6.9-9.9,16.4-15,27.8-15
		C2033.1,338.7,2044.5,348.3,2044.5,367.3L2044.5,367.3z M2036.9,385.8v-4.1h-24.5c-11.9,0-18.2,4.5-18.2,12.5
		c0,9.5,9,13.5,17.9,13.5C2025.4,407.7,2036.9,398.4,2036.9,385.8L2036.9,385.8z"/>
	<path class="st1" d="M2105.2,406.2v6.6c-3.7,1-7.5,1.5-11.3,1.5c-12.6,0-22.3-6-22.3-21.8v-45.4h-12.6v-6.9h12.6v-20.6h7.7v20.6
		h23.5v6.9h-23.5v45.1c0,11.9,6.9,15.2,15.8,15.2C2098.6,407.4,2101.9,407,2105.2,406.2z"/>
	<path class="st1" d="M2119.6,312.2c0-3.6,2.9-6.6,6.5-6.6c0,0,0.1,0,0.1,0c3.7,0,6.6,3,6.6,6.6c0,3.6-3,6.6-6.6,6.6
		C2122.6,318.9,2119.6,316,2119.6,312.2C2119.6,312.3,2119.6,312.3,2119.6,312.2z M2130,412.9h-7.5v-72.6h7.5V412.9z"/>
	<path class="st1" d="M2150.9,376.5c0-21.4,16.6-37.8,37.6-37.8c20.9,0.4,37.5,17.6,37.1,38.5c-0.4,20.4-16.9,36.9-37.3,37.1
		C2167.5,414.4,2150.9,397.7,2150.9,376.5L2150.9,376.5z M2218.3,376.6c0-17.6-13.1-30.8-29.8-30.8c-17,0-29.8,13.2-29.8,30.8
		s12.8,30.7,29.6,30.7S2218.3,393.9,2218.3,376.6L2218.3,376.6z"/>
	<path class="st1" d="M2305,367v45.9h-7.5v-45.4c0-12.6-7.7-21.7-20.3-21.7s-21.7,9.2-21.7,21.7v45.4h-7.5v-72.6h7.2v9.8
		c5-7.1,13.1-11.3,23.2-11.3C2295.3,338.7,2305,350.4,2305,367z"/>
	<path class="st1" d="M2373.7,363.2c0-29,22.6-51.1,50.8-51.1c17,0,31.6,8,40.1,20.2l-5.9,4.7c-7.7-11.2-20.5-17.8-34.1-17.6
		c-24.4,0-42.7,18.9-42.7,43.8s18.2,43.9,42.7,43.9c14.6,0,26.5-6.6,34.1-17.4l5.9,4.7c-8.6,12.2-23.2,20.2-40.1,20.2
		C2396.1,414.4,2373.7,392.1,2373.7,363.2L2373.7,363.2z"/>
	<path class="st1" d="M2547.9,378.3h-60.6c0.8,17,13.2,29,29.8,29c9.4,0.1,18.3-4.1,24.2-11.4l4.8,5c-7.2,8.6-17.9,13.6-29.2,13.5
		c-20.6,0.2-37.4-16.3-37.6-36.9c0-0.3,0-0.6,0-0.8c0-21,16.1-37.9,36.7-37.9c17.7,0,32.5,12.5,32.5,32.3
		C2548.5,373.5,2548.3,375.9,2547.9,378.3L2547.9,378.3z M2487.6,371.5h53.1c0.6-16.2-11.3-25.9-25-25.9
		C2501,345.6,2489.5,356.5,2487.6,371.5z"/>
	<path class="st1" d="M2627.3,367v45.9h-7.5v-45.4c0-12.6-7.7-21.7-20.3-21.7s-21.7,9.2-21.7,21.7v45.4h-7.5v-72.6h7.2v9.8
		c5-7.1,13.1-11.3,23.2-11.3C2617.7,338.7,2627.3,350.4,2627.3,367z"/>
	<path class="st1" d="M2688.1,406.2v6.6c-3.7,1-7.5,1.5-11.3,1.5c-12.6,0-22.3-6-22.3-21.8v-45.4h-12.6v-6.9h12.6v-20.6h7.7v20.6
		h23.5v6.9h-23.5v45.1c0,11.9,6.9,15.2,15.8,15.2C2681.4,407.4,2684.8,407,2688.1,406.2z"/>
	<path class="st1" d="M2765.2,378.3h-60.6c0.8,17,13.2,29,29.8,29c9.4,0.1,18.3-4.1,24.2-11.4l4.8,5c-7.2,8.6-17.9,13.6-29.2,13.5
		c-20.6,0.2-37.4-16.3-37.6-36.9c0-0.3,0-0.6,0-0.8c0-21,16.1-37.9,36.7-37.9c17.8,0,32.5,12.5,32.5,32.3
		C2765.8,373.5,2765.6,375.9,2765.2,378.3L2765.2,378.3z M2704.9,371.5h53.1c0.6-16.2-11.3-25.9-25-25.9
		C2718.2,345.6,2706.8,356.5,2704.9,371.5z"/>
	<path class="st1" d="M2823.5,340.2v6.6h-3.8c-12,0-24.7,8.3-24.7,23.3v42.7h-7.5v-72.6h7.2v12.2c5.4-8.4,14.4-12.6,24.1-12.6
		C2820.4,339.8,2822,339.9,2823.5,340.2z"/>
	<path class="st1" d="M1270,212.9c0,117.1-82.9,200-200,200h-44v-90h44c64.4,0,100-45.6,100-110s-35.6-110-100-110h-44v-90h44
		C1187.1,12.9,1270,95.7,1270,212.9z M890,412.9h100v-400H890V412.9z M475,412.9h310v-90H575v-220h210v-90H475V412.9z M611,255.9
		h174v-86H611V255.9z M0,412.9h100v-400H0V412.9z M380,212.9c0-117.1-82.9-200-200-200h-44v90h44c64.4,0,100,45.6,100,110H380z
		 M136,212.9c0,117.1,82.9,200,200,200h59v-90h-59c-64.4,0-100-45.6-100-110H136z"/>
</g>
</svg>
