<svg width="19" height="162" viewBox="0 0 19 162" xmlns="http://www.w3.org/2000/svg"><path d="M7.692 159.141c-.993-.336-1.709-1.046-1.709-2.472s1.045-2.618 2.52-2.662v7.181c.044 0 .38.045.76.045 3.083 0 5.084-1.762 5.084-4.805 0-2.472-2.045-4.753-5.135-4.753-3.324 0-5.268 2.376-5.268 4.994 0 2.377 1.425 3.898 3.084 4.424zm2.52-5.09c1.045.095 2.185.951 2.185 2.428 0 1.616-1.045 2.377-2.184 2.377zm7.269-6.89c-.855 0-1.52.666-1.52 1.522a1.5 1.5 0 0 0 1.52 1.521A1.5 1.5 0 0 0 19 148.683c0-.856-.664-1.522-1.52-1.522m-13.207 2.662h9.782v-2.281H4.274zm9.832-3.854c0-.094.045-.335.045-.62 0-1.281-.615-2.377-1.66-2.852h1.565v-2.232H4.274v2.326h4.653c1.804 0 2.85.812 2.85 2.619 0 .234 0 .525-.045.759zm-6.414-9.652c-.993-.285-1.709-1.046-1.709-2.421 0-1.477 1.045-2.618 2.52-2.662v7.13c.044 0 .38.045.76.045 3.083 0 5.084-1.756 5.084-4.754 0-2.473-2.045-4.754-5.135-4.754-3.324 0-5.268 2.333-5.268 4.995 0 2.326 1.425 3.898 3.084 4.417zm2.52-5.039a2.324 2.324 0 0 1 2.185 2.377c0 1.616-1.045 2.377-2.184 2.428zm-5.938-4.234H18.81v-2.327H4.274zm1.52-9.457c0-.95.62-1.426 1.234-1.426.81 0 1.234.571 1.33 1.28l.379 2.568h-.424c-1.9 0-2.52-1.142-2.52-2.422m1.14-3.759c-1.565 0-2.99 1.236-2.99 3.284 0 1.616.805 2.567 1.564 3.042-.804 0-1.184.045-1.234.095v2.136c.095 0 .665-.095 1.57-.095h4.844c1.943 0 3.659-1.141 3.659-4.183 0-2.377-1.526-3.898-3.184-4.089l-.476 2.143c.95.095 1.754.761 1.754 1.996 0 1.281-.665 1.852-1.52 1.852-.328 0-.614-.191-.664-.71l-.38-2.524c-.235-1.666-1.235-2.947-2.944-2.947m-.235-6.94c0-1.521 1.044-2.522 2.754-2.522 1.658 0 2.754 1.045 2.754 2.522 0 1.47-1.096 2.517-2.754 2.517-1.666 0-2.754-1.047-2.754-2.517m-2.995-4.899c-1.944.241-3.558 2.047-3.558 4.658 0 3.663 2.418 4.995 5.033 4.995h8.877v-2.237h-1.28c.805-.425 1.425-1.376 1.425-2.897 0-2.663-2.14-4.519-4.748-4.519-2.754 0-4.749 1.901-4.749 4.519 0 1.425.665 2.421 1.425 2.852H5.084c-1.95 0-2.9-.951-2.9-2.808 0-1.331.905-2.282 2.09-2.42zm3.23-9.318c-1.14.14-2.99 1.237-2.99 4.038 0 2.522 1.66 3.707 3.134 3.707 1.47 0 2.565-.95 2.989-2.8l.285-1.478c.146-.614.525-.995 1.044-.995.57 0 1.096.57 1.096 1.427 0 1.28-.906 1.71-1.424 1.806l.518 1.946c1-.14 2.76-1.046 2.76-3.752 0-2.048-1.475-3.613-3.14-3.613-1.373 0-2.47.9-2.849 2.611l-.329 1.477c-.19.76-.57 1.14-1.095 1.14-.614 0-1.14-.526-1.14-1.476 0-1.236.81-1.901 1.665-1.996zm10.072-3.283v-2.136h-1.425c-.905 0-1.525-.43-1.525-1.476v-.527h-2.09v1.813H7.028c-1.804 0-2.894 1.141-2.894 2.947 0 .856.19 1.28.235 1.427h1.9c0-.096-.045-.476-.045-.812 0-.856.33-1.236 1.183-1.236h4.56v1.997h2.089v-1.997zM5.793 78.93c0-.906.62-1.426 1.235-1.426.81 0 1.234.57 1.33 1.28l.379 2.567h-.424c-1.9 0-2.52-1.14-2.52-2.421m1.14-3.758c-1.564 0-2.989 1.286-2.989 3.327 0 1.572.805 2.523 1.564 2.998-.804 0-1.184.095-1.234.095v2.187c.095-.051.665-.146 1.57-.146h4.844c1.943 0 3.659-1.14 3.659-4.132 0-2.428-1.526-3.95-3.184-4.14l-.476 2.143c.95.095 1.754.76 1.754 1.996 0 1.28-.665 1.851-1.52 1.851-.328 0-.614-.14-.664-.71l-.38-2.522c-.235-1.661-1.235-2.947-2.944-2.947m-1.14-6.517c0-.899.62-1.425 1.235-1.425.81 0 1.234.62 1.33 1.331l.379 2.567h-.424c-1.9 0-2.52-1.141-2.52-2.473m1.14-3.752c-1.564 0-2.989 1.281-2.989 3.328 0 1.616.805 2.567 1.564 3.043-.804 0-1.184.044-1.234.095v2.141c.095 0 .665-.094 1.57-.094h4.844c1.943 0 3.659-1.141 3.659-4.19 0-2.377-1.526-3.942-3.184-4.088l-.476 2.092c.95.145 1.754.811 1.754 2.047 0 1.28-.665 1.85-1.52 1.85-.328 0-.614-.19-.664-.76l-.38-2.472c-.235-1.71-1.235-2.992-2.944-2.992M17.006 61.1v-2.142h-1.425c-.905 0-1.525-.425-1.525-1.47v-.526h-2.09v1.806H7.028c-1.804 0-2.894 1.141-2.894 2.947 0 .856.19 1.287.235 1.427h1.9c0-.096-.045-.476-.045-.805 0-.856.33-1.237 1.183-1.237h4.56v1.997h2.089V61.1zm-1.855-5.425c1.615-.285 3.659-1.616 3.659-4.944 0-2.662-1.994-4.849-4.368-4.849-2.14 0-3.565 1.426-3.995 3.613l-.424 1.996c-.241 1.237-1 1.902-1.95 1.902-1.09 0-1.944-.855-1.944-2.567 0-2.04 1.373-3.137 2.848-3.276l-.62-2.238c-2.089.24-4.413 1.901-4.413 5.514 0 3.233 2.134 5.04 4.318 5.04 1.995 0 3.61-1.376 4.084-3.848l.43-2.048c.235-1.14.95-1.711 1.856-1.711 1.089 0 2.038 1.046 2.038 2.472 0 1.902-1.33 2.662-2.184 2.808zM0 0v22.539h7.312V7.51H18.81V0zm11.491 11.269V26.29H0v7.517h18.81V11.27z" fill="#ffffff"/></svg>
