<svg xmlns="http://www.w3.org/2000/svg" viewBox="0 0 690.6 68.6" xml:space="preserve"><path fill="#fff" d="M21.5 20.4v8.8h82.2v10.2H10.2V10.2h93.5v10.2zm-11.3 38h93.5V48.2H16.1zm207.5-48.2h-93.5v10.2h41.1v38h11.3v-38h41.1zm20.4 0v10.2h93.5V10.2zm0 19v29.2h93.5V48.2h-82.2v-8.8h82.2V29.2zm348.8-19v10.2h93.5V10.2zm0 19v29.2h93.5V48.2h-82.2v-8.8h82.2V29.2zm-185.8-8.7-46.8-10.3v48.2h11.3V24.3l35.5 7.8 35.5-7.8v34.1h11.3V10.2zm116.4 0-46.8-10.3v48.2H482V24.3l35.5 7.8 35.5-7.8v34.1h11.3V10.2z"/><path style="fill:none" d="M0 0h690.6v68.6H0z"/></svg>
