<svg xmlns="http://www.w3.org/2000/svg" width="300.501" height="158.099" viewBox="0 0 300.501 158.099"><g data-name="Layer 2"><circle cx="78.653" cy="79.447" r="78.653" style="fill:#ffffff"/><path d="M69.998 38.039h.862v-.862h.87v-.863h-.87v-.87h-.862v.863h-.863v.862h.863Zm15.277 50.25h.863v-.69h.69v-.862h-.69v-.69h-.863v.69h-.69v.862h.69ZM66.75 38.039h.863v-.862h.862v-.863h-.9v-.87h-.825v.863h-.9v.862h.9Zm19.328 76.013c.96 6.27 1.17 12.164 1.867 15.21l.84-.195c-.667-2.88-.892-8.835-1.86-15.15ZM77.4 79.702a1.875 1.875 0 0 0-2.145.667l.293.293a1.56 1.56 0 0 1 1.207-.668 1.4 1.4 0 0 1 1.328 1.253v1.012h.412v-1.073a1.84 1.84 0 0 0-1.14-1.485Zm2.61 0a1.85 1.85 0 0 0-1.102 1.5v1.072h.42v-1.028a1.4 1.4 0 0 1 1.327-1.252 1.56 1.56 0 0 1 1.208.668l.292-.293a1.875 1.875 0 0 0-2.182-.667Zm.698.93c-.75 0-1.043.292-1.043.57h.863a.3.3 0 0 0-.196.27.345.345 0 0 0 .69 0 .29.29 0 0 0-.18-.263h.84c-.037-.262-.48-.585-1.012-.585Zm16.927-27.038-.885-1.335-.832 1.335.832 1.335Zm-.885 30.473a2.093 2.093 0 1 0-2.1-2.1 2.093 2.093 0 0 0 2.1 2.1m0-3.75a1.236 1.236 0 1 1-.015-.008h.015Zm-.412 2.767h.862v-.69h.69v-.862h-.69v-.69h-.862v.69h-.69v.862h.69Zm-15.075-45h.862v-.907h.87v-.863h-.87v-.87h-.862v.863H80.4v.862h.863Zm-3 0h.862v-.907h.863v-.863h-.863v-.87h-.9v.863h-.87v.862h.87Zm-3.076 0h.863v-.907h.87v-.863h-.87v-.87h-.9v.863h-.9v.862h.862Zm1.65 42.54c-.75 0-1.042.293-1.042.57h.878a.3.3 0 0 0-.196.27.345.345 0 0 0 .69 0 .29.29 0 0 0-.187-.263h.833c-.03-.322-.473-.63-1.006-.63Zm7.913 30.9a2.3 2.3 0 0 0-.127-.75.675.675 0 0 0-.616-.45 1.3 1.3 0 0 0-.817.45c-.225.21-.45.458-.675.675a4.2 4.2 0 0 1-2.872 1.155 4 4 0 0 1-2.475-.855 2.6 2.6 0 0 0-1.5-.802.86.86 0 0 0-.75.547 2.8 2.8 0 0 0-.158 1.073v.097c0 .27.158 1.163.398 2.528a186 186 0 0 0 1.5 7.552c.3 1.305.622 2.535.922 3.54a8.8 8.8 0 0 0 .923 2.25 1.99 1.99 0 0 0 1.597.93 2.02 2.02 0 0 0 1.845-1.687c.195-.75 1.298-5.633 2.055-9.976v-.052c.225-1.297.42-2.542.555-3.63a22 22 0 0 0 .18-2.325 2 2 0 0 0 .015-.27m-3.63 15.99c-.21.75-.637 1.043-1.012 1.043a1.13 1.13 0 0 1-.893-.57 2.5 2.5 0 0 1-.24-.435 17.1 17.1 0 0 0 3-4.546l.248-.502c-.51 2.52-.975 4.568-1.095 5.018Zm.082-4.89a19 19 0 0 1-2.565 4.058 28 28 0 0 1-.532-1.74v-.046a21.6 21.6 0 0 0 4.905-6.645 28.4 28.4 0 0 1-1.8 4.38Zm2.528-8.745a22.1 22.1 0 0 1-5.888 10.072c-.525-2.077-1.042-4.56-1.447-6.682s-.75-3.998-.75-4.5a11.4 11.4 0 0 0 3 4.905l.563-.645a8.1 8.1 0 0 1-1.5-1.792 5.2 5.2 0 0 0 1.387.18 5.9 5.9 0 0 0 3.855-1.298l-.607-.607a5.16 5.16 0 0 1-3.248 1.05 3.08 3.08 0 0 1-2.122-.668 9.2 9.2 0 0 1-.63-1.74l.292.248a4.85 4.85 0 0 0 3 1.034 5.05 5.05 0 0 0 3.465-1.395c.255-.24.488-.494.675-.674l.09-.083v.458a19 19 0 0 1-.127 2.144Zm-11.618-2.76c-.75 4.402-1.5 11.25-4.642 17.01l.75.413c3.27-5.94 4.027-12.923 4.74-17.288Zm.908 9.082c-.135 3.608-.593 7.238-2.01 8.843l.652.562c1.696-2.01 2.055-5.722 2.25-9.375s.06-7.26.548-8.745l-.818-.27c-.6 1.815-.465 5.363-.622 8.985m3.833-96.254-.833-1.336-.84 1.335.833 1.335ZM99.038 9.913l-1.89-.562-.623 2.092-2.092-.622-.563 1.875 2.093.622-.623 2.1 1.89.563.623-2.093 2.092.623.555-1.89-2.092-.623ZM111.75 67.25l-.832-1.305-.833 1.335.833 1.335Zm37.62 1.418.068.548-4.86.63a.47.47 0 0 1-.458-.188h-.06a10.6 10.6 0 0 1-.833 1.995l1.5 1.095.165-.225c-.525-.338-.375-.6 0-1.358l4.778-.622.142 1.087.69.218-.18-1.388 2.048-.27v-.142a5.1 5.1 0 0 1-2.655-1.44Zm.968-13.432-1.74-.653a5 5 0 0 1-.496.27 14 14 0 0 0 1.583 1.05 3.5 3.5 0 0 0 .653-.675ZM103.5 102.989v.75l1.957-1.282.818 1.027-2.25 1.74.405.608 2.348-1.793.547.638-.892.75.48.48 1.5-1.185-.698-.818 1.298-1.185-.57-1.755.42-.285v-.457h-1.2l.667 2.25-.435.345-.802-.998v-2.123h-1.83v.63l.405.458-.405.3-1.238-1.388h-.57v.36l1.545 1.815Zm-.278-35.775.833 1.335.832-1.335-.832-1.335Zm46.89 6.908-5.002.247c-.405 0-.458-.21-.458-.21h-.067l-.878 1.313 1.043.975h.06a1.23 1.23 0 0 1 .255-.69l5.1-.248a.44.44 0 0 1 .39.18h.067l.945-1.275a5.5 5.5 0 0 1-1.057-.997h-.06s.067.682-.345.704Zm-7.995-14.078h-.06a10.6 10.6 0 0 1-.547 2.093l1.62.877.135-.247c-.57-.256-.458-.54-.233-1.335l4.643-1.29.292 1.057.75.113-.375-1.35 1.988-.555-.038-.143a5.16 5.16 0 0 1-2.827-1.05l-.263.075.15.533-4.725 1.305a.47.47 0 0 1-.51-.083m1.875 8.813h.06c-.06-.3 0-.75.113-.75l5.145-1.028a.45.45 0 0 1 .465.15h.06a12.4 12.4 0 0 1 .21-1.86c-.915-.36-1.14-2.167-2.393-1.92l-4.117.825a.44.44 0 0 1-.413-.12h-.067l-.69 1.658 1.08.884-.645 1.358a7.2 7.2 0 0 1 1.2.81Zm-.195-3.286 5.07-1.012a4.6 4.6 0 0 0-.15 1.238l-4.717.952-.48-.405Zm3.608 16.268a.44.44 0 0 1 .375.21h.075l.697-1.417 1.95 1.372a7.2 7.2 0 0 1 1.223-1.635 12.6 12.6 0 0 1-.975-2.347l-2.123-.053a.46.46 0 0 1-.412-.247h-.06l-.908 1.59-2.445-1.688a6.3 6.3 0 0 1-.96 1.83 11.5 11.5 0 0 1 1.193 2.34Zm1.192-2.512 2.303.052.052.105a10.7 10.7 0 0 0-1.267 1.597l-1.5-1.117Zm-3.975.937a10 10 0 0 0 .998-1.687l1.957 1.327-.307.6-2.543-.06ZM124.5 68.549l.832-1.335-.832-1.335-.832 1.335Zm-56.715 84.225a3.6 3.6 0 0 0 .262.9l1.418-1.207v-.57a14 14 0 0 0-1.673.877Zm49.02-85.56.833 1.335.862-1.335-.832-1.335Zm-49.95 82.26c.053-.285.863-4.5.945-4.92s.315-.397.315-.397v-.068l-1.072-1.162-1.17.81v.06a1.23 1.23 0 0 1 .614.405s-.907 4.747-.96 5.01a.44.44 0 0 1-.262.337v.068l1.02 1.222a5.6 5.6 0 0 1 1.215-.795v-.052s-.75-.105-.645-.518m9 1.208s.375-4.575.405-4.89a.47.47 0 0 1 .278-.405v-.06l-1.725-1.358-2.423 1.327-.442 5.288a.44.44 0 0 1-.233.367v.068c1.328 1.05 2.415 1.995 3.75 3.202a5.4 5.4 0 0 1 1.125-.997v-.06a12 12 0 0 1-2.25-1.74Zm-2.542-.128.472-5.692h.038l1.08.802-.45 5.423-.323.172Zm-4.426-6.277v.052a1.2 1.2 0 0 1 .63.383s-.69 4.785-.75 5.047a.45.45 0 0 1-.254.353v.067l1.064 1.17a5.6 5.6 0 0 1 1.178-.84v-.06s-.712-.082-.652-.495c0-.285.66-4.552.75-4.95s.3-.412.3-.412v-.068l-1.118-1.117Zm12.916 1.29a.44.44 0 0 1 .195-.39v-.068l-1.71-.99a22 22 0 0 1-2.378 1.628s.045 4.657.045 4.965a.47.47 0 0 1-.232.427v.06l1.087.863.953-.953v-.045l-.443-.322-.052-5.588.202-.127.99.607s.045 4.538.045 4.95-.232.45-.232.45v.068l1.282.93.99-1.028v-.052a1.2 1.2 0 0 1-.675-.285s-.045-4.823-.045-5.093Zm23.25-5.25-.248-.158-.352.533a3.5 3.5 0 0 1-2.67 1.5l-3.75-.053a3.23 3.23 0 0 1-.128 2.003h1.838l-.308.465a3.86 3.86 0 0 1-3.172 1.777h-2.1a1.7 1.7 0 0 1 .157.855c0 .75-.322.915-.322.915h1.74a2.4 2.4 0 0 0 1.11-.3 4.85 4.85 0 0 0-1.028 2.528v.87a5.8 5.8 0 0 1 2.16-.188v-1.74a6.3 6.3 0 0 1 .66-3l1.455-2.175a5 5 0 0 0 2.685-.75v3.69a2.5 2.5 0 0 1-1.545.75h-1.89a4.7 4.7 0 0 1 0 1.643 3.67 3.67 0 0 0 1.972-.368 5.3 5.3 0 0 0-.067 1.583 3.35 3.35 0 0 1 1.627 0v-2.25a3.2 3.2 0 0 1 .15-1.14h2.07v-.345c-.412 0-.57-.338-.622-1.23v-1.665a6.73 6.73 0 0 1 .6-3.563Zm-13.2 7.012v-.06l-1.71-.637 1.275-2.685a6.3 6.3 0 0 1-1.965-.66 11.7 11.7 0 0 1-2.115 1.552l.322 2.363a.44.44 0 0 1-.142.405v.075l1.5.465-1.043 2.137a7 7 0 0 1 1.8.945 12.5 12.5 0 0 1 2.167-1.35s-.247-1.792-.292-2.107a.47.47 0 0 1 .262-.405Zm-2.895-.48-.346-2.512.15-.128a10 10 0 0 0 1.83.713l-1.005 2.145Zm1.582 3.48a11 11 0 0 0-1.777-.997l.854-1.688.706.338.322 2.25Zm-4.62-.06s-.262-4.582-.285-4.897a.45.45 0 0 1 .21-.436v-.06a11 11 0 0 1-1.845-.93l-1.192 1.395.202.188c.383-.51.63-.337 1.358.053l.277 4.815-1.102.06-.263.675 1.403-.076.112 2.055h.15a5.1 5.1 0 0 1 1.62-2.542v-.27Zm31.973-131.25.472-.75-.75-.487-.472.712-.713-.472-.488.75.75.472-.48.75.75.488.473-.713.712.473.488-.75Zm23.857 39.998a1.25 1.25 0 0 1 0-.75l4.77-1.808a.44.44 0 0 1 .428.052h.067l.503-1.5a5.5 5.5 0 0 1-1.305-.622h-.053s.278.667-.12.817l-4.635 1.74c-.382.143-.502-.06-.502-.06h-.068l-.427 1.5 1.297.57Zm.908 53.25a2.9 2.9 0 0 0 .247-1.62 4.3 4.3 0 0 1-2.122 0v2.062a3.9 3.9 0 0 1-.285 1.755 16 16 0 0 1-1.853 0l.075 3.818a4.1 4.1 0 0 1-.57 2.4h-2.407a4.28 4.28 0 0 0-2.543.75 6.75 6.75 0 0 0 .848-3.09v-2.356a2.7 2.7 0 0 1 1.5-.592h1.785a5.6 5.6 0 0 1 0-1.92 4.6 4.6 0 0 0-1.5.157 2.93 2.93 0 0 0 .247-1.62 4.4 4.4 0 0 1-2.13 0v2.063a3.33 3.33 0 0 1-.315 1.808l-.037.052a1.74 1.74 0 0 1-1.448.495v3.27a9 9 0 0 1-.3 3.285l-1.102 1.658.262.15a4.1 4.1 0 0 1 3.353-2.206h4.995a2.6 2.6 0 0 1 .187-1.86h-.975a10.4 10.4 0 0 0 1.035-1.117 3.05 3.05 0 0 1 1.83-.847h1.815a5.5 5.5 0 0 1 0-1.92c-1.327 0-1.822.104-2.557.96a3 3 0 0 0 .18-.99v-2.13a2.7 2.7 0 0 1 1.5-.593h1.777a5.6 5.6 0 0 1 0-1.92 4.6 4.6 0 0 0-1.477.098Zm-4.875-63.968 4.305-2.34.3.083a9 9 0 0 1-.833 1.575v.06a5.2 5.2 0 0 1 1.403.262h.067l.75-1.672-1.275-.458.315-1.41a7 7 0 0 1-1.38-.435h-.052c.142.27.21.698.104.75l-4.425 2.408a.47.47 0 0 1-.487 0l-.075.074a11 11 0 0 1-.06 2.16l1.777.488.075-.263c-.585-.135-.54-.45-.494-1.282Zm12.967 39.398a2.57 2.57 0 0 0 .24-1.5 3.9 3.9 0 0 1-1.912 0v1.844a3.4 3.4 0 0 1-.263 1.59 3.9 3.9 0 0 1-2.07.578v.33c.435 0 .63.713.63 1.14v.637c0 .998 0 2.88-.412 3.518l-.563.892-2.707 4.088-1.5 2.25v-5.198l.705-1.065a2.7 2.7 0 0 1 1.62-.75h1.23a4.9 4.9 0 0 1 0-1.74 5 5 0 0 0-.893.053 2.84 2.84 0 0 0 .263-1.62 4.3 4.3 0 0 1-2.093 0v2.025a3.9 3.9 0 0 1-.27 1.71l-.667 1.005a3 3 0 0 1-2.34.705v.337c.442 0 .637.705.637 1.14v5.018c0 .997 0 2.88-.42 3.517-.195.308-.592.878-.592.878l.232.142s.51-.69 1.11-1.597l.173-.27a4.38 4.38 0 0 1 3.352-1.868h1.793a1.93 1.93 0 0 1 .637-1.575c-2.137 0-3.457-.255-4.71 1.328l-.128.187a5.6 5.6 0 0 0 .315-1.807l.353-.532a4.91 4.91 0 0 1 3.75-2.026h2.032a2.18 2.18 0 0 1 .705-1.77 2.37 2.37 0 0 1 1.343-.524h1.56a4.9 4.9 0 0 1 0-1.68 4 4 0 0 0-1.328.142 2.54 2.54 0 0 0 .225-1.418 3.8 3.8 0 0 1-1.86 0v1.808a2.93 2.93 0 0 1-.27 1.582l-.052.068c-1.673 0-2.888-.105-3.96.6l2.017-3.045.113-.172.832-1.26.12-.18v-.06l.143-.21a2.87 2.87 0 0 1 1.77-.84h1.957a5.5 5.5 0 0 1 0-1.883c-1.432 0-2.07.12-2.947 1.223a6.1 6.1 0 0 0 .457-2.25v-1.5a3.5 3.5 0 0 1 1.77-.563h1.185a5 5 0 0 1 0-1.725 4 4 0 0 0-1.312.293m-15.322-43.838 1.5-.945a17 17 0 0 1 2.91.84h.06l1.185-2.295a12.6 12.6 0 0 1-2.198-1.38l-4.237 2.723a.47.47 0 0 1-.48 0h-.053a14 14 0 0 1 .143 2.655l1.822.36v-.278c-.607-.052-.57-.593-.652-1.68m4.35-2.797-.983 1.995s-.877-.233-1.5-.376Zm2.917 13.05a.46.46 0 0 1 .435 0h.067v-1.583l2.348.42a7.2 7.2 0 0 1 .42-2.002 12.5 12.5 0 0 1-1.882-1.718l-1.95.855a.47.47 0 0 1-.48-.052h-.06l-.15 1.822-2.933-.495a6.2 6.2 0 0 1-.097 2.07 11.7 11.7 0 0 1 2.07 1.613Zm0-2.775 2.107-.923.09.075a11 11 0 0 0-.48 1.988l-1.852-.368Zm-3 2.64-.173-.12a10 10 0 0 0 .195-1.958l2.333.39v.668Zm-6.878 37.29h-.862v.69h-.705v.862h.69v.69h.862v-.69h.698v-.862h-.69ZM152.7 74.294s-.427.098-.555.105a14 14 0 0 0 1.177 1.5 3.5 3.5 0 0 0 .833-.435ZM78.668.794a78.653 78.653 0 1 0 78.637 78.668v-.016A78.653 78.653 0 0 0 78.653.817Zm8.467 17.378q1.013.135 2.025.315v4.5l-2.025-3.105Zm2.715 117.982-.75.69v.863h.855v.877H89.1v.863h-.9v-.855h-.855v-.87h.855v-.863l-.75-.69h-2.625l-.75.69v.863h.863v.877h-.863v.848h-.87v-.855h-.855v-.87h.855v-.855l-.75-.698h-2.543l-.75.698v.855h.855v.877h-.854v.848h-.878v-.855h-.855v-.87h.855v-.863l-.75-.69h-2.61l-.75.698v.855H75v.877h-.855v.848h-.877v-.856h-.856v-.87h.855v-.862l-.75-.69h-2.602l-.75.697v.855h.863v.878h-.863v.847h-.915v-.855h-.847v-.87h.847v-.847l-.75-.705H60c.3.3 2.618 2.347 3.803 3.397a62 62 0 0 1-6.113-1.845v-1.102l.48-.428 1.5-1.312h13.44a2.17 2.17 0 0 0 1.283.75h.24a4.3 4.3 0 0 0 .854-.098 2.3 2.3 0 0 0 .75-.247 7 7 0 0 0 .608-.39h6.173a4 4 0 0 0 .352.3 2.9 2.9 0 0 0 1.733.585 3 3 0 0 0 1.455-.382 1.06 1.06 0 0 0 .412-.51h10.695l1.928 1.687v1.193l-.428.172q-2.79.975-5.692 1.687l3.33-3.42Zm.9 4.043a62.2 62.2 0 0 1-24.27 0ZM72.593 34.746v3.794h-7.56v-3.794Zm-4.5-.863v-6.187a.93.93 0 0 1 .307-.66 1.1 1.1 0 0 1 .75-.293.97.97 0 0 1 .975.953v6.172Zm2.894-6.187a1.1 1.1 0 0 1 .248-.75.66.66 0 0 1 .502-.255.82.82 0 0 1 .578.277 1.03 1.03 0 0 1 .278.698v6.172h-1.606Zm7.606 7.027h4.732v3.795h-9.413v-3.773Zm-4.68-.862v-6.165a.923.923 0 0 1 .794-.975.75.75 0 0 1 .548.27 1.05 1.05 0 0 1 .27.705v6.172Zm2.467 0v-6.165a.915.915 0 0 1 1.83 0v6.172Zm2.7 0v-6.165a.893.893 0 1 1 1.778 0v6.172Zm-.427 29.602h-.06a12.8 12.8 0 0 0-2.64.293l2.684-4.118 2.7 4.125a13 13 0 0 0-2.684-.278Zm2.204 1.08v4.613a10 10 0 0 0-1.792-.24V64.34a12 12 0 0 1 1.793.218Zm-2.654-.21v4.612a10 10 0 0 0-2.033.308v-4.65a12 12 0 0 1 2.033-.248Zm.427-6.27-3.93 6a8 8 0 0 0-.75.285V62.78l4.717-7.23 4.695 7.17v1.673a13 13 0 0 0-.75-.27Zm0-6.563 4.695 7.11v2.536l-4.688-7.2-4.717 7.23v-2.415Zm-4.725-6.51a1.035 1.035 0 0 1 .99-.907.983.983 0 0 1 .945.975v9.157l-1.935 3Zm4.305 1.14v3.39h-1.5v-4.43a1.08 1.08 0 0 1 .54-.892 2.25 2.25 0 0 1 .998-.353v.938a.825.825 0 0 0 0 1.41ZM78 50.87l-1.32 2.025v-2.79a3.9 3.9 0 0 0 1.32.765m1.05-6.12v-.93a2.25 2.25 0 0 1 .938.345 1.09 1.09 0 0 1 .51.923v4.455H79.05v-3.39a.825.825 0 0 0 0-1.403m1.448 5.355v2.723L79.2 50.864a3.9 3.9 0 0 0 1.328-.757Zm.862 4.028v-9.045a.997.997 0 0 1 .96-.975 1.013 1.013 0 0 1 .975.923v12.037Zm.39 10.628a12 12 0 0 1 1.77.63v4.807a10 10 0 0 0-1.77-.75Zm1.605-30.878H81.75v-6.187a1.1 1.1 0 0 1 .248-.75.66.66 0 0 1 .502-.255.83.83 0 0 1 .578.27 1 1 0 0 1 .277.69Zm0 5.52v4.14a1.85 1.85 0 0 0-.975-.285 1.83 1.83 0 0 0-1.372.645 2 2 0 0 0-.465-.442 3.14 3.14 0 0 0-1.433-.51v-.48h.75v-.863h-.75v-.75h-.862v.75h-.75v.863h.75v.472a3.2 3.2 0 0 0-1.5.517 2.2 2.2 0 0 0-.466.435 1.8 1.8 0 0 0-1.357-.645 1.9 1.9 0 0 0-.99.293v-4.14ZM75.308 64.82v4.688a10 10 0 0 0-1.733.825V65.48a12 12 0 0 1 1.733-.66m3.344 4.966a9 9 0 0 1 6.323 2.594 8.6 8.6 0 0 1 2.618 6.106c0 3.39-2.055 6.172-5.25 7.86a2 2 0 0 1 .052-.563 11 11 0 0 1 1.26-3.157 1.25 1.25 0 0 0 1.14-.495 1.2 1.2 0 0 0 .045-1.156 1.37 1.37 0 0 0 .93-1.027 1.16 1.16 0 0 0-.84-1.297 1.22 1.22 0 0 0 .203-1.253 1.24 1.24 0 0 0-1.328-.712s.143-.526-.525-.923-1.035-.173-1.035-.173a.98.98 0 0 0-.555-.517 1.6 1.6 0 0 0-.802-.06 1.1 1.1 0 0 0-.615-.308 1.2 1.2 0 0 0-.75.105 1.186 1.186 0 0 0-1.785 0s-.128-.187-.623-.18a.89.89 0 0 0-.75.383.9.9 0 0 0-.788 0 1.13 1.13 0 0 0-.57.615s-.322-.285-1.042.157a1.04 1.04 0 0 0-.518.938 1.21 1.21 0 0 0-1.17.457 1.245 1.245 0 0 0 0 1.433 1.095 1.095 0 0 0-.817 1.192 1.34 1.34 0 0 0 .952 1.2 1.64 1.64 0 0 0 .128 1.133 1.38 1.38 0 0 0 1.192.495c.09.345.66 2.617.75 3.517a19 19 0 0 1-.982-.667 8.332 8.332 0 0 1-1.268-13.11 9 9 0 0 1 6.42-2.595Zm18.54-24.196v-.75h-.862v.75h-.75v.856h.75v2.512l-2.152 3.27V35.624l5.04 7.628v8.812l-2.033-3.097v-2.52h.75v-.863Zm-.442 4.283 2.46 3.75v2.175a1.95 1.95 0 0 0-2.512.39 1.93 1.93 0 0 0-1.5-.682 1.97 1.97 0 0 0-1.058.315v-2.026Zm2.46 7.365v20.123l-2.077-3.165V57.344a1.06 1.06 0 0 1 1.064-.967 1.035 1.035 0 0 1 1.028.862Zm-5.04.105a1.043 1.043 0 0 1 1.057-.975 1.02 1.02 0 0 1 1.028.967v16.86l-2.092 3.188v-20.04Zm2.52 17.752 2.52 3.84v7.35a1.9 1.9 0 0 0-1.005-.3 2.02 2.02 0 0 0-1.5.705 2.08 2.08 0 0 0-1.5-.705 1.96 1.96 0 0 0-.983.27V78.95Zm.427 52.853v-19.253h2.093v13.5l-2.01 3.578v2.19Zm.075 4.597v.983h-.585a1.4 1.4 0 0 0 .158-.173 3.3 3.3 0 0 0 .442-.81Zm-.075-25.792V87.816a.93.93 0 0 1 .323-.675 1.16 1.16 0 0 1 .75-.3.98.98 0 0 1 .99.975v18.938ZM95.145 86.84a1.2 1.2 0 0 1 .75.3.9.9 0 0 1 .33.668v18.937h-2.093V87.57a.96.96 0 0 1 1.028-.728Zm1.125 21.855v18.473l-.278-.248a7.8 7.8 0 0 1-1.747-2.085v-.045l-.06-.067v-16.028Zm-.855 18.863c.637.585 1.267 1.095 1.605 1.425a29 29 0 0 1-.488 2.842 2.7 2.7 0 0 1-.427.968.62.62 0 0 1-.532.277.7.7 0 0 1-.578-.277c-.517-.563-.622-2.25-.607-3.045v-.803a6.1 6.1 0 0 1-2.363-1.357c-.855-.863-1.725-2.4-2.175-5.378-.157-1.027-.322-3.307-.577-5.595a24.6 24.6 0 0 0-1.118-5.82l-.787.345a24.2 24.2 0 0 1 1.042 5.565c.255 2.25.42 4.5.585 5.625.465 3.09 1.395 4.83 2.415 5.85a5.8 5.8 0 0 0 2.153 1.358 6 6 0 0 0-.698.855 22 22 0 0 1-1.688 2.167 2.86 2.86 0 0 1-1.807 1.11 1.25 1.25 0 0 1-.915-.457 6.07 6.07 0 0 0-4.23-2.13 4.1 4.1 0 0 0-2.783 1.117 2.17 2.17 0 0 1-1.432.638 2.57 2.57 0 0 1-1.763-.885 6 6 0 0 0-.69-.645 4.1 4.1 0 0 0-1.155-.795 3.8 3.8 0 0 0-1.245-.225 4.1 4.1 0 0 0-1.575.315 9.8 9.8 0 0 0-2.677 1.77 3.16 3.16 0 0 1-2.018.87 2.66 2.66 0 0 1-2.07-1.133 4.6 4.6 0 0 0-1.087-1.14 1.77 1.77 0 0 0-.96-.277 141 141 0 0 0 4.41-13.358c.39-1.582.75-3.172 1.17-4.725a6.5 6.5 0 0 1 2.145-3.75 5.2 5.2 0 0 1 1.687-.322 2.4 2.4 0 0 1 .825.127 15.7 15.7 0 0 1 2.43 1.395 5.8 5.8 0 0 0 2.858 1.08 11.9 11.9 0 0 0 4.5-1.372 8 8 0 0 0 .592-.323 6 6 0 0 0 .75-.36l.21-.12a2.9 2.9 0 0 1 1.193-.285 2 2 0 0 1 .697.12 1.8 1.8 0 0 1 .75.803 20 20 0 0 1 1.665 5.482c.323 1.86.803 4.838 1.425 7.163a11 11 0 0 0 .848 2.062 7 7 0 0 0 .51.833l.09.112a8.7 8.7 0 0 0 1.89 2.333Zm-.915 5.97h-3a12 12 0 0 0 1.027-1.14c.413-.525.75-1.05 1.095-1.5a7.4 7.4 0 0 0 .195 1.275 3 3 0 0 0 .57 1.192 1.3 1.3 0 0 0 .113.173m-6.938 0h-.622a4.6 4.6 0 0 0-.285-.75 7.4 7.4 0 0 1 .893.75Zm-2.205-1.245a3.9 3.9 0 0 1 .84 1.957.6.6 0 0 1-.075.33v.053a2.1 2.1 0 0 1-1.005.255 2.03 2.03 0 0 1-1.23-.42 4.8 4.8 0 0 1-1.162-1.342 6 6 0 0 1-.285-.525 3.15 3.15 0 0 1 1.86-.623h.067l.6 1.68.81-.285Zm-3.412 1.245H81a3.4 3.4 0 0 0 .75-.398.9.9 0 0 0 .18.398Zm-2.858 0h-1.59c0-.278.045-.593.06-.915v-.143l.128.113a4.15 4.15 0 0 0 1.387.945Zm-3.24.27.698-2.108.18.105v.75a10 10 0 0 1-.113 1.268.9.9 0 0 1-.315.345 7 7 0 0 1-.54.352 2 2 0 0 1-.442.128 3.6 3.6 0 0 1-.683.082h-.135a1.64 1.64 0 0 1-.93-.697 1.05 1.05 0 0 1-.15-.615 3.47 3.47 0 0 1 .698-1.965 1 1 0 0 1 .12-.128 3 3 0 0 1 .51-.127h.367a2.4 2.4 0 0 1 .443.052l.24.075-.75 2.25Zm-3.322-.27h-1.688a6 6 0 0 0 .66-.48 14 14 0 0 1 1.275-.975 4.1 4.1 0 0 0-.255 1.357s-.007.068-.007.098Zm-12-4.965a27.1 27.1 0 0 0 4.635-6.315 46 46 0 0 0 3.225-8.768 6.66 6.66 0 0 1 2.055-3.45 11.7 11.7 0 0 0-.885 2.363c-.443 1.582-.75 3.172-1.17 4.747a135 135 0 0 1-4.733 14.115 12 12 0 0 0-.622 1.095 1.5 1.5 0 0 1-.937.75.8.8 0 0 1-.188 0c-.285 0-.622-.232-.922-1.027a10.9 10.9 0 0 1-.48-3.51Zm.315 4.965h-.75v-1.5q.052.187.12.375a3 3 0 0 0 .615 1.125Zm2.25-24.803v15.3a26.5 26.5 0 0 1-2.093 2.828v-18.158Zm-2.093-1.972V87.816a.92.92 0 0 1 .315-.675 1.17 1.17 0 0 1 .75-.3 1.005 1.005 0 0 1 1.013.938v18.975Zm2.093-29.385-2.122-3.173V57.344a.99.99 0 0 1 1.004-.975h.008a1.16 1.16 0 0 1 .75.3.92.92 0 0 1 .315.667Zm8.348 8.145a1.66 1.66 0 0 1 1.65 1.597l-.488.158.12.405a.8.8 0 0 1 0 .225c0 .27-.157.36-.39.383a.46.46 0 0 1-.45-.353l-.045-.135v-.18h.69v-.862h-.69v-.69h-.862v.69h-.69v.862h.69v.158l-.953.322a1.64 1.64 0 0 1-.277-.907 1.665 1.665 0 0 1 1.657-1.673h.015Zm-.083-.435v-.428q.215.235.45.458a2 2 0 0 0-.367 0Zm2.25 2.82v-.053l.428-.142 1.042 2.932-.367.135a1.25 1.25 0 0 0-1.043-.555 1.35 1.35 0 0 0-1.358 1.313l-.465.157-1.012-3 .442-.142a1.31 1.31 0 0 0 1.08.562 1.27 1.27 0 0 0 .855-.322 1.22 1.22 0 0 0 .383-.885Zm-.247-1.538.66.443-.518.142a2.1 2.1 0 0 0-.157-.585Zm9.142-3.795h-.45a2.8 2.8 0 0 1-.33.75c-.21.338-.217.218-.607.75a3.8 3.8 0 0 0-1.29-.682v-.75h-.368v.75h-.218v-.18h-.285v.3a.263.263 0 0 1-.517 0v-.33h-.278v.21h-.225v-.788h-.412v.75a3.4 3.4 0 0 0-1.155.585 1.82 1.82 0 0 1-1.177-1.44h-.256a15 15 0 0 1-.667-2.527c.27-.24.983-.908.953-1.238a1.13 1.13 0 0 0 .75.3 1.25 1.25 0 0 0 .99-.517 1.27 1.27 0 0 0 1.71-.3c.202.202.427.525.81.525a2.8 2.8 0 0 0 .9-.218 1.14 1.14 0 0 0 .99.518c.697 0 .75-.3.75-.3s.862.893 1.2 1.223a16 16 0 0 1-.818 2.61m1.208 5.25v.63q-.51-.667-1.013-1.282c.353-.18.683-.383 1.013-.593a2.1 2.1 0 0 0-.09.615 2.2 2.2 0 0 0 .074.6Zm-.443 1.5a8 8 0 0 1-.99.893 2.7 2.7 0 0 0-1.192 1.867 1.3 1.3 0 0 0 0 .256 13 13 0 0 0 .622 1.68 82 82 0 0 0 2.003 4.395c.36.75.75 1.395 1.035 1.92a3.4 3.4 0 0 0 .892 1.11 2.7 2.7 0 0 0 1.05.615c1.118.337 1.995.57 2.453 1.544l.75-.36c-.653-1.38-1.935-1.687-3-2.01l-.113-.045v-.21a21 21 0 0 1 .368-3.067l-.848-.15a26 26 0 0 0-.367 2.782 3.2 3.2 0 0 1-.353-.555 10.8 10.8 0 0 1-.84-3.75c-.12-1.38-.135-2.692-.277-3.547l-.848.142c.15.855.15 2.535.345 4.208-.195-.413-.39-.833-.577-1.245-.398-.878-.75-1.725-1.028-2.378a13 13 0 0 1-.45-1.207 1 1 0 0 1 0-.105c0-.323.353-.75.885-1.208a12 12 0 0 0 .96-.84c3.27 4.455 6.555 10.095 7.185 12.803a3.4 3.4 0 0 1 .053.622 3.62 3.62 0 0 1-1.5 2.813 6 6 0 0 1-.75.51v-.33a3.05 3.05 0 0 0-.54-1.853 3.1 3.1 0 0 0-.69-.63 3.93 3.93 0 0 0-1.965-.802h-.315a.86.86 0 0 1-.458-.315c-.817-.892-1.845-3.517-2.67-6.173a109 109 0 0 1-1.717-6.3 7.5 7.5 0 0 0 .877-.442 1.84 1.84 0 0 0 .825-1.088 4 4 0 0 0 .128-.81 13 13 0 0 1 1.042 1.223Zm2.445-3.75a1.658 1.658 0 1 1-1.657 1.658 1.66 1.66 0 0 1 1.62-1.695h.022Zm-.142-.427c.09-.09.187-.173.277-.27v.262h-.277Zm2.594-16.193v7.26a9.5 9.5 0 0 0-1.5-3.157v-5.603a14 14 0 0 1 1.5 1.5m-1.417-2.587 1.417-2.205v3.502a14.5 14.5 0 0 0-1.417-1.275Zm1.417 21.54v7.087c-.472-.75-.975-1.575-1.5-2.362v-3.608a2.1 2.1 0 0 0 0-3.69v-1.5a9.1 9.1 0 0 0 1.5-3.082v5.707a2.06 2.06 0 0 0 0 1.5Zm-2.332 1.35v2.115a69 69 0 0 0-1.275-1.8v-.653a2.06 2.06 0 0 0 1.14.338Zm4.388 17.482a4.41 4.41 0 0 0 1.657-3.285 4.5 4.5 0 0 0-.067-.75 14.3 14.3 0 0 0-.818-2.302v-11.25a2.1 2.1 0 0 0 1.223-1.793v19.455Zm1.994 1.973v10.327c-.292-1.5-.54-3-.75-4.087a28 28 0 0 0-.944-3.878 10 10 0 0 0-.818-1.897 5 5 0 0 0-.322-.48Zm-3.187-40.065v-4.5l3.188 4.852v6a17.85 17.85 0 0 0-3.195-6.322ZM92.213 81.2v5.843a2.09 2.09 0 0 0-1.223-1.793V74a22 22 0 0 1 1.215 7.223Zm-2.085-9.255v13.11a2.1 2.1 0 0 0-1.103.315v-15.3a16 16 0 0 1 1.103 1.875m-1.103-9.397v-3l3.18 4.897v3Zm0-4.545v-5.288a1.545 1.545 0 0 1 1.56-1.5 1.605 1.605 0 0 1 1.628 1.5V62.88Zm1.56-7.703a2.44 2.44 0 0 0-2.025 1.08 2.6 2.6 0 0 0-2.107-1.08 2.78 2.78 0 0 0-1.77.653l3.967-6.008 3.555 5.423v.577a2.55 2.55 0 0 0-1.627-.615Zm-.457 35.2a2.252 2.252 0 1 0-.008.03Zm0 3.75v9.225a64 64 0 0 0-1.103-2.04v-7.5a2.1 2.1 0 0 0 1.102.315Zm-4.403 17.775-3 1.822a1.5 1.5 0 0 1-.247-.127l3.082-1.988-.465-.75-3.195 2.063a1.4 1.4 0 0 1-.09-.435l3.165-1.898-.442-.75-2.378 1.425a2.2 2.2 0 0 1 .75-.75c.233-.135.263-.142 2.685-1.695h.09a5.3 5.3 0 0 1 1.41.608 2.48 2.48 0 0 1 .855 1.867 1.9 1.9 0 0 1-.075.563l-1.912 1.17a8 8 0 0 0-.93.487 4.5 4.5 0 0 1-.75.24l1.905-1.147Zm-7.447.75h-.256a2.19 2.19 0 0 1-1.987-2.13 2.123 2.123 0 0 1 2.295-2.273 3 3 0 0 1 .495.046l.263.045.157-.225a1.89 1.89 0 0 1 1.628-.878 3 3 0 0 1 1.357.353 2 2 0 0 1 1.035 1.68l-.307.195v-.046a1.8 1.8 0 0 0-.75-1.432 1.83 1.83 0 0 0-1.14-.405 2 2 0 0 0-1.845 1.23 1.73 1.73 0 0 0-.893-.24 1.965 1.965 0 0 0-1.942 1.62 2 2 0 0 0 0 .322 1.77 1.77 0 0 0 .555 1.328 1.86 1.86 0 0 0 1.267.48 2 2 0 0 0 .382 0 2.02 2.02 0 0 0 1.965 1.905 1.8 1.8 0 0 0 .75-.15l.21-.113a2.6 2.6 0 0 0 .345.308 2.6 2.6 0 0 1-.75.247 3.4 3.4 0 0 1-.607.06 2.18 2.18 0 0 1-2.123-1.612Zm0 1.747-.383-.232c-.405-.247-.81-.518-1.215-.75h.96a3.7 3.7 0 0 0 .653 1.05Zm-11.19-24a1.658 1.658 0 1 1-1.658 1.658 1.66 1.66 0 0 1 1.657-1.658Zm-.068-.435V72.231a16 16 0 0 1 1.2-2.07v15.285a2.06 2.06 0 0 0-1.132-.337Zm1.2 3.855v8.565l-.66 1.23c-.195.368-.375.75-.54 1.05v-10.5h.068a2.1 2.1 0 0 0 1.162-.352Zm-1.702 14.348v-.075a18.5 18.5 0 0 1 1.785-4.088c.9-1.702 2.04-3.69 3.217-5.565l.998 2.933 1.972-.69-.09-.383a.6.6 0 0 1 0-.172.465.465 0 0 1 .465-.465h.015c.18 0 .315.06.42.344l.135.413c-.502 1.433-1.312 3.413-1.725 4.5a1.7 1.7 0 0 0-.397-.045 3.1 3.1 0 0 0-2.145 1.17 28 28 0 0 1 .967-4.41l-.802-.308a34.5 34.5 0 0 0-1.373 8.318 4 4 0 0 0 .15 1.275 1.65 1.65 0 0 0 1.5 1.23 3.94 3.94 0 0 0 2.25-1.05 4.46 4.46 0 0 1-2.67 2.137 1.5 1.5 0 0 1-.457.068 4.5 4.5 0 0 1-2.835-1.545 4.87 4.87 0 0 1-1.5-3.053 1.9 1.9 0 0 1 .12-.54Zm6.63-11.76a.48.48 0 0 1 .495-.45c.18 0 .307.052.405.352a1 1 0 0 1 0 .173.48.48 0 0 1-.488.465c-.18 0-.3-.052-.412-.352a.6.6 0 0 1 0-.188m.412 1.395a1.343 1.343 0 0 0 1.35-1.328l.413-.15 1.02 2.865-.226.075-.217.068a1.27 1.27 0 0 0-1.05-.555 1.335 1.335 0 0 0-1.35 1.297l-.457.165-.968-2.865.443-.157a1.25 1.25 0 0 0 1.042.607Zm5.175-4.32h.405a2.68 2.68 0 0 0 2.25-1.425 9 9 0 0 1-.142 1.357.95.95 0 0 1-.466.6c-.254.165-.637.323-1.102.548l-.308.15.075.337c.083.368.203.87.353 1.448a1.66 1.66 0 0 1-1.057.397 1.87 1.87 0 0 1-1.29-.337c.172-.57.314-1.073.412-1.433l.105-.375-.36-.142a2.85 2.85 0 0 1-1.703-1.62 4 4 0 0 0-.135-.713 5 5 0 0 1 0-.585 3.31 3.31 0 0 0 2.978 1.793Zm-1.08-3.518h2.025a1.035 1.035 0 0 1-2.025 0M81 98.826a100 100 0 0 1-1.147-6.165l.24-.127c.344 1.35.802 3 1.304 4.59a20 20 0 0 1 .676 4.612 5 5 0 0 0-.465-.127h.044s-.314-1.08-.652-2.783m-1.102-1.035a5 5 0 0 0-.368-.577 1.25 1.25 0 0 0-.93-.608.6.6 0 0 0-.195 0l-.158.046c.105-.75.323-2.49.368-3.75h.345c.3 1.785.615 3.472.908 4.882Zm-2.933-4.455.247-.75a2.3 2.3 0 0 0 .548.233c0 .69-.098 1.545-.18 2.302Zm.36 3.608-.36.105-.623-1.815.128-.038.247-.082Zm-.36-6.548c-.12.428-.278.983-.465 1.59l-.39-1.102-.638-1.8a3.87 3.87 0 0 0 1.455 1.312Zm-.75 7.185a6 6 0 0 0-.66 1.028 4.1 4.1 0 0 1-.75 1.11c.322-.833.75-1.928 1.132-2.933Zm-2.94 3.293a19 19 0 0 0-1.403 1.672c-.352.465-.69.93-.967 1.335a9 9 0 0 1 .09-.975c.682-1.185 1.59-1.995 2.227-2.032Zm1.957 4.222.053-.052v.21a3 3 0 0 0 0 .435 2.93 2.93 0 0 0 .84 2.048H74.01a5 5 0 0 0 1.178-2.64Zm.368-1.35c-.27.188-.517.36-.712.51l-.248.203c-.045.06-.083.067-.135.142-1.388 1.358-2.355 1.845-2.813 1.823-.337 0-.517-.158-.75-.675a1.7 1.7 0 0 1-.075-.39c.345-.443.945-1.35 1.665-2.31a8.6 8.6 0 0 1 2.37-2.415 3.3 3.3 0 0 0 1.388-1.635c.322-.615.652-1.088.907-1.14l1.403-.405a1.3 1.3 0 0 1 .263.292l-.946.405.338.795 1.043-.442a3 3 0 0 1 .142.337l-1.027.42.322.795.99-.405a1.5 1.5 0 0 0 .098.353l-.953.352.3.803.803-.3v.15a1 1 0 0 1-.046.337c-.465.158-2.017.908-2.932 1.395-.338.255-.923.638-1.448 1.005Zm7.335-2.505c.127.285.255.548.382.803a6.5 6.5 0 0 0 .87 1.327 3 3 0 0 0 .323.308l-.375.24a2.8 2.8 0 0 0-1.193-1.793v-.322s-.044-.345-.052-.563Zm-.96 4.11a3 3 0 0 0-.337.39l-.66-.052-.308.69.495.278a3 3 0 0 0-.18.96 2.3 2.3 0 0 0 .12.75l-.105.06a1 1 0 0 1-.375.075 1.1 1.1 0 0 1-.75-.345 1.08 1.08 0 0 1-.338-.75.7.7 0 0 1 .188-.48l-.593-.623a1.35 1.35 0 0 1-.832.3.9.9 0 0 1-1.05-.907 1.4 1.4 0 0 1 0-.195 1.12 1.12 0 0 1 1.087-.885.915.915 0 0 1 .863.607l.802-.3a1 1 0 0 1-.037-.277.95.95 0 0 1 .337-.713 1.2 1.2 0 0 1 .75-.307.94.94 0 0 1 .608.21.93.93 0 0 1 .412.75 1.85 1.85 0 0 1-.225.75ZM70.5 85.304a2.093 2.093 0 0 0-.622 3.262l.622 1.838v3.217c-.48.75-.945 1.553-1.387 2.325v-8.16a2.1 2.1 0 0 0 .104-.644 2 2 0 0 0-.104-.638v-6.075a9.2 9.2 0 0 0 1.387 3.112Zm-1.387-17.58v-3.578l1.462 2.25a14 14 0 0 0-1.492 1.328Zm1.387-.158v5.708a9.5 9.5 0 0 0-1.387 3.18v-7.448a14 14 0 0 1 1.387-1.44m-1.778-16.162a2.44 2.44 0 0 0-2.025-1.08 2.55 2.55 0 0 0-1.627.592v-.48l3.577-5.49 3.945 6v.06a2.8 2.8 0 0 0-1.807-.675 2.6 2.6 0 0 0-2.1 1.073ZM65.07 52.7a1.61 1.61 0 0 1 1.628-1.5 1.5 1.5 0 0 1 1.558 1.439l.001.061v5.325L65.07 62.88zm3.18 6.9v3l-3.217 4.845v-3Zm0 4.545v4.568a18.1 18.1 0 0 0-3.187 6.345v-6.06Zm-3.172 17.25a21.9 21.9 0 0 1 1.11-7.042v10.942a2.1 2.1 0 0 0-1.126 1.5V81.39Zm1.11 7.68v12.57a6.8 6.8 0 0 0-.473 1.448 2.8 2.8 0 0 0-.105.75 5.08 5.08 0 0 0 1.118 2.902h-1.695v-19.17a2.1 2.1 0 0 0 1.124 1.478Zm2.692 19.62a4.6 4.6 0 0 0 1.193.488l-.158.127a7.56 7.56 0 0 0-2.363 3.893 55 55 0 0 1-2.512 7.305v-11.813Zm-4.89 23.633a3.2 3.2 0 0 1 .36-.63.4.4 0 0 1 .353-.165.9.9 0 0 1 .584.142 3.8 3.8 0 0 1 .87.93 4 4 0 0 0 .93.885h-3.96a3.3 3.3 0 0 0 .863-1.132Zm28.215-83.543-3.187-4.852v-1.5h.75v-.825h-.75v-.75h-.863v.75h-.75v.862h.75v1.635l-3.51 5.34V39.404h7.56Zm-7.035 2.91a1.92 1.92 0 0 1 1.275-.495 1.69 1.69 0 0 1 1.71 1.665v5.183l-3.517 5.333V52.769a1.6 1.6 0 0 1 .532-1.072m3 7.905v3l-2.107 3.285a14 14 0 0 0-1.41-.862v-.075Zm-2.332 7.163v5.25a10 10 0 0 0-1.5-1.275v-4.92a13 13 0 0 1 1.485.945ZM72.75 70.912a9.7 9.7 0 0 0-1.387 1.267v-5.325a13 13 0 0 1 1.387-.907Zm-1.5-5.056-2.153-3.277v-3l3.556 5.393a14 14 0 0 0-1.403.885m-2.153-7.822v-5.182a1.695 1.695 0 0 1 1.71-1.665 1.94 1.94 0 0 1 1.283.495 1.62 1.62 0 0 1 .517.974v10.718Zm0-14.01v-1.553h.75v-.862h-.75v-.75h-.847v.75h-.75v.863h.75v1.552l-3.187 4.853v-9.473H72.6v9.975Zm-2.302-10.14h-1.763V25.98l-.532-.953v-3.12h.75v-.862h-.75v-.75h-.885v.75h-.75v.863h.75v3.15l-.547.915v8.19l-5.048 7.62v-20.64a61.4 61.4 0 0 1 8.768-2.386Zm-3.75 1.838v16.425l-2.1-3.188v-2.513h.75v-.862h-.75v-.75h-.84v.75h-.75v.863h.75v2.512l-2.085 3.18v-8.797ZM60.54 49.874l2.528 3.84v2.115a2 2 0 0 0-1.08-.322 1.9 1.9 0 0 0-1.448.667 1.9 1.9 0 0 0-1.455-.667 1.95 1.95 0 0 0-1.057.315v-2.108Zm-1.455 6.503a1.013 1.013 0 0 1 1.028.974v16.846l-2.085 3.18V57.352a1.065 1.065 0 0 1 1.057-.975m1.455 18.75 2.528 3.84V86.3a1.9 1.9 0 0 0-1.013-.292 2.02 2.02 0 0 0-1.5.69 1.97 1.97 0 0 0-1.5-.69 1.94 1.94 0 0 0-1.035.3v-7.35Zm-1.5 11.744a1.05 1.05 0 0 1 1.05.976v18.937h-2.07V87.802a1.035 1.035 0 0 1 1.035-.96Zm1.065 21.826v19.034l-.067.068v-1.995l-2.018-3.585v-13.522Zm-1.38 17.475v7.717l-1.028.9v-10.44Zm39.802 7.717v-7.717l1.028-1.83v10.44Zm.698-92.197-5.04-7.628v-8.093l-.54-.93v-3.135h.75v-.862h-.75v-.75h-.87v.75h-.75v.863h.75v3.135l-.525.93v7.912h-1.748V18.749a61.6 61.6 0 0 1 8.768 2.37Zm-7.012-6.945v3.795h-7.568v-3.795Zm-7.56-.863v-6.187a.923.923 0 0 1 .794-.975.75.75 0 0 1 .548.27 1.04 1.04 0 0 1 .255.705v6.172Zm2.467 0v-6.187a.975.975 0 0 1 .975-.968 1.1 1.1 0 0 1 .75.3.95.95 0 0 1 .315.683v6.157Zm2.025-9.307v1.62a1.96 1.96 0 0 0-1.05-.323 1.82 1.82 0 0 0-1.387.653 1.63 1.63 0 0 0-1.26-.653 1.6 1.6 0 0 0-1.028.413v-2.025l2.25-3.458Zm-4.717-8.415a.916.916 0 0 1 1.83.06v3.667l-1.838 2.797v-6.465a.4.4 0 0 0 0-.06ZM81.75 2.857q2.25.09 4.5.307v8.25L84 5.624l-2.25 5.858Zm0 11.535v-.548L84 7.987l2.25 5.79v.892a1.7 1.7 0 0 0-.915-.27 1.75 1.75 0 0 0-1.35.645 1.75 1.75 0 0 0-1.35-.645 1.73 1.73 0 0 0-.922.27Zm0 1.837a.923.923 0 0 1 1.832-.215 1 1 0 0 1 .006.155v6.525l-1.838-2.805Zm1.83 8.033v2.054a1.67 1.67 0 0 0-1.087-.435 1.5 1.5 0 0 0-1.2.615 1.68 1.68 0 0 0-2.19-.352v-1.972l2.204-3.368Zm-4.5-1.658v-8.25a.893.893 0 1 1 1.778-.06v5.557Zm-2.7-19.777h4.455v6.12l-2.25-5.775-2.25 5.707Zm0 8.422 2.25-5.708 2.25 5.775v1.5a1.7 1.7 0 0 0-.885-.255 1.72 1.72 0 0 0-1.328.638 1.725 1.725 0 0 0-2.25-.368Zm0 3.045a.923.923 0 1 1 1.838.09v8.302L76.38 19.89Zm1.838 9.967v1.89a1.73 1.73 0 0 0-.916-.27 1.75 1.75 0 0 0-1.342.638 1.63 1.63 0 0 0-1.245-.637 1.56 1.56 0 0 0-1.028.412v-2.032l2.25-3.458Zm-4.5-1.567v-6.488a.923.923 0 1 1 1.837 0v3.668Zm-2.693-19.5c1.5-.15 3-.248 4.5-.315v8.497l-2.25-5.782-2.25 5.865Zm0 10.665 2.25-5.865 2.25 5.782v.908a1.7 1.7 0 0 0-.922-.27 1.76 1.76 0 0 0-1.35.638 1.74 1.74 0 0 0-1.35-.638 1.7 1.7 0 0 0-.915.27Zm0 2.392a.915.915 0 0 1 1.83 0v6.465l-1.83-2.797Zm1.83 8.033v2.063a1.67 1.67 0 0 0-1.087-.443 1.54 1.54 0 0 0-1.208.63 1.82 1.82 0 0 0-1.372-.63 1.96 1.96 0 0 0-1.05.315v-1.65l2.452-3.75Zm-4.71-1.267v-4.5a59 59 0 0 1 2.018-.315v1.687ZM27.96 94.267h-2.168a2.093 2.093 0 0 0 0-3.75h2.153Zm-3.975-3.75a2.093 2.093 0 0 0 0 3.75h-2.017v-3.75Zm-2.017-1.32v-4.013a.96.96 0 0 1 .367-.75 1.43 1.43 0 0 1 .923-.33 1.14 1.14 0 0 1 1.207 1.058v4.034Zm1.23 3.202a1.658 1.658 0 1 1 1.657 1.658 1.66 1.66 0 0 1-1.657-1.658m4.725-3.202h-2.588v-4.013a1.163 1.163 0 0 1 1.245-1.057 1.5 1.5 0 0 1 .953.337.95.95 0 0 1 .382.75Zm0-5.52a2.4 2.4 0 0 0-1.343-.413 2.18 2.18 0 0 0-1.672.75 2.13 2.13 0 0 0-1.643-.75 2.3 2.3 0 0 0-1.305.398v-2.093l2.94-4.5 3 4.583Zm0-3.555-2.588-3.96v-1.65h.75v-.863h-.75v-.75h-.862v.75h-.75v.863h.75v1.65l-2.505 3.84v-6.143l5.955-8.52Zm0-16.283-5.955 8.52V62.107l-.653-1.058-.667 1.058v33.487h7.267v19.343a61.89 61.89 0 0 1 0-70.875Zm0-24.217v2.94a62.745 62.745 0 0 0 0 73.845v20.542q-1.793-1.582-3.495-3.27A76.68 76.68 0 0 1 70.125 3.262v14.062c-.675.09-1.35.203-2.017.315V7.364l-.66-.832-.645.832v10.5a62 62 0 0 0-8.783 2.332v-2.25l-.96-1.642-.997 1.643v3q-2.91 1.125-5.67 2.52v-2.295l-1.313 2.137v.855a62.8 62.8 0 0 0-12.112 8.438v-2.288l-1.313 2.032v1.463a63 63 0 0 0-5.76 6.195v-.382l-.967-1.65Zm19.792 99v-.878h.863v-.862h.877v.862h.855v.878h-.855v.825h-.877v-.855Zm-17.827-2.43v-1.313h24.6l1.5 1.313Zm13.657 2.43v-.878h.863v-.862h.877v.862h.855v.878h-.848v.825h-.877v-.855Zm-4.162 0v-.878h.862v-.862h.87v.862H42v.878h-.877v.825h-.87v-.855Zm-4.163 0v-.878h.863v-.862h.877v.862h.855v.878h-.855v.825h-.877v-.855ZM39 45.659l1.583 2.415v8.558h-1.155v-7.11l.405-.645L39 47.542l-.832 1.335.404.645v7.117h-1.605v-7.942Zm-2.017 1.5V33.764q.787-.721 1.597-1.41v12.398Zm12.097 1.5v7.973h-1.612v-7.11l.404-.645-.832-1.335-.84 1.335.405.645v7.11h-1.147v-8.558l1.59-2.415Zm-1.59-3.9v-18.75a67 67 0 0 1 1.59-.9v21.975Zm-1.5 37.785v1.673a18 18 0 0 0-2.25-.233v-.037l2.693-4.103 2.632 4.103v1.192a13.3 13.3 0 0 0-2.25-.75v-1.845Zm-2.25-.18V70.829a1.3 1.3 0 0 1 1.02-.457 1.17 1.17 0 0 1 1.245 1.057v7.5Zm3.12-3.45v-7.5a1.065 1.065 0 0 1 1.072-1.058h.008a1.25 1.25 0 0 1 .825.323 1 1 0 0 1 .345.75v10.928Zm1.088-9.39a1.96 1.96 0 0 0-1.5.75 2.2 2.2 0 0 0-1.658-.75 2.25 2.25 0 0 0-1.02.247v-.517l2.61-7.215 2.685 7.658v.172a2.1 2.1 0 0 0-1.185-.36Zm-1.666-10.028-2.61 7.2v-9.202h5.386v9.69Zm.323-23.25L45 33.81l-1.575 2.408v-7.62q1.545-1.073 3.158-2.048ZM45 35.376l1.583 2.408v6.968l-1.155 1.755v-6h.75v-.878h-.75v-1.665h-.833v1.665h-.75v.863h.75v6l-1.148-1.748v-6.96Zm-.427 12.69v8.566h-1.126v-7.11l.405-.645-.832-1.335-.833 1.335.405.645v7.11h-1.155v-8.558l1.583-2.377Zm-1.988-11.85-1.583-2.407-1.582 2.408v-4.583q1.538-1.26 3.165-2.43Zm-1.582-.84 1.582 2.408v6.968l-1.148 1.747v-6h.833v-.87h-.832v-1.665h-.863v1.665h-.75v.863h.75v6l-1.147-1.756v-6.952Zm1.357 22.118v9.473l-2.692-7.44-2.7 7.5v-9.533Zm-2.692 4.575 2.692 7.432v.256a2.25 2.25 0 0 0-1.02-.248 2.2 2.2 0 0 0-1.673.75 2.07 2.07 0 0 0-1.59-.75 2 2 0 0 0-1.117.345v-.322Zm2.692 8.767v11.52l-2.25-3.45v-7.5a1.163 1.163 0 0 1 1.245-1.057 1.31 1.31 0 0 1 1.005.48Zm-4.275-.457a1.15 1.15 0 0 1 1.155 1.058v7.5l-2.25 3.45V71.362a1.12 1.12 0 0 1 1.095-.99Zm1.583 9.443 2.692 4.124a17 17 0 0 0-2.25.226v-1.688h-.877v1.86a13 13 0 0 0-2.25.75v-1.147Zm3.315 5.002c6 0 9.202 2.745 10.995 5.603a14.7 14.7 0 0 1 1.784 4.334 2.8 2.8 0 0 0-1.297-.374h-.113a2.83 2.83 0 0 0-1.732.674 12.35 12.35 0 0 0-2.88-5.917 9.5 9.5 0 0 0-6.233-3.54h-.495a5 5 0 0 0-.997.09 10.2 10.2 0 0 0-5.775 3.465 12.25 12.25 0 0 0-2.955 5.872 2.75 2.75 0 0 0-1.815-.63 2.8 2.8 0 0 0-1.23.263 14.7 14.7 0 0 1 1.777-4.222c1.793-2.873 5.003-5.61 10.965-5.625ZM54.9 103.102v-7.778a1.8 1.8 0 0 1 .675.345 1.26 1.26 0 0 1 .472.84v25.748l-1.14 2.062v-21.217Zm-2.25-17.618v1.958a12 12 0 0 0-2.152-1.606l2.58-3.99 3 4.5V92.7a15 15 0 0 0-1.366-2.752 13 13 0 0 0-1.207-1.643v-2.858Zm.848-4.537v-9.518a1.17 1.17 0 0 1 1.252-1.058 1.5 1.5 0 0 1 .938.33.96.96 0 0 1 .367.75v13.38ZM56.04 69.92a2.34 2.34 0 0 0-1.297-.39 2.2 2.2 0 0 0-1.666.75 2.03 2.03 0 0 0-1.567-.75 2.05 2.05 0 0 0-1.08.308l2.82-7.74Zm-2.43-9.277V22.889a69 69 0 0 1 2.438-1.012v45.51Zm-.862.24-2.37 6.563V24.441c.75-.405 1.575-.795 2.37-1.163Zm-1.238 9.488a1.117 1.117 0 0 1 1.133 1.057v9.518l-2.25 3.495V71.407a1.13 1.13 0 0 1 1.117-1.035m-5.64 59.865v.96l-.105.172v-4.372c.053-.75.09-1.65.128-2.52l.127.127.127.158a.75.75 0 0 1 .173.45 13 13 0 0 0-.428 2.527c-.052.735-.022 1.725-.022 2.498m-3-.3-.375-.105-.277-.083-.218-2.302 2.745.465a.7.7 0 0 1-.045.322v.15l-2.003-.352Zm-3.12-.908a27 27 0 0 1-2.91-.975 2.7 2.7 0 0 0-.975-.285 2 2 0 0 0-.09-.36c1.425.345 4.5 1.118 5.498 1.358l.06.705a48 48 0 0 1-1.583-.443m.435 1.02v3.48h-1.5v-3.907Zm-2.34-.712v4.185h-1.5v-4.748l.12.053a14 14 0 0 0 1.372.517Zm-3-4.5a3.3 3.3 0 0 0-.802-.21V96.622a1.2 1.2 0 0 1 .517-.938 2.2 2.2 0 0 1 .96-.397v29.85Zm.683 5.25v1.86l-.278-.833Zm-1.103 1.11.473 1.777a2.95 2.95 0 0 1-1.223-.75 2.16 2.16 0 0 1-.547-1.59v-.082a11.3 11.3 0 0 1 .292-1.868c.135-.622.27-1.117.27-1.117a.4.4 0 0 0 0-.263s-.067-.188-.135-.457a3.6 3.6 0 0 1-.135-.848.6.6 0 0 1 0-.247c.18-.27.188-.27.383-.285a2.1 2.1 0 0 1 .675.172l.487.195a3 3 0 0 0-.15.953 4.5 4.5 0 0 0 .248 1.387 1.3 1.3 0 0 0-.113.293c-.12.45-.562 2.542-.562 2.55a.4.4 0 0 0 .037.18m-1.605-3.75a16.7 16.7 0 0 0-.555 3.067v.105a3 3 0 0 0 .803 2.198 4 4 0 0 0 .877.675h-1.928v-38.25a1.34 1.34 0 0 1 1.14 1.305v28.215a1.4 1.4 0 0 0-.45.502 1.3 1.3 0 0 0-.157.69 5.3 5.3 0 0 0 .278 1.53Zm1.365-32.61a11.6 11.6 0 0 1 2.7-5.168 11.3 11.3 0 0 1 2.25-1.965 6.8 6.8 0 0 0-.682 1.62 21.8 21.8 0 0 0-.615 5.633 3.2 3.2 0 0 0-1.905-.623 3.26 3.26 0 0 0-1.74.54Zm19.358 9.082-.75.608-.788-.608Zm-.803-.862V96.62a1.25 1.25 0 0 1 .495-.944 1.9 1.9 0 0 1 .803-.383v7.808Zm-.345 1.747-1.35 1.043-1.327-1.02 1.147-.908h.383ZM50.4 121.177v-6.646a6 6 0 0 0 .818-.112 2.6 2.6 0 0 0 .667-.18v17.58a17 17 0 0 1-1.41-.322h-.067v-4.95a14 14 0 0 0 .802-3.143 3.32 3.32 0 0 0-.81-2.227m1.103-7.718a8 8 0 0 1-1.388.225l-.75.068-.48-1.245c0-.09.068-.308.428-.533a8.5 8.5 0 0 1 1.77-.75.8.8 0 0 1 .202 0 .5.5 0 0 1 .285.075l-.09.053a9 9 0 0 1-.817.345 1.6 1.6 0 0 0-.353.18.61.61 0 0 0-.285.502.6.6 0 0 0 0 .15.55.55 0 0 0 .27.338.65.65 0 0 0 .323.075 3.6 3.6 0 0 0 1.23-.398 8 8 0 0 1 1.724-.637v.045a.5.5 0 0 1-.172.3 8 8 0 0 1-1.005.66 7 7 0 0 1-.893.547Zm-4.8 14.31a6 6 0 0 1 .33-1.89l.75.188-.93 4.957h-.166v-.75c.046-.825.016-1.83.016-2.505m-6.953-21.698.345-.164c.135-.06.293-.128.443-.18a5 5 0 0 0 .285.54 2.4 2.4 0 0 0 1.44 1.192 4.3 4.3 0 0 0 .877.09 7 7 0 0 0 1.305-.142c.127.142.322.367.54.652a5.1 5.1 0 0 1 .697 2.723l-1.56.66-.06-.06c-.615-.615-1.305-1.5-2.775-3.3l-.667.547 1.207 1.5-2.64 1.943c-.12-.3-.21-.518-.247-.608a7 7 0 0 1-.308-.997 7.6 7.6 0 0 1-.247-1.733 1.95 1.95 0 0 1 .202-.99c.608-.892 1.05-1.477 1.163-1.672m-1.087 0v-1.792a2 2 0 0 0 .307.21 2.8 2.8 0 0 0 1.313.315h.09v.06a7 7 0 0 0-1.118.48.5.5 0 0 0-.135.113 5 5 0 0 1-.42.637Zm3.967-.48a5 5 0 0 0 1.17.113h.51l-.06.878h-.12a6 6 0 0 1-.945.09 3.4 3.4 0 0 1-.697-.068 1.6 1.6 0 0 1-.885-.802 4 4 0 0 1-.27-.525c0-.068-.053-.12-.06-.158v-.06a5.7 5.7 0 0 0 1.394.555Zm-.802-1.192a2.2 2.2 0 0 0 .562-.457l.188.51.097.262a5 5 0 0 1-.817-.285Zm7.68-1.327h-1.5v-6.45a1.2 1.2 0 0 1 .517-.938 2.2 2.2 0 0 1 .96-.397Zm.622.862-.795.63-.817-.63Zm-1.155.908-.952.75v-1.5Zm.36.277 1.32 1.013-1.342 1.064-1.253-.96v-.082Zm-.412 2.348-.9.69v-1.38Zm.36.277 1.35 1.043-1.44 1.102-1.163-.9v-.278Zm-.75 3.698a3 3 0 0 1-.203-.345l.855-.66.48.367a7 7 0 0 0-.84.42 2 2 0 0 0-.24.248Zm.952 3.187v5.55l-1.5-1.68v-3.277Zm-.667-4.5-.668.518a3 3 0 0 1-.142-.938v-.202Zm-.75 2.738-3.06 1.08.27-.795 2.64-.69Zm-1.298-8.67a1 1 0 0 1-.097-.278 2 2 0 0 1 0-.405 2 2 0 0 1 0-.322 1 1 0 0 1 0-.105 4 4 0 0 1 .36-.435l.09-.09v9.225l-.42.112-.113-.952v-.105a6 6 0 0 0-.84-3.285v-1.913h.068a2 2 0 0 0 .57-.067.8.8 0 0 0 .562-.585 1 1 0 0 0 0-.255 1.1 1.1 0 0 0-.12-.473Zm-.877 7.905-.833.217-.285-.285 1.02-.427Zm1.252-10.808-.15-.33a2 2 0 0 1-.097-.24v-.052a3.4 3.4 0 0 0 .135-.668.96.96 0 0 0-.188-.562 9 9 0 0 0-.45-.585 1.94 1.94 0 0 0 .315-1.065 1.55 1.55 0 0 0-.63-1.328 3 3 0 0 0-.397-.217V95.22a2.2 2.2 0 0 1 .96.398 1.2 1.2 0 0 1 .517.937Zm-1.02-1.357v.067s-.067.233-.127.563a.4.4 0 0 0 0 .075.82.82 0 0 0-.615.75 2.4 2.4 0 0 1 .802-.105l.278.607v.045l-.09.09-.053.06-.682.33a1.06 1.06 0 0 1 .12.466c0 .24-.09.51-.563.877l.525.683.143-.12a.4.4 0 0 0 .082.195.5.5 0 0 1 .045.12 1.2 1.2 0 0 1-.3 0h-.345c-.15 0-.322 0-1.275.075h-.262a3 3 0 0 1-.278-.225 9 9 0 0 1-.352-.908 4.7 4.7 0 0 0 1.08-.75 6.7 6.7 0 0 0 1.5-3.405c.194.27.33.435.42.57Zm-5.842 14.76a13.4 13.4 0 0 0 1.912 1.297h-1.44v-.067l-.502-1.23Zm-.653-1.883 2.79-2.062.375.442-2.415 2.378Zm2.107 1.883a10 10 0 0 1-.75-.518l2.385-2.34.128.128.247.247Zm2.625-1.875.143.135-.96 2.842-.908-.54-.165-.097Zm-5.662.202.42 1.103.795 2.07a3 3 0 0 1 0 .427 1.4 1.4 0 0 1-.09.57 8.8 8.8 0 0 0-.825 4.2 1.8 1.8 0 0 0 .443 1.343 1.1 1.1 0 0 0 .472.27 4 4 0 0 0 .105.592 17 17 0 0 0 .75 2.295 5 5 0 0 0-1.395-.427 4 4 0 0 0-.54 0H38.7Zm1.193 7.253c.645-.128 2.137-.42 3.06-.66a61 61 0 0 0 2.34-.69c0 .164.045.337.06.502-.6.18-1.905.57-2.685.75s-2.115.442-2.805.57c.007-.128.015-.285.03-.443Zm2.842-1.5c-.75.202-1.987.45-2.715.592a6 6 0 0 1 .585-1.762 1.8 1.8 0 0 0 .188-.75h2.872l.143.082.404.255a3 3 0 0 1 .81.75 1 1 0 0 1 .076.15 37 37 0 0 1-2.348.713Zm1.733-3 .247-.75 3.75-1.306.143.375Zm2.49-.083.247-.098v1.846a1.5 1.5 0 0 1-.247-.518Zm.6 3.555 1.852 2.1-.592.473-1.83-2.168Zm.585 3.113-.458.36-1.635-1.5a1 1 0 0 0 .075-.143 3.1 3.1 0 0 0 .113-.877h.052Zm-1.14.907-.645.51c-.135-.127-.285-.27-.465-.412v-1.095Zm1.657 3 .863.202c-.12.368-.248.75-.383 1.103-.48 1.373-.96 2.633-1.147 3.12l-.18.09Zm.885 2.73v2.13a2.5 2.5 0 0 0-.63-.442c.15-.413.375-.99.623-1.696Zm-2.422-3.975a1.6 1.6 0 0 0-.218-.57l3.053-2.422a2.6 2.6 0 0 1 .24.487l-2.61 2.025 2.362.6-.157.51Zm2.377-.892.833-.646a5.6 5.6 0 0 1-.165.818Zm3-12.75v-.046a.95.95 0 0 0-.225-.555l.473-.36.862.66a3.9 3.9 0 0 0-1.11.285Zm-.585-.87a1.5 1.5 0 0 0-.592-.128 1.6 1.6 0 0 0-.443.068c-.202.06-.435.134-.675.224l-.592-.457L51 109.086l1.35 1.035ZM51 108.539l-1.35-1.043 1.395-1.05 1.35 1.035Zm.863-5.438h-1.5V95.28a2.2 2.2 0 0 1 .96.405 1.2 1.2 0 0 1 .517.937Zm-1.906-8.722a3.16 3.16 0 0 0-1.912.622 22 22 0 0 0-.593-5.707 6.5 6.5 0 0 0-.69-1.635 11 11 0 0 1 2.325 2.047 11.7 11.7 0 0 1 2.625 5.175 3.23 3.23 0 0 0-1.732-.502Zm-2.782.607a3.17 3.17 0 0 0-1.897-.607 3.47 3.47 0 0 0-1.883.495V86.45c1.837.143 2.7 1.276 3.255 3.076a21.3 21.3 0 0 1 .548 5.46Zm-2.332.278v.84a3 3 0 0 0-.796.12 3.6 3.6 0 0 0-.6-.18 1.1 1.1 0 0 1 .405-.45 2.4 2.4 0 0 1 1.013-.323Zm-.998 1.807.15.068.157-.045a2.4 2.4 0 0 1 .698-.128 1.36 1.36 0 0 1 .795.285.6.6 0 0 1 .217.383 5.5 5.5 0 0 0-1.29-.128h-.39v.863h.353a4.3 4.3 0 0 1 1.117.12.93.93 0 0 1-.39.315l-.105.045a2.1 2.1 0 0 0-.577-.068h-.443v.863h.443a1.4 1.4 0 0 1 .285 0 5.4 5.4 0 0 1-1.17 2.647 2.52 2.52 0 0 1-1.358.75h-.39l-.135.255a1.3 1.3 0 0 1-.675.51 2.1 2.1 0 0 1 .285-1.012l-.75-.405a3 3 0 0 0-.39 1.418v.202a2.4 2.4 0 0 1-.33 0v-.247a2.7 2.7 0 0 1 .405-1.5l-.705-.496a3.4 3.4 0 0 0-.555 1.815 1.32 1.32 0 0 1-.262-.84 2 2 0 0 1 .457-1.282l.12-.128v-.307a4.37 4.37 0 0 1 .863-3 3.52 3.52 0 0 1 2.475-1.185 2.7 2.7 0 0 1 1.11.24Zm-5.16 2.326v-2.79a1.2 1.2 0 0 1 .517-.93 2.2 2.2 0 0 1 .96-.405v1.605a4.6 4.6 0 0 0-.517.465 4.04 4.04 0 0 0-.945 2.055Zm2.34-3v-1.125a2.4 2.4 0 0 1 .982.33 1.14 1.14 0 0 1 .383.397 4.2 4.2 0 0 0-1.35.375Zm1.5-1.5a3.47 3.47 0 0 0-1.883-.496 3.17 3.17 0 0 0-1.897.608 21 21 0 0 1 .577-5.385c.555-1.785 1.425-2.94 3.233-3.135Zm-4.68 15.75v14.85a6 6 0 0 1-.84.082 1.5 1.5 0 0 1-.518-.075l-.12-.045v-30.18a2.2 2.2 0 0 1 .96.397 1.2 1.2 0 0 1 .518.938v10.792a2.9 2.9 0 0 0-.27 1.313 8.5 8.5 0 0 0 .262 1.95Zm-2.047 15.517.397.143a2.4 2.4 0 0 0 .803.127c.63 0 1.2-.157 1.792-.157a3 3 0 0 1 .428 0 4.1 4.1 0 0 1 1.5.532 4 4 0 0 1 .427.278l.06.75c-1.275-.316-4.282-1.066-5.467-1.35a2 2 0 0 1 .06-.3Zm6.547.472-.435-.075a60 60 0 0 1-.435-1.14 15 15 0 0 1-.623-1.995l-.09-.502.69-.15Zm-.045-4.057.75-.18.218-.053.42 4.5-.398-.067Zm-1.26 7.688.383.104.224.083c.21.075.518.172.863.27v2.79h-1.5Zm3.495-1.028a3 3 0 0 1-.082.323.86.86 0 0 1-.376.48.7.7 0 0 1-.232 0h-.09l-.09-.976Zm-1.155 1.65a3.4 3.4 0 0 0 .465 0 1.22 1.22 0 0 0 .75-.195 2 2 0 0 0 .278-.24v3h-1.5Zm1.5-3.832-.315-.053-.45-4.905c.3-.09.585-.18.832-.262l.143-.053c0 .585 0 1.5-.068 2.43s-.112 2.063-.165 2.873Zm-.518-5.933c-1.5.495-3.997 1.013-4.132 1.035a.25.25 0 0 1-.172-.067.75.75 0 0 1-.166-.458 78 78 0 0 0 3-.615 51 51 0 0 0 2.505-.705 3 3 0 0 1-.044.398 4.7 4.7 0 0 1-1.013.442Zm.668-4.657 1.087-.443v.443Zm1.177.862a4 4 0 0 0 .555.923l.255.322-.81.578a4.6 4.6 0 0 0-.405-1.65 2 2 0 0 0-.127-.173Zm.248 14.505a2 2 0 0 0 .368 0 3.3 3.3 0 0 0 1.5-.412.5.5 0 0 0 .164-.038h.083a1.8 1.8 0 0 1 .39.293 3.3 3.3 0 0 0 1.268.562 30 30 0 0 0 3.547.675c-.045.143-.037.135-.12.18a2 2 0 0 1-.75.113 8 8 0 0 1-.922-.038 23 23 0 0 1-2.678-.225 1.4 1.4 0 0 0-.322 0 28 28 0 0 0-2.843.308c-.052 0-.127 0-.157-.3a.4.4 0 0 1 0-.06 2.5 2.5 0 0 1 .45-1.035Zm6.308.105v-18.18l.142-.09a7.4 7.4 0 0 0 1.162-.75v19.267c-.315-.06-.817-.127-1.327-.24Zm1.132-21.225-.788-.608.975-.75v.39a2.6 2.6 0 0 1-.21.99Zm-1.148-.885-1.35-1.035 1.38-1.065 1.305 1.005v.075Zm.39-2.378.945-.75v1.448Zm-.36-.277-1.35-1.043 1.35-1.042 1.298.997v.075Zm.36-2.355.938-.75v1.447ZM35.656 84.366l-2.25-3.442v-9.495a1.073 1.073 0 0 1 1.087-1.058h.008a1.25 1.25 0 0 1 .825.323 1 1 0 0 1 .345.75Zm0-16.95-2.37-6.555V37.446q1.155-1.237 2.37-2.415Zm0 2.43a2.15 2.15 0 0 0-1.14-.337 1.97 1.97 0 0 0-1.537.75 2.25 2.25 0 0 0-1.68-.75 2.5 2.5 0 0 0-1.283.36l2.828-7.815Zm-3.232-9.277-2.528 6.99V41.384q1.215-1.553 2.528-3Zm-2.146 10.14a1.58 1.58 0 0 1 .975-.338 1.185 1.185 0 0 1 1.276 1.058v9.517l-2.633 4.065V71.43a.95.95 0 0 1 .383-.72M33 81.839l2.595 3.952a12 12 0 0 0-2.167 1.598v-2.04h-.9v2.917a13 13 0 0 0-1.253 1.68 15.4 15.4 0 0 0-1.38 2.835v-6.21Zm-1.807 13.425v38.25h-1.298V96.539a1.28 1.28 0 0 1 1.268-1.268Zm24.232 38.625v-7.718l.983-1.785v10.388Zm23.25 22.245a76.35 76.35 0 0 1-49.342-18h3.322l2.4 2.062h15.608l2.25-2.017h3.48a62.9 62.9 0 0 0 44.572 0h3.458l2.197 2.017h15.39l2.415-2.017h3.593a76.34 76.34 0 0 1-49.365 17.962Zm31.523-110.475 1.552 2.415v8.557h-1.148v-7.11l.405-.645-.832-1.335-.832 1.335.404.638v7.117h-1.5V48.57Zm-1.958 1.373V25.139c.518.285 1.028.57 1.5.863v18.75Zm12.09 1.725v7.875h-1.65v-7.11l.405-.645-.832-1.336-.833 1.336.405.644v7.11h-1.147v-8.557l1.582-2.377Zm-1.65-4.005V32.309c.562.473 1.102.96 1.65 1.455v13.432Zm-1.5 37.762v1.688a17 17 0 0 0-2.295-.218v-.037l2.692-4.103 2.753 4.193v1.102a13.3 13.3 0 0 0-2.288-.75v-1.86Zm-2.295-.158V70.83a1.3 1.3 0 0 1 1.012-.458 1.163 1.163 0 0 1 1.245 1.05v7.5Zm3.127-3.442v-7.5a1.073 1.073 0 0 1 1.088-1.05 1.38 1.38 0 0 1 .87.33 1 1 0 0 1 .353.585v11.167Zm1.088-9.398a1.97 1.97 0 0 0-1.5.75 2.2 2.2 0 0 0-1.657-.75 2.25 2.25 0 0 0-1.013.248v-.173l2.707-7.5 2.73 7.553v.277a2.25 2.25 0 0 0-1.267-.412Zm-1.5-9.975-2.707 7.5v-9.547h5.437v9.6Zm.225-23.325-1.575-2.407-1.583 2.407v-7.02q1.62 1.163 3.165 2.423Zm-1.575-.84 1.582 2.408v6.967l-1.147 1.748v-6h.75v-.87h-.75v-1.665h-.863v1.657h-.75v.863h.75v6l-1.155-1.748v-6.952Zm-.428 12.698v8.557h-1.155v-7.11l.405-.645-.832-1.335-.832 1.335.404.645v7.11h-1.162v-8.557l1.583-2.378Zm-2.01-11.857-1.582-2.408-1.582 2.408V26.51q1.612.975 3.165 2.048Zm-1.582-.84 1.582 2.407v6.968l-1.155 1.754v-6h.825v-.877h-.825v-1.665h-.907v1.658H111v.862h.75v6l-1.147-1.748v-6.952Zm1.357 22.117v9.413l-2.64-7.298-2.692 7.447v-9.562Zm-2.64 4.643 2.64 7.297v.323a2.25 2.25 0 0 0-1.012-.248 2.2 2.2 0 0 0-1.658.75 1.97 1.97 0 0 0-1.5-.75 2 2 0 0 0-1.117.353v-.27Zm2.64 8.692v11.52l-2.25-3.443v-7.5a1.163 1.163 0 0 1 1.245-1.05 1.31 1.31 0 0 1 .99.473Zm-5.332.6a1.11 1.11 0 0 1 1.118-1.058 1.073 1.073 0 0 1 1.087 1.058v7.5l-2.205 3.367Zm2.64 8.385 2.693 4.103v.03a17 17 0 0 0-2.25.217V82.49h-.863v1.838a14 14 0 0 0-2.25.713v-1.246Zm3.413 5.003c5.947 0 9.15 2.76 10.95 5.64a14.8 14.8 0 0 1 1.754 4.162 2.9 2.9 0 0 0-1.2-.24 2.75 2.75 0 0 0-1.815.63 12.3 12.3 0 0 0-2.955-5.873 10.63 10.63 0 0 0-5.115-3.322 5.4 5.4 0 0 0-1.657-.232h-.495a9.54 9.54 0 0 0-6.24 3.54 12.4 12.4 0 0 0-2.872 5.887 2.66 2.66 0 0 0-1.74-.645 2.84 2.84 0 0 0-1.373.367 14.7 14.7 0 0 1 1.778-4.32c1.747-2.842 4.95-5.58 10.964-5.595Zm4.912 53.774v-.877h.855v-.863h.877v.863h.855v.878h-.855v.854h-.877v-.855Zm-17.97-2.43 1.5-1.312h24.6v1.313Zm13.762 2.43v-.877h.855v-.863h.878v.863h.855v.878h-.825v.854h-.878v-.855Zm-4.17 0v-.877h.908v-.863h.877v.863h.855v.878h-.855v.854h-.877v-.855Zm-4.162 0v-.877h.855v-.863h.878v.863h.854v.878h-.817v.854h-.877v-.855Zm2.467-39.75v5.813a2.53 2.53 0 0 1-1.222 2.34l-.082-.06a12.3 12.3 0 0 0-1.973-.84 1.6 1.6 0 0 0-.54-.105 1.013 1.013 0 0 0-1.057.923h-.046l-.202-.098a2.6 2.6 0 0 1-.885-2.137v-5.813Zm-6-.862v-2.707a1.5 1.5 0 0 1 1.328 1.35v1.357Zm21.75 29.738a.94.94 0 0 0-.48-.33l-.337-.128V96.62a1.365 1.365 0 0 1 1.275-1.335v38.25h-1.275v-2.445l.623-1.185a3.3 3.3 0 0 0 .412-1.44 1.24 1.24 0 0 0-.21-.75Zm-.69.517a.46.46 0 0 1 .053.24 2.5 2.5 0 0 1-.308 1.035l-1.905 3.6h-3.435a.4.4 0 0 1 .075-.158 2.25 2.25 0 0 1 .855-.48c.398-.15.75-.24.75-.247l.188-.052 1.327-2.648c.135-.112.48-.39.878-.667a3.55 3.55 0 0 1 1.365-.675c.15.014.142.014.165.014Zm-.99 4.5v.818h-.427Zm-5.392.818h-.75v-4.98l1.5.375v3a1.8 1.8 0 0 0-.57.487 1.2 1.2 0 0 0-.225.683 1 1 0 0 0 .053.412Zm-1.867-6.128.292-.802 5.408 1.95-.286.225Zm-3.398-2.227a2 2 0 0 1 0-.226v-.247l3.285.33-.75 2.123-.54-.136h-.143l.518-1.552Zm.233 7.32v-.27a6 6 0 0 0-.128-1.208 5.4 5.4 0 0 1-.165-1.342v-.886a11 11 0 0 0-.067-1.575l.194.128a5 5 0 0 0 1.178.435v5.745H112.5a1.67 1.67 0 0 0 .27-.953Zm-8.416.997h-1.2v-24.818c.225.158.488.323.75.488l.57.345v22.418a.43.43 0 0 0-.487.33 1 1 0 0 0 0 .247 1.5 1.5 0 0 0 .367 1.005Zm0-25.095a8 8 0 0 1-1.02-.697.4.4 0 0 1-.15-.263.2.2 0 0 1 0-.082 4 4 0 0 1 .653.262c.36.173.75.383 1.035.518a3.3 3.3 0 0 0 1.148.36.7.7 0 0 0 .33-.083.57.57 0 0 0 .27-.352 1 1 0 0 0 0-.113.6.6 0 0 0-.3-.51c-.346-.202-.75-.263-1.178-.488h-.045s0-.075.195-.082a.8.8 0 0 1 .247.052 12.4 12.4 0 0 1 1.815.75.79.79 0 0 1 .42.54l-.405.915-.892-.075-.87-.06h-.33c-.165-.12-.525-.315-.915-.577Zm8.063.9-.195.54-3.637-1.26.104-.24Zm-3.69-1.822a3.6 3.6 0 0 0 .443-.42v.532Zm.443-9.518h-1.5v-2.7a2.2 2.2 0 0 1 .96.405 1.2 1.2 0 0 1 .517.938Zm2.332 4.665v5.565l-1.5-.382V96.622a1.2 1.2 0 0 1 .517-.938 2.14 2.14 0 0 1 .953-.397V99.5a1.9 1.9 0 0 0-.435.338 1.7 1.7 0 0 0-.413 1.155 2.3 2.3 0 0 0 .87 1.65Zm1.455-3.645v.105h-.045a2 2 0 0 0-.42.045h-.105v-.502a6 6 0 0 0 .562.352Zm-.593-1.215v-2.513a2.3 2.3 0 0 1 1.343.616l-.135.104a1.6 1.6 0 0 0-.443.428c-.337.495-.502.982-.772 1.365Zm.27 2.205a1.4 1.4 0 0 1 .255 0 .97.97 0 0 1 .653.278 2 2 0 0 0 1.072.525h.165a1.88 1.88 0 0 0 1.305-.623 1.54 1.54 0 0 0 .623.36c-.922 1.71-1.905 1.928-2.805 1.95h-.232a4 4 0 0 1 .344-.405l-.622-.592a5.2 5.2 0 0 0-.683.885 1.6 1.6 0 0 1-.435-.18l.105-.143a8 8 0 0 1 .668-.802l-.607-.608a9 9 0 0 0-.75.923 1.1 1.1 0 0 1-.158-.51.83.83 0 0 1 .195-.585 1.6 1.6 0 0 1 .9-.473Zm6.668-3.082a1.64 1.64 0 0 1 .57.75 3.2 3.2 0 0 1 .33 1.32 2 2 0 0 1-.038.375 3.6 3.6 0 0 1-.405-.863l-.825.248a4.8 4.8 0 0 0 .705 1.372 2 2 0 0 1-.255.128 4.3 4.3 0 0 1-.75-1.35l-.832.232a4.5 4.5 0 0 0 .54 1.178 1.8 1.8 0 0 1-.412-.188 2 2 0 0 1-.248-.18l-.075-.067-.157-.165h-.346c-.322 0-.592-.188-.75-.66a.5.5 0 0 1 0-.135 4.8 4.8 0 0 1 .57-1.245l.15-.368-.344-.18a10 10 0 0 1-1.2-.592 1.19 1.19 0 0 1-.638-1.013.2.2 0 0 1 0-.075.9.9 0 0 1 .292-.367 2.25 2.25 0 0 1 .878-.413 5 5 0 0 1 1.133-.135 2.2 2.2 0 0 1 1.604.548.96.96 0 0 1 .338.705 3.7 3.7 0 0 1-.127.675l-.053.322Zm.75-1.328a2.1 2.1 0 0 1 .832-.307v2.557a4 4 0 0 0-.232-.585 2.9 2.9 0 0 0-.675-.915 2.5 2.5 0 0 0 .075-.562 1 1 0 0 0-.03-.188Zm-8.4 33.218v.885a6.2 6.2 0 0 0 .157 1.545v.195l-.285-.173-2.13-8.302.833-.323.66 1.763a11.2 11.2 0 0 1 .765 4.41m-.615-6.51.465-.195v1.41Zm-3.42 1.32.967-.375 1.92 7.417-.39-.225Zm1.635 6.967a10 10 0 0 1-1.575.983v-5.25Zm-2.55-6.96.12.323v7.957a5.3 5.3 0 0 1-1.26.15h-.21v-22.185c.315 0 .75.06 1.193.083h.284v9.442a3.14 3.14 0 0 0-1.065 2.25 2.61 2.61 0 0 0 .938 1.98m-.105-1.867v-.068a1.8 1.8 0 0 1 .292-.997l.75.615Zm2.745-.218-1.92-1.5q.194-.204.443-.42c.382.323 1.214 1.035 1.62 1.44a2.9 2.9 0 0 1 .517.713h-.075l-2.775 1.08a2 2 0 0 1-.255-.308Zm.75-3.825a14.5 14.5 0 0 1 2.37-1.582l.443-.233-.083.653-3.96 2.79-.367-.315Zm-.097-1.02v-5.317l1.5.607v3.75a16 16 0 0 0-1.47.96Zm8.362-14.737.293.517.052.045-3.3 1.05a1 1 0 0 0-.113-.307Zm-1.267-.39a6 6 0 0 0 .42-.713 3 3 0 0 0 .3.158l.112.195Zm.262 8.865.878-.623.172.143.27-.255s.195-.188.465-.48c-.143.405-.263.75-.36 1.05Zm1.125.75c-.09.277-.143.465-.173.57l-3.134.292.052-.09.667-.465Zm-3.495-.12-.465-.638 2.13-1.867.885.705Zm3.607 1.5c.075.12.165.262.255.42s.173.3.248.465l-5.04.472.12-.937Zm.795 1.717v.075a1.2 1.2 0 0 0 .038.36l-5.55.555.06-.487Zm.15 1.298.053.457-.63.06-5.25.495.052-.435Zm-.142 3.27c.285-.915.442-1.568.525-1.943h.653l-.06-.465s-.15-1.177-.256-2.145a6.15 6.15 0 0 0-1.087-2.392 2.3 2.3 0 0 1 .143-.465c.15-.48.412-1.245.817-2.393a13.5 13.5 0 0 0 .607-2.392c.068-.443.113-.848.135-1.2v20.452a25 25 0 0 0-.832-.457l-.645-.323Zm1.155-15.57a10 10 0 0 0-1.208-1.35l-.412-.75a2.47 2.47 0 0 0 1.207-.405 1.9 1.9 0 0 0 .75-.87v4.057a1.7 1.7 0 0 0-.345-.697Zm-1.155-.068a6 6 0 0 1 .442.555 1.1 1.1 0 0 1 .173.33v.57a12 12 0 0 1-.143 1.77 5.3 5.3 0 0 1-1.005 1.763c-.195.247-.39.457-.532.607l-2.895-2.347 1.177-2.385Zm-3.915 1.238-1.118 2.25.188.15-.262.262a16 16 0 0 1-.143-.585 2.4 2.4 0 0 1-.045-.45 1 1 0 0 1 .225-.667c.157-.21.435-.473.75-.855Zm-.255 2.947.75.593-1.995 1.71-.45-.615Zm-1.395-2.722-.195.232a1.88 1.88 0 0 0-.397 1.185 3.3 3.3 0 0 0 .067.615c.068.368.203.848.285 1.133l-.75.75-.495-.128v-5.31a2.5 2.5 0 0 0 .442.105 9 9 0 0 0 1.013.09Zm-.698 5.25 1.253 1.702a1.15 1.15 0 0 1-.63.48h-.188a1.3 1.3 0 0 1-.87-.33 1.4 1.4 0 0 1-.18-.18Zm.173 3.045-.233 1.897c-.165.068-.405.188-.697.338v-2.565a2.14 2.14 0 0 0 .915.36Zm-3.338 7.297-.39-.36 3.443-2.422h.082l-.165.93Zm3.053 2.25.405-1.995.555-3.15 1.02-.097-1.613 6.645-.637-.06Zm2.895-5.332 1.185-.113-2.25 6.983-.548-.053Zm2.115-.195.997-.098a1.6 1.6 0 0 1-.082.323c-.15.592-.405 1.5-.81 2.647a33 33 0 0 1-1.328 3.165c-.247.518-.457.93-.585 1.178l-.547-.053Zm.51 4.267v3.42a6.5 6.5 0 0 0-1.208-.322h-.187c.307-.645.87-1.77 1.38-3.053Zm-1.793 3.953.435.067a8.4 8.4 0 0 1 2.445.915c.75.405 1.38.803 1.725.96s.923.375 1.5.608l-.382.232-6-2.152Zm-4.815-14.483-.165.458-3.645-1.5.113-.263Zm-2.775.33v6.368c-.562.465-1.05.862-1.5 1.23v-8.228Zm-3.607 21.885a5.25 5.25 0 0 0 2.25-.45 10.7 10.7 0 0 0 1.995-1.215l2.1 1.23v.045a.85.85 0 0 1-.128.473 11 11 0 0 0-1.177-.09h-.502c-1.44.104-2.01.375-2.933.375h-.232c-1.193-.046-1.636-.12-1.875-.383a.7.7 0 0 1-.09-.105 1.3 1.3 0 0 0 .6.098Zm6.3-12a7 7 0 0 1-.99.488h-.052a4 4 0 0 0-.293-.503l2.19-1.372-.135.75a2.5 2.5 0 0 1-.705.652Zm.802 5.153 1.103.12-.195.6a3.3 3.3 0 0 1-.51-.218.86.86 0 0 1-.39-.487Zm3.51 2.25v5.175h-1.5v-5.55Zm4.658 1.177-.953 1.905a2 2 0 0 0-.495.158v-2.4Zm2.37-2.617c-.585-.226-1.207-.473-1.5-.585v-31.05a2.2 2.2 0 0 1 .96.397 1.2 1.2 0 0 1 .517.938Zm-1.905-32.535a3.25 3.25 0 0 0-1.575.382 2.3 2.3 0 0 0-.255-.3l-.082-.075a17.2 17.2 0 0 0-.75-5.888 5 5 0 0 0-.248-.562 11.4 11.4 0 0 1 1.958 1.762 11.55 11.55 0 0 1 2.7 5.168 3.26 3.26 0 0 0-1.733-.465Zm-2.79-.518a3.8 3.8 0 0 0-1.275-.21 6 6 0 0 0-1.32.158 3 3 0 0 0-1.215.577v-7.92a6 6 0 0 1 .705.105l.172.045a3.37 3.37 0 0 1 2.25 2.198 15.1 15.1 0 0 1 .668 5.07Zm-3.428 3.39a6 6 0 0 0 .878.458 2.4 2.4 0 0 0-.435 1.207 1.4 1.4 0 0 0 .045.353v.104c-.173.233-.533.555-.833.533h.008a1.23 1.23 0 0 1-.638-.345 3 3 0 0 0-.3-.21 4 4 0 0 1 .083-.547.435.435 0 0 0-.233-.435l-.45-.226c.233-.36.375-.69.54-.975v.69a.88.88 0 0 0 .533.18 1.34 1.34 0 0 0 .577-.082.95.95 0 0 0-.255-.383 2.05 2.05 0 0 0-.81-.405c.045-.075.09-.172.135-.24a.8.8 0 0 1 .24-.225 3 3 0 0 0 .248-.202 2.4 2.4 0 0 0 .682.772Zm-3.142-2.872a3.2 3.2 0 0 0-1.89.607 21.3 21.3 0 0 1 .562-5.46c.548-1.792 1.41-2.917 3.225-3.067v8.445a3.65 3.65 0 0 0-1.882-.503Zm-2.175-5.093a22 22 0 0 0-.592 5.715 3.17 3.17 0 0 0-1.906-.622 3.2 3.2 0 0 0-1.74.494 11.66 11.66 0 0 1 2.618-5.174 11 11 0 0 1 2.318-2.048 6.6 6.6 0 0 0-.683 1.658Zm-3.9 6.398a2.2 2.2 0 0 1 .96-.398v2.7h-1.5v-1.343a1.2 1.2 0 0 1 .555-.944Zm20.34 37.852v-38.25a1.43 1.43 0 0 1 .75.345 1.2 1.2 0 0 1 .345.668v37.237Zm-.247-43.5a13.4 13.4 0 0 0-1.23-1.68v-3h-.863v2.077a12 12 0 0 0-2.19-1.642l2.595-3.953 3.075 4.695v6.323a15.7 15.7 0 0 0-1.35-2.828Zm-1.246-9.068V71.43a1.185 1.185 0 0 1 1.275-1.05 1.6 1.6 0 0 1 .983.338.95.95 0 0 1 .383.682v13.575Zm2.588-11.032a2.5 2.5 0 0 0-1.312-.382 2.25 2.25 0 0 0-1.688.75 1.96 1.96 0 0 0-1.5-.75 2.05 2.05 0 0 0-1.102.322l2.797-7.785Zm-2.362-9.082v-22.41q1.252 1.41 2.415 2.902v26.175Zm-.863-.158-2.43 6.712V34.994q1.245 1.2 2.43 2.475Zm-1.305 9.75a1.073 1.073 0 0 1 1.088 1.05v9.472l-2.205 3.36V71.331a1.125 1.125 0 0 1 1.11-.96ZM104.61 71.48a1.073 1.073 0 0 1 1.087-1.057 1.37 1.37 0 0 1 .87.33.98.98 0 0 1 .375.75v13.102l-2.317-3.6V71.43Zm2.325-3.922-2.43-6.75v-37.5q1.23.57 2.43 1.192Zm-.067 2.355a2.25 2.25 0 0 0-1.17-.353 1.95 1.95 0 0 0-1.5.75 2.2 2.2 0 0 0-1.658-.75 2.36 2.36 0 0 0-1.252.36l2.812-7.777Zm-3.225-9.12-2.438 6.75V21.862a57 57 0 0 1 2.438 1.012Zm-2.078 9.967a1.5 1.5 0 0 1 .938-.33 1.17 1.17 0 0 1 1.245 1.05v9.465l-2.55 3.885V71.4a.96.96 0 0 1 .36-.698Zm2.61 11.138 2.573 3.99a12 12 0 0 0-2.115 1.582v-2.025h-.863v2.835a12.6 12.6 0 0 0-1.222 1.658 15.3 15.3 0 0 0-1.358 2.805v-6.39Zm-3 14.775a1.25 1.25 0 0 1 .48-.953 1.8 1.8 0 0 1 .638-.337v28.95l-1.118-2.033zm.653 29.55v7.725l-.983.877v-10.44Zm31.02 7.5a78 78 0 0 1-3.54 3.322V116.49a62.75 62.75 0 0 0 0-73.995V39.62l-.998-1.65-.967 1.65v.308a63 63 0 0 0-5.708-6.135v-1.44l-1.312-1.822v2.07a63 63 0 0 0-12.09-8.438v-1.095l-1.313-1.92v2.325a63 63 0 0 0-5.73-2.55v-2.977l-.975-1.665-.99 1.665v2.25a62.5 62.5 0 0 0-8.767-2.34v-10.5l-.668-.84-.652.84v10.275a63 63 0 0 0-2.025-.308V3.254a76.673 76.673 0 0 1 45.75 130.425Zm-.098-60.083v-.75h-.862v.75h-.75v.863h.75v1.65l-2.58 3.945V65.264l5.954 8.512v6.21l-2.512-3.825v-1.65h.75v-.862Zm-.427 3.428 2.94 4.5v2.092a2.36 2.36 0 0 0-1.298-.397 2.13 2.13 0 0 0-1.643.75 2.17 2.17 0 0 0-1.665-.75 2.44 2.44 0 0 0-1.342.405v-1.973Zm2.107 15.322a2.1 2.1 0 0 0-1.185-1.882h2.01v3.75h-1.987a2.1 2.1 0 0 0 1.177-1.86Zm-2.092 1.658a1.658 1.658 0 1 1 1.65-1.665v.007a1.66 1.66 0 0 1-1.635 1.665Zm.412-4.853v-4.012a1.14 1.14 0 0 1 1.208-1.05 1.46 1.46 0 0 1 .93.337.96.96 0 0 1 .367.66v4.065Zm-3.067-4.732a1.5 1.5 0 0 1 .967-.338 1.163 1.163 0 0 1 1.238 1.058v4.012h-2.58v-4.072a.95.95 0 0 1 .397-.66Zm1.74 6.045a2.093 2.093 0 0 0 0 3.75h-2.093v-3.75Zm5.152 5.077v-33.48l-.667-1.057-.645 1.057v10.17l-5.955-8.512V43.97a61.89 61.89 0 0 1 0 71.033V95.586Zm-3.397-14.64-.833-1.335-.84 1.335.833 1.335Zm-27.6-66.607.802.36.353-.75.75.352.36-.802-.75-.353.352-.75-.802-.45-.353.75-.75-.352-.36.802.75.353Zm-.158 2.25-.802-.36-.353.75-.75-.353-.36.803.75.352-.352.75.802.36.353-.75.75.353.36-.803-.75-.352Zm32.52 21.48h.053V36.68l-1.335-.187h-.038v.547l-4.38 3.405-.217-.082-.105-1.163 3.93-3c.322-.247.495-.082.495-.082l.052-.045V34.49l-1.41-.172h-.052a1.25 1.25 0 0 1 .187.712l-4.057 3.113a.44.44 0 0 1-.428.075l-.052.045.24 1.965a22 22 0 0 1 2.677.967l3.938-3a.47.47 0 0 1 .51-.127Zm-22.2-15.833-.75-.487-.48.75-.712-.473-.488.75.713.48-.48.713.75.487.48-.712.712.48.488-.75-.713-.473ZM87.75 48.75l.833 1.335.832-1.335-.833-1.335Zm25.77-29.25v-.068l-1.395-1.5 2.828-1.08-.143-.3-.435.195a11 11 0 0 1-1.125-1.8 20 20 0 0 1-3.24-.51l-.975 1.89a.49.49 0 0 1-.48.233v.052l1.5 1.755-3.682 1.455.172.218.705-.255a10.8 10.8 0 0 1 1.5 1.74 18 18 0 0 1 3.308.307l1.094-2.115a.44.44 0 0 1 .376-.217Zm-3.27 1.807h-.255a15 15 0 0 0-1.59-1.905l2.438-.975.577.63Zm.96-3.36-.585-.75 1.058-2.04h.15a15.5 15.5 0 0 0 1.357 2.04Zm19.425 11.573.053-.052-.375-1.755-1.395-.09-.248-1.5a7 7 0 0 1-1.455 0l-.038.045c.218.21.413.607.338.682l-3.63 3.788a.46.46 0 0 1-.465.142l-.037.045.172 1.38h1.343l-.09-.54 3.607-3.75.623.053.187.81-3.472 3.615c-.286.3-.48.157-.48.157l-.053.052.27 1.56 1.425-.037.045-.045a1.26 1.26 0 0 1-.292-.675l3.54-3.69a.44.44 0 0 1 .427-.202Zm2.415 3.33a.44.44 0 0 1 .412-.112l.053-.046-.075-1.59a5.6 5.6 0 0 1-1.44-.105l-.045.038s.495.518.195.803l-3.75 3.352c-.307.278-.495.128-.495.128l-.052.052.15 1.575 1.425.06h.045a1.2 1.2 0 0 1-.24-.697Zm-10.965-3.922s3.045-3.886 3.24-4.126a.47.47 0 0 1 .442-.187v-.045l-.307-1.35-1.335.15v.037l.142.526-3.217 4.102h-.637l-.263-.75 3.09-3.945c.255-.322.465-.21.465-.21l.038-.052-.42-1.5-1.41.18v.052a1.2 1.2 0 0 1 .352.645l-3.157 4.02a.43.43 0 0 1-.39.18l-.053.052.555 1.71 1.403-.044.39 1.455a7.3 7.3 0 0 1 1.447-.143v-.052c-.21-.248-.45-.623-.382-.705Zm-57.48 124.155 1.5-1.14v-.563a14 14 0 0 0-1.725.795 3.6 3.6 0 0 0 .225.908m71.505-122.76h-1.86s-.27.345-.36.435a14 14 0 0 0 1.852.404 3.7 3.7 0 0 0 .368-.84m-62.063-18.15-.832-1.335-.84 1.335.832 1.335Zm-2.655 11.775-.832-1.335-.81 1.335.832 1.335ZM25.305 93.509v-.69h.69v-.862h-.69v-.69h-.862v.69h-.69v.862h.69v.69Zm56.753-69.562-.833-1.335-.832 1.335.832 1.335ZM79.5 9.764l-.832-1.335-.833 1.335.833 1.335ZM24.067 80.947l.833 1.334.84-1.335-.833-1.334Zm60.75-68.708L84 10.889l-.832 1.335.832 1.335Zm-56.084 18.99.044.045 1.77-.45.488 2.933A6.2 6.2 0 0 1 33 33.172a11.6 11.6 0 0 1 .87-2.475l-1.62-1.755a.44.44 0 0 1-.112-.42l-.045-.075-1.5.48-.368-2.355a7 7 0 0 1-2.025.255 12.6 12.6 0 0 1-1.012 2.37l1.44 1.56a.46.46 0 0 1 .105.472m2.654-1.282 1.718 1.867-.052.195a10 10 0 0 0-1.913.458l-.39-2.303Zm-3.292-1.943a11.3 11.3 0 0 0 2.033-.195l.254 1.868-.75.135-1.56-1.688Zm7.823-4.215a4.34 4.34 0 0 0-.353 2.198 3.53 3.53 0 0 1 1.98 0v-2.25a4.2 4.2 0 0 1 .57-2.123l.397-.607a3.9 3.9 0 0 1 1.808.067v-1.665a2.77 2.77 0 0 1 .457-1.822h.473c1.5 0 2.55-.053 3.278-.63a6 6 0 0 0-.525 2.34v2.084l-.105.12a2.48 2.48 0 0 1-1.44.585H40.5a5.5 5.5 0 0 1 0 1.816 4 4 0 0 0 1.695-.27 3.86 3.86 0 0 0-.3 1.815 4.2 4.2 0 0 1 2.04 0v-2.16a3.75 3.75 0 0 1 .263-1.673 4.1 4.1 0 0 1 1.575 0V18c0-.668-.143-2.498.375-3.285l.637-.968-.232-.157-.188.285-.615.967-.09.128a3.14 3.14 0 0 1-2.4.795h-1.312c-.646 0-1.02-.3-1.02-.518h-.368v2.033c-.105.075-.292.225-.517.413a2.55 2.55 0 0 1-1.448.592h-1.59a4.9 4.9 0 0 1 0 1.71 3.7 3.7 0 0 0 1.433-.18 3.2 3.2 0 0 0-.15 1.013l-.435.66a2.8 2.8 0 0 1-1.666.817h-2.25a5.5 5.5 0 0 1 0 1.808 5 5 0 0 0 1.98-.308Zm15.93-7.222a3.75 3.75 0 0 0-.383 1.905 4.2 4.2 0 0 1 2.04 0v-2.108a3.95 3.95 0 0 1 .247-1.642l.75-1.148a4.35 4.35 0 0 0 1.98-.412 3.35 3.35 0 0 0-.382 1.8 3.9 3.9 0 0 1 1.867 0v-1.95a2.95 2.95 0 0 1 .27-1.59l1.088-1.643h2.138l-1.103 1.297a3.25 3.25 0 0 0-.75 2.415 4.05 4.05 0 0 1 1.958 0v-2.025a3.5 3.5 0 0 1 .262-1.627 3.53 3.53 0 0 1 2.595 1.5l.24-.142-1.11-1.8a3.84 3.84 0 0 0-3.255-1.5h-5.497a1.86 1.86 0 0 1 .187 1.62 2.67 2.67 0 0 1-1.59.75h-2.25a5.5 5.5 0 0 1 0 1.815 3.63 3.63 0 0 0 3.315-1.396l.75-.99h3.787l-.75 1.163a2.82 2.82 0 0 1-1.672.818h-2.25a5.3 5.3 0 0 1 0 1.575l-.63.945a2.7 2.7 0 0 1-1.628.75h-1.927a5.5 5.5 0 0 1 0 1.807 4 4 0 0 0 1.702-.172Zm8.294 66.502h.863v-.69h.69v-.862h-.69v-.69h-.863v.69h-.69v.862h.69Zm1.23-29.497-.832-1.336-.833 1.336.833 1.334Zm5.295 34.695h.833v-.69h.75v-.863h-.75v-.69h-.825v.69H66v.863h.69Zm1.98-40.868-.832 1.335.833 1.335.832-1.335ZM89.7 88.274h.863v-.69h.69v-.862h-.69v-.69H89.7v.69h-.69v.862h.69Zm-66-57.832a14 14 0 0 0 .218-1.883 3.5 3.5 0 0 0-.893-.285l.225 1.867a5 5 0 0 1 .48.323Zm65.94 7.574h.863v-.84h.862v-.862h-.862v-.87h-.863v.863h-.87v.862h.87Zm-2.122-14.07-.833-1.335-.832 1.335.832 1.335Zm-1.14 14.1h.862v-.87h.87v-.862h-.87v-.87h-.862v.87H85.5v.863h.87ZM60.555 84.075a2.093 2.093 0 1 0-2.1-2.1 2.093 2.093 0 0 0 2.1 2.1m0-3.75a1.658 1.658 0 1 1-1.657 1.658 1.66 1.66 0 0 1 1.657-1.658m-35.25-45.3-.052-.045-1.425.69-.713-2.25a7 7 0 0 1-1.965.555 12.6 12.6 0 0 1-.66 2.468l1.65 1.334a.47.47 0 0 1 .18.45l.045.038 1.688-.705.907 2.828a6.4 6.4 0 0 1 1.883-.863 12 12 0 0 1 .48-2.58l-1.853-1.5a.44.44 0 0 1-.142-.427Zm-2.28 1.673-1.792-1.448v-.112a11.3 11.3 0 0 0 2.017-.51l.525 1.815Zm3.75 1.68a10.3 10.3 0 0 0-1.822.75l-.75-2.25.607-.286 1.973 1.59Zm36.293 109.32h-2.19a1 1 0 0 1-.668-.27 2.3 2.3 0 0 0 0-.436 2.4 2.4 0 0 0-.33-1.125 3.2 3.2 0 0 0 .983.15h.84a1.9 1.9 0 0 1-.225-.975 4.6 4.6 0 0 1 .12-.975h-2.753a1.67 1.67 0 0 1-1.26-.75l-.075-.104a14 14 0 0 1-.75-1.178h-3a2.73 2.73 0 0 0 1.23-1.005c.24-.337.517-.75.517-.75l-1.387-.75s-.803 1.253-1.073 1.62a2 2 0 0 1-1.65.93h-.27a3.45 3.45 0 0 1-3-1.425l-.255.15 1.17 1.785 1.388 2.108a5.15 5.15 0 0 1 .495 2.46v1.807a7.4 7.4 0 0 1 1.905 0v-1.012a2.84 2.84 0 0 0-.45-1.35 2.8 2.8 0 0 0 1.132.232h.96a3.7 3.7 0 0 1-.097-.908 3.8 3.8 0 0 1 .097-.832h-2.46a2.25 2.25 0 0 1-1.5-.825l-.63-.953a5.5 5.5 0 0 0 2.76.495h4.883a6.05 6.05 0 0 1 .51 2.67v1.103a6.2 6.2 0 0 1 1.988 0v.037a2.7 2.7 0 0 1 .194 1.238v1.875a3.35 3.35 0 0 1 1.628 0 2.93 2.93 0 0 0-.338-1.748 2.3 2.3 0 0 0 .75.128h.84a1.4 1.4 0 0 1-.187-.75 2.2 2.2 0 0 1 .157-.668ZM15.854 56.443c.323.54.075.705-.57 1.23l-4.627-1.612-.158-.285a8.7 8.7 0 0 1 1.725-.443v-.067a5.1 5.1 0 0 1-.75-1.216h-.067l-1.74.57.57 1.26-1.238.69a7 7 0 0 1 .6 1.32h.06c.098-.292.375-.63.48-.584l4.755 1.657a.46.46 0 0 1 .323.368h.06a11.3 11.3 0 0 1 1.642-1.41l-.825-1.643Zm14.513-22.2-.045-.037a1.2 1.2 0 0 1-.668.307l-3.75-3.428a.44.44 0 0 1-.15-.405l-.052-.052-1.568.24a5.6 5.6 0 0 1 .045 1.447l.045.038s.473-.548.75-.27l3.713 3.36c.3.277.172.48.172.48l.053.045 1.552-.308ZM18.825 50.639a1.24 1.24 0 0 1-.532.51l-5.078-2.25a.44.44 0 0 1-.27-.337h-.067L11.1 49.784a8.9 8.9 0 0 1 .428 2.663l4.387 1.934a.47.47 0 0 1 .293.39h.052L18 53.685l.675 1.395 1.418-1.132-1.215-3.308ZM16.5 53.121l-4.912-2.137v-.067l1.162-.72 4.583 2.017.18.383Zm1.74.593-.622-1.357 1.68.75Zm2.385-7.267c.225.592-.27.81-1.2 1.387l-1.5-.862a17.4 17.4 0 0 1-.615-2.963h-2.64a13 13 0 0 1-.195 2.588l4.388 2.475a.45.45 0 0 1 .247.412h.053a14 14 0 0 1 2.25-1.372l-.533-1.778Zm-5.7-1.156 2.25-.06s.21.885.39 1.5Zm8.378-2.077 1.5-.57-.345-1.447h-.053a1.24 1.24 0 0 1-.607.42L19.5 38.872a.44.44 0 0 1-.217-.376l-.06-.037-1.65.75.187 1.387-1.402.54a7.3 7.3 0 0 1 .285 1.425h.052c.165-.255.51-.525.6-.465l4.455 2.805a.47.47 0 0 1 .233.428h.052l1.275-.383-.277-1.312h-.045l-.51.195-4.403-2.85-.075-.623.75-.345 4.245 2.685c.345.218.255.443.255.443Zm22.155 24 .832 1.335.833-1.335-.833-1.335Zm7.792 1.335.833-1.335-.833-1.335-.832 1.335Zm-20.385 0 .832-1.335-.847-1.373-.833 1.336Zm-21-6a17.5 17.5 0 0 1-1.365-2.737h-.067l-2.49.682a12.6 12.6 0 0 1 .472 2.55l4.868 1.275a.47.47 0 0 1 .344.338h.06a14 14 0 0 1 1.86-1.913l-.997-1.583-.232.158c.367.518-.068.878-.818 1.628Zm-3.308-.87 2.13-.622s.428.802.75 1.38ZM40.5 67.177l-.832-1.336-.818 1.336.832 1.334Zm-30.75 9.75a17.3 17.3 0 0 1-1.995-2.25h-.067l-2.25 1.29a12.7 12.7 0 0 1 1.102 2.347h5.033a.47.47 0 0 1 .427.24h.06a14 14 0 0 1 1.305-2.318l-1.297-1.29-.18.21c.487.405.165.84-.36 1.793Zm-3.42 0L8.25 75.8s.615.668 1.095 1.14Zm7.95 20.684-4.665 1.546a.44.44 0 0 1-.427-.068H9.12l-.495 1.688 1.5.877-2.385.788-.63 1.29a7 7 0 0 1 1.29.675h.053c-.098-.293-.083-.75 0-.75l7.14-2.37c.39-.128.495.075.495.075h.067l.495-1.5-1.282-.63h-.053a1.27 1.27 0 0 1-.06.75l-4.905 1.627-.555-.322.232-.818 5.063-1.68a5.6 5.6 0 0 1 1.74-.435v-.127a3.92 3.92 0 0 0-2.527-.593ZM4.425 73.387H4.5s.068-.75.48-.667l7.14.855c.405.053.42.285.42.285h.068l1.065-1.162-.923-1.08a1.24 1.24 0 0 1-.367.637l-7.238-.863a.44.44 0 0 1-.36-.24h-.067L3.57 72.255a5.5 5.5 0 0 1 .855 1.132m7.208 21.75a17.5 17.5 0 0 1-2.55-1.627h-.068L7.23 95.376a12.7 12.7 0 0 1 1.718 1.95l4.83-1.41a.47.47 0 0 1 .472.113h.06a14 14 0 0 1 .608-2.595l-1.643-.862-.112.255c.577.247.39.75.157 1.822Zm-3.278.96 1.5-1.635s.75.465 1.365.795Zm-3.427-26.85c.06-.3.285-.674.39-.652l6.96 1.335a.46.46 0 0 1 .374.315h.06l1.5-1.575-1.064-2.55-4.695-.923a.45.45 0 0 1-.345-.262H8.04l-1.447 1.5.69 1.117L5.25 67.2l-1.177.818a7.2 7.2 0 0 1 .794 1.214ZM8.25 66.57l5.25.983v.037l-.907.997-5.026-.944-.127-.196Zm3.593 20.333.952.974a4.5 4.5 0 0 0 .96-.93l-.953-.975a4.2 4.2 0 0 0-.967.93ZM6.195 91.56l1.238.75H7.5a1.23 1.23 0 0 1 .158-.75l2.31-1.755 4.65 1.545a13 13 0 0 1-.668-1.5c-2.512-.75-7.102-2.34-7.59-2.61H6.3l-.66 1.223 1.103.75h.007c-.045-.248.24-.488.24-.488l1.725.555-2.145 1.5Zm9.555 13.215a8 8 0 0 0 .143 2.13 3.7 3.7 0 0 0-2.798-.75 6 6 0 0 1 0 2.01h1.77a4.5 4.5 0 0 1 2.385.848l.45.682a2.9 2.9 0 0 0-1.657-.3 4.9 4.9 0 0 1 0 1.68h1.56a2.35 2.35 0 0 1 1.312.503v1.56a7.34 7.34 0 0 0 1.41 4.012l.203.3c-.75-.532-1.38-.465-2.79-.442l-.173-.226-2.377-3.585a3.06 3.06 0 0 1-.255-1.5v-1.807a3.8 3.8 0 0 1-1.86 0 2.56 2.56 0 0 0 .472 1.822 4.5 4.5 0 0 0-1.687-.217 4.9 4.9 0 0 1 0 1.68h1.905a2.05 2.05 0 0 1 1.56.75l.682 1.035a3.6 3.6 0 0 0-2.535-.622 5.9 5.9 0 0 1 0 2.062h2.13a2.86 2.86 0 0 1 1.68.69 2.73 2.73 0 0 1 .135 1.71l1.56.052a4.9 4.9 0 0 1 3.75 2.018l.24.36a5.6 5.6 0 0 0 .24 1.282c-1.327-1.582-1.972-1.5-4.815-1.5a5 5 0 0 1 .052 1.74h2.43a4.38 4.38 0 0 1 3.353 1.868l.172.262a55 55 0 0 0 1.11 1.598l.248-.158s-.405-.57-.593-.877a9.4 9.4 0 0 1-.435-3.51v-6.518a5.7 5.7 0 0 1-1.792-.067v5.25l-1.305-1.973-.533-.847c-.405-.638-.42-2.595-.42-3.593v-.637c0-.435.038-1.98.63-1.98v-.33h-2.25l-.067-.083-1.163-1.747a5.3 5.3 0 0 1-.285-1.74v-2.88a3.65 3.65 0 0 1-1.792-.014ZM6.938 84.412l4.882-.383a.47.47 0 0 1 .443.202h.06l1.065-1.92-1.695-2.182-5.288.412a.44.44 0 0 1-.397-.165H5.94c-.825 1.5-1.582 2.708-2.557 4.223a5.4 5.4 0 0 1 1.17.945h.06a15.6 15.6 0 0 1 1.35-2.52Zm-.285-2.528 5.692-.45-.623 1.2-5.422.427-.225-.292Z" style="fill:#000000"/><path fill="#ffffff" d="M168.868 157.26V0h.473v157.26zm11.175-27.892a4.55 4.55 0 0 0 4.883 3.667c2.25 0 4.177-1.29 4.177-3.622 0-1.973-.75-2.926-4.635-4.366-2.527-.952-2.79-1.612-2.79-2.542a2.435 2.435 0 0 1 2.7-2.527 3.345 3.345 0 0 1 3.308 2.58l1.08-.323a4.32 4.32 0 0 0-4.388-3.277c-2.542 0-3.952 1.5-3.952 3.547 0 4.538 7.425 3.09 7.425 6.75a2.542 2.542 0 0 1-2.738 2.73 3.544 3.544 0 0 1-3.907-3l-1.155.36Zm20.033 3.472v-1.027h-6.93v-5.58h4.732v-1.02h-4.732v-5.055h6.57v-.99h-7.823v13.71Zm2.49 0h1.252v-13.672h-1.252zm3.855-12.682h4.08v12.682h1.252v-12.683h4.065v-.99h-9.375v1.02Zm22.08 12.682v-1.027h-2.25v-12.87h-.795l-3.075 1.004v.75l2.617-.382v11.505h-2.355v1.028Zm1.327-2.542c.75 1.86 2.393 2.73 4.613 2.73 2.715 0 4.687-1.178 4.687-4.065a3.51 3.51 0 0 0-2.617-3.458 3.184 3.184 0 0 0 2.197-3.225c0-2.565-2.37-3.337-4.14-3.337a5.16 5.16 0 0 0-4.14 2.16l.893.645a3.84 3.84 0 0 1 3.15-1.786c1.837 0 3 .75 3 2.43 0 1.823-1.29 2.663-3.75 2.663h-1.028v1.02h1.253c2.587 0 3.952.953 3.952 2.925s-1.08 3-3.382 3a3.495 3.495 0 0 1-3.66-2.25l-1.005.57Zm16.403-11.355c-2.603 0-4.29 1.177-4.29 3.472 0 1.5.907 2.603 2.617 3.21-2.355 1.065-3.15 2.318-3.15 3.683 0 2.737 1.973 3.75 4.823 3.75s4.822-.983 4.822-3.75c0-1.365-.795-2.618-3.15-3.683 1.71-.607 2.625-1.71 2.625-3.21 0-2.295-1.687-3.472-4.29-3.472Zm-3.57 10.365c0-1.5 1.327-2.25 3.57-3.158 2.25.915 3.57 1.673 3.57 3.158 0 1.867-1.553 2.7-3.57 2.7s-3.57-.833-3.57-2.7m.532-6.953c0-1.612 1.253-2.392 3.038-2.392s3.037.75 3.037 2.392c0 1.5-1.327 2.318-3.037 2.775-1.71-.457-3.038-1.29-3.038-2.775m18.548-2.25a5.3 5.3 0 0 0-3.24-1.162c-3.878 0-5.468 4.08-5.468 7.5 0 3.157.893 6.547 4.71 6.547 2.49 0 4.635-1.627 4.635-4.252a4.17 4.17 0 0 0-4.41-4.5 5.12 5.12 0 0 0-3.682 1.822c0-2.602 1.065-6.112 4.192-6.112a3.32 3.32 0 0 1 2.7 1.042l.57-.93Zm-.63 8.49a3.112 3.112 0 0 1-3.345 3.435c-2.13 0-3.458-1.575-3.458-4.043a4.03 4.03 0 0 1 3.435-2.677 3.112 3.112 0 0 1 3.36 3.285Zm-80.213-28.365h6.57l-7.162 11.663v1.02h8.812v-1.02h-7.252l7.155-11.626v-1.064h-8.123zm10.995-1.02v9.225c0 3.113 1.628 4.673 4.958 4.673s4.957-1.553 4.957-4.673V99.21h-1.252v9.345c0 2.617-1.275 3.532-3.705 3.532s-3.705-.907-3.705-3.532V99.21Zm13.71 13.71h1.253v-4.575l2.587-3 4.35 7.553h1.403l-4.958-8.468 4.425-5.25h-1.537l-6.27 7.44v-7.44h-1.253zm11.603-13.71v9.225c0 3.113 1.627 4.673 4.957 4.673s4.958-1.553 4.958-4.673V99.21h-1.253v9.345c0 2.617-1.275 3.532-3.705 3.532s-3.705-.907-3.705-3.532V99.21Zm13.71 13.71h1.252v-12.69l7.335 12.683h1.29V99.21h-1.252v11.43h-.038l-6.502-11.43h-2.108v13.71Zm14.962 0v-6.607h4.958v-1.02h-4.958v-5.055h6.803v-1.02h-8.048v13.71Zm8.003-12.682h4.065v12.682h1.252v-12.69h4.065v-1.02h-9.375v1.02Zm-70.83-7.2v-6.12h5.512v6.142h2.73V78.728h-2.73v5.707h-5.512v-5.707h-2.73V93.03Zm21.262 0v-2.295h-6.952v-4.005h4.89v-2.295h-4.898V81.03h6.75v-2.295h-9.472v14.302Zm5.408 0v-14.31h-2.73V93.03Zm3.495 0h4.732c3.75 0 6.398-2.1 6.42-7.155s-2.632-7.155-6.42-7.155h-4.732zm2.73-12h1.822c3.135 0 3.87 2.295 3.87 4.852s-.75 4.853-3.87 4.853h-1.822zm20.295 12v-2.295h-6.96v-4.005h4.897v-2.295h-4.897V81.03h6.75v-2.295h-9.473v14.302Zm11.25 0v-2.295h-6.24v-12h-2.73v14.302Zm2.062 0h5.25c3.645 0 5.213-1.545 5.213-3.75s-.638-3-2.498-3.75a3.19 3.19 0 0 0 2.175-3.248c-.157-2.557-2.002-3.51-4.852-3.51h-5.31v14.302Zm2.73-6.383h2.738c1.59 0 2.25.75 2.25 2.085s-.69 2.078-2.25 2.078h-2.738Zm0-5.707h2.738a1.756 1.756 0 1 1 0 3.487h-2.738zm20.295 12.09v-2.295h-6.952v-4.005h4.875v-2.295h-4.898V81.03h6.75v-2.295h-9.45v14.302Zm5.033 0V87.21h2.362l2.693 5.828h3l-3.15-6.383a3.54 3.54 0 0 0 2.617-3.682c0-2.363-1.327-4.238-4.575-4.238h-5.707v14.302Zm0-12.09h2.497c1.5 0 2.318.675 2.318 2.025s-.653 2.025-2.798 2.025h-2.025v-4.08Zm20.692 1.23a5.055 5.055 0 0 0-5.19-3.645c-4.582 0-6 3.922-6 7.567 0 4.043 1.8 7.133 5.693 7.133a4.5 4.5 0 0 0 3.75-1.665v1.5h1.98v-7.23h-5.348v2.295h2.715a2.83 2.83 0 0 1-2.814 2.84q-.093 0-.186-.006c-1.905 0-3-1.905-3-4.912 0-3.173.99-5.19 3-5.19a2.825 2.825 0 0 1 2.873 2.025l2.535-.675Zm-109.74-14.85c0 2.317-.915 3.135-2.752 3.135s-2.753-.81-2.753-3.135v-9.075h-2.73v8.962c0 4.185 2.573 5.55 5.49 5.55s5.49-1.365 5.49-5.55v-8.963h-2.73v9.075Zm8.58 5.25v-10.2h.038l5.85 10.185h2.632v-14.31h-2.572v9.75h-.038l-5.632-9.75h-2.85v14.31Zm14.783 0V58.252h-2.738v14.31Zm5.925 0h3.052l3.75-14.31h-2.692l-2.655 10.545h-.037l-2.535-10.545h-2.693l3.75 14.31Zm18.39 0v-2.31h-6.96v-4.013h4.897V63.96h-4.897v-3.413h6.75v-2.294h-9.473v14.31Zm5.032 0v-5.843h2.363l2.692 5.828h3l-3.15-6.383a3.54 3.54 0 0 0 2.618-3.69c0-2.362-1.328-4.237-4.575-4.237h-5.708v14.31Zm0-12.09h2.498c1.5 0 2.317.675 2.317 2.025s-.652 2.025-2.797 2.025h-2.04v-4.065Zm19.74.81a5.205 5.205 0 0 0-5.055-3.225c-2.475 0-4.612 1.447-4.612 4.005 0 4.402 7.372 3.847 7.372 6.66 0 1.387-1.05 1.905-2.422 1.905a3.28 3.28 0 0 1-3.113-2.25l-2.25.99a5.67 5.67 0 0 0 5.348 3.39c3.172 0 5.01-1.5 5.01-4.395 0-4.643-7.373-4.125-7.373-6.585 0-1.11.855-1.583 2.04-1.583a2.63 2.63 0 0 1 2.543 1.845l2.497-.75Zm6 11.25V58.252h-2.73v14.31Zm2.34-14.31v2.295h3.75v12h2.73v-12h3.75v-2.28Zm15.638 2.752h.037l1.605 6.203h-3.382l1.687-6.203Zm-5.85 11.558h2.715l.847-3.09h4.5l.788 3.09h2.715l-4.065-14.31h-3.39l-4.125 14.31Zm2.737-17.595v2.294h2.378V54.96Zm3.75 0v2.294h2.378V54.96Zm4.658 3.292v2.295h3.75v12h2.715v-12h3.75v-2.288Z"/></g></svg>
