<svg xmlns="http://www.w3.org/2000/svg" viewBox="0 0 1920 1080"><path style="fill:#fff" d="M558.14 138.31h803.13v803.12H558.14z"/><path d="m1121.11 457.3 89.64.02c1.06 2.08 11.23 22.09 11.23 22.09l22.93-.05-76.21-153.39-1.95 3.6-81.01 149.78h23.31s10.97-20.06 12.07-22.06Zm46.89-85.9c3.15 6.27 31.29 62.35 33.99 67.72-5.99 0-64.78-.02-71-.02 3-5.48 33.64-61.54 37.01-67.7m-340.17-39.87h-23.71s-54.76 100.88-58.42 107.62c-3.24-6.55-30.08-60.69-30.08-60.69l-23.38-46.96h-1.32l-18.08.03h-3.42l75.48 151.98 82.92-151.98Zm49.35 0h-22.02v147.86h22.02zm117.93 129.65h-45.68V331.53h-22.02v147.86h67.7zm81.68 0h-41.07V331.53h-22.02v147.86h63.09zm-90.14 142.7s-54.75 100.86-58.42 107.61c-3.39-6.88-53.17-107.75-53.17-107.75H712.85c-9.06.15-20.45 1.5-28.5 10.74-6.63 8.2-8.78 20.78-5.52 32.1 3.98 11.41 10.36 21.8 16.54 31.85 5.89 9.58 11.98 19.5 15.82 30.04 2.97 12.42-3.71 23.75-9.87 32.2l-2.11 3.02-5.24 7.28 4.09.08 20.49-.05.63-.88c10.46-14.51 15.13-30.83 12.5-43.65-4.73-16.92-14.08-31.83-23.12-46.25l-5.74-9.24c-3.25-6.37-7.81-15.28-3.82-22.95 2.19-4.14 6.56-5.99 14.18-5.97h77.91v128.98l21.17-.05s.08-124.81.08-128.92c3.81 0 46.29.03 48.69.03 1.15 2.32 66.4 133.77 66.4 133.77l82.92-151.98h-23.71Zm174.17 59.81c3.97-2.76 36.86-25.56 36.86-25.56l49.71-34.54-6.83.03-24.51.07-77.16 52.54c0-6.9.05-52.53.05-52.53l-22.12.03s.07 122.67.07 127.13c-21.22-1.04-52.19-15.16-74.81-34.41 0-.02-3.71-3.72-3.71-3.72-6.9-6.8-13.99-13.78-13.99-22.13 0-2.13.46-4.35 1.51-6.68 6.71-11.64 19.09-22.33 30.02-31.77l.56-.49c11.95-9.01 24.74-18.02 34.1-24.01l6.12-3.92h-35.39l-17.15 13.13c-.03.02-2.64 2.09-2.64 2.09-15.39 12.19-32.83 26.01-37.81 45.26-2.39 14.02 3.83 27.43 18.99 41.19 33.69 31.47 73.19 47.27 114.2 45.65l2.04-.09v-78.05l89.92 78.05h32.5s-96.58-83.83-100.54-87.27Z"/></svg>