<svg class="c-header__logo-src" xmlns="http://www.w3.org/2000/svg" width="184.26" height="35.636" viewBox="0 0 184.26 35.636"><path d="M83.683 8.337a15 15 0 0 1 4.23-.1 5.02 5.02 0 0 1 4.439 4.662c.052 3.229.019 6.461.019 9.694a4.91 4.91 0 0 1-2.331 4.279c-1.735 1.087-3.88.845-5.828.756a5.025 5.025 0 0 1-4.458-4.659c-.082-3.247-.045-6.5-.019-9.746a5.04 5.04 0 0 1 3.947-4.89m.659 3.218a2.03 2.03 0 0 0-1.143 2.044c0 3.009-.03 6.018.011 9.027a2.18 2.18 0 0 0 2.5 1.929c1.277.175 2.961-.235 3.173-1.724.1-3.065.019-6.141.041-9.209a2.123 2.123 0 0 0-2.056-2.3 5.7 5.7 0 0 0-2.521.231m46.996-3.193c2.171-.309 4.644-.51 6.58.734a5.27 5.27 0 0 1 2.22 4.54c.015 2.856 0 5.716.011 8.573a5.27 5.27 0 0 1-2.465 4.726c-1.635.994-3.627.789-5.452.734a4.99 4.99 0 0 1-4.741-5.039c0-3.244-.03-6.487.015-9.731a4.925 4.925 0 0 1 3.825-4.532m.685 3.214a2.22 2.22 0 0 0-1.121 2.041q-.017 4.312-.007 8.632a2.16 2.16 0 0 0 1.721 2.249 8.1 8.1 0 0 0 2.6-.063 2.065 2.065 0 0 0 1.426-2.175c-.022-3.083.056-6.171-.041-9.254-.41-2.033-3.05-1.948-4.573-1.43m12.304-1.874c2.894-2.711 8.707-1.936 9.988 2.115-1.065.454-2.149.86-3.221 1.285a2.725 2.725 0 0 0-2.432-1.856c-1.748-.139-3.229 2.206-1.84 3.5 1.776 1.3 4.074 1.713 5.728 3.221 2.618 2.1 2.67 6.8-.145 8.755-1.713 1.229-3.94 1.061-5.932.912a5.28 5.28 0 0 1-4.145-3.609c1-.473 2-.946 3.013-1.4.566 1.951 2.99 2.424 4.64 1.631a2.1 2.1 0 0 0 .395-3.393c-1.791-1.389-4.152-1.88-5.828-3.452a5.43 5.43 0 0 1-.22-7.7M63.94 8.471c1.2-.019 2.4-.015 3.6 0 1.2 4.119 2.234 8.29 3.56 12.375.95-4.164 2.175-8.256 3.259-12.386 1.214 0 2.428-.011 3.642.045-1.806 6.3-3.839 12.546-5.668 18.847-.909.045-1.821.041-2.726 0-1.843-6.3-3.906-12.55-5.664-18.877m31.783.023a44 44 0 0 1 3.046-.026c2.048 4.111 4.149 8.2 6.163 12.323.056-4.111.007-8.223.034-12.334 1.069 0 2.138-.007 3.206.011.052 6.3.019 12.6.022 18.9a30 30 0 0 1-3.072-.045c-1.963-4.063-4.1-8.036-6.111-12.077-.041 4.044-.011 8.089-.022 12.137-1.095 0-2.19 0-3.281-.03.011-6.286-.011-12.569.015-18.855m16.174-.027c2.324-.026 4.648-.019 6.971-.015a5.8 5.8 0 0 1 3.9 1.285 5.627 5.627 0 0 1-.819 8.923c.979 2.9 2.078 5.757 2.92 8.7a34 34 0 0 1-3.668-.015c-.823-2.666-1.847-5.262-2.67-7.921-1.065-.063-2.134-.06-3.2-.052.019 2.67-.019 5.336.015 8.007a22 22 0 0 1-3.467-.015c0-6.3-.026-12.6.015-18.9m3.441 3.136q.006 2.285 0 4.577a37 37 0 0 0 4.253-.089c1.989-.54 1.985-3.81.022-4.383a39 39 0 0 0-4.271-.1m42.054-3.134c3.717-.045 7.437-.011 11.157-.019.03 1.039.033 2.078.03 3.117-2.585.071-5.173.033-7.761.03q.002 2.29-.008 4.581c2.134.011 4.271 0 6.405.015a29 29 0 0 1 .1 3.139c-2.167.063-4.335.03-6.5.037.011 1.62 0 3.24 0 4.86 2.584.034 5.173-.045 7.761.048 0 1.028 0 2.056-.011 3.083q-5.6.028-11.187 0c-.007-6.3-.03-12.6.015-18.9m14.4.003c.994-.015 1.992-.015 2.99-.019 2.059 4.111 4.16 8.2 6.16 12.345.052-4.107.015-8.215.03-12.323a50 50 0 0 1 3.255.015c.045 6.294.026 12.583.011 18.877a53 53 0 0 1-3.05-.015c-2.022-4.082-4.134-8.118-6.189-12.181.011 4.067 0 8.137 0 12.207q-1.609.002-3.218-.007c-.011-6.3-.022-12.6.007-18.9M12.514.158A18 18 0 0 1 14.924 0h25.009a15.3 15.3 0 0 1 8.477 2.435 13.3 13.3 0 0 1 4.061 4.3 16.5 16.5 0 0 1 2.164 6.885c.149 1.413.083 2.836.1 4.254-.013 1.293.041 2.588-.072 3.878a16.9 16.9 0 0 1-1.966 6.761 13.4 13.4 0 0 1-4.138 4.588 15.24 15.24 0 0 1-8.629 2.534H14.689a14.9 14.9 0 0 1-9.441-3.236 14.57 14.57 0 0 1-4.89-8.607A20.6 20.6 0 0 1 0 19.636c.01-1.61-.02-3.222.017-4.832a16.14 16.14 0 0 1 3.62-9.985A13.94 13.94 0 0 1 12.514.158m.915 7.97a6.18 6.18 0 0 0-3.809 1.969 8.2 8.2 0 0 0-2.288 5.538v4.354a8.12 8.12 0 0 0 1.844 5.042 6.6 6.6 0 0 0 3.671 2.389 7.7 7.7 0 0 0 1.731.1H41a5.9 5.9 0 0 0 3.88-1.75 8.2 8.2 0 0 0 2.523-5.9v-4.126a8.18 8.18 0 0 0-2.648-5.994 5.8 5.8 0 0 0-4-1.641c-9.109.014-18.219-.021-27.328.018" fill="#fff"/></svg>