<svg class="w-[92px] xl:w-[132px]" viewBox="0 0 92 32" fill="#fff"><path d="M71.04 31.92c-.92 0-1.83-.39-2.46-1.15A3.165 3.165 0 0 1 69 26.3c5.41-4.44 14.23-11.72 15.09-12.5 1.55-1.55 1.56-2.58 1.55-3.6 0-2.41-2.83-3.88-5.62-3.88-2.8 0-5.62 1.5-5.62 3.87 0 1.86-1.48 3.18-3.19 3.18s-3.19-1.42-3.19-3.18c0-5.81 5.16-10.2 12-10.2s12 4.38 12 10.2c0 2.37-.26 4.95-3.43 8.1-.76.77-11.1 9.27-15.5 12.9-.6.49-1.32.72-2.03.72zm17.78.02a3.18 3.18 0 0 0 3.19-3.17 3.18 3.18 0 0 0-3.2-3.18h-3.48a3.18 3.18 0 0 0-3.19 3.18c0 1.75 1.42 3.17 3.2 3.17zm-30.19 0H40.28a3.18 3.18 0 0 1-3.19-3.17 3.18 3.18 0 0 1 3.2-3.18h18.36a3.18 3.18 0 0 1 3.19 3.18c0 1.75-1.42 3.17-3.2 3.17zM43.47 4.2a3.18 3.18 0 0 0-3.19-3.18c-1.76 0-3.19 1.42-3.19 3.18v15.22a3.18 3.18 0 0 0 3.19 3.18c1.77 0 3.19-1.42 3.19-3.18zm-20.98 9.85a3.18 3.18 0 0 1-4.51 0 3.145 3.145 0 0 1 0-4.48L25.63 2a3.2 3.2 0 0 1 4.51 0 3.145 3.145 0 0 1 0 4.48zM13.1 23.4a3.145 3.145 0 0 0 0-4.48 3.18 3.18 0 0 0-4.51 0L.94 26.53a3.145 3.145 0 0 0 0 4.48 3.18 3.18 0 0 0 4.51 0zM5.44 1.96C4.2.72 2.17.72.94 1.96a3.145 3.145 0 0 0 0 4.48l7.65 7.62a4.5 4.5 0 0 0 4.5-4.48zm17.05 16.95a3.2 3.2 0 0 0-4.51 0 3.145 3.145 0 0 0 0 4.48L25.63 31a3.18 3.18 0 0 0 4.51 0 3.145 3.145 0 0 0 0-4.48z"/></svg>