<svg class="w-[92px] xl:w-[132px]" viewBox="0 0 92 32" fill="#ffffff">
  <path d="M71.04 31.92c-.92 0-1.83-.39-2.46-1.15-1.12-1.35-.94-3.35.42-4.47 5.41-4.44 14.23-11.72 15.09-12.5C85.64 12.25 85.65 11.22 85.64 10.2c0-2.41-2.83-3.88-5.62-3.88-2.8 0-5.62 1.5-5.62 3.87 0 1.86-1.48 3.18-3.19 3.18s-3.19-1.42-3.19-3.18c0-5.81 5.16-10.2 12-10.2 6.84 0 12 4.38 12 10.2 0 2.37-.26 4.95-3.43 8.1-.76.77-11.1 9.27-15.5 12.9-.6.49-1.32.72-2.03.72zM88.82 31.94a3.18 3.18 0 0 0 3.19-3.17c0-1.76-1.42-3.18-3.2-3.18h-3.48a3.18 3.18 0 0 0-3.19 3.18c0 1.75 1.42 3.17 3.2 3.17h3.48zM58.63 31.94H40.28a3.18 3.18 0 0 1-3.19-3.17c0-1.76 1.42-3.18 3.2-3.18h18.36a3.18 3.18 0 0 1 3.19 3.18c0 1.75-1.42 3.17-3.2 3.17zM43.47 4.2a3.18 3.18 0 0 0-3.19-3.18c-1.76 0-3.19 1.42-3.19 3.18v15.22a3.18 3.18 0 0 0 3.19 3.18c1.77 0 3.19-1.42 3.19-3.18V4.2zM22.49 14.05c-1.25 1.25-3.27 1.25-4.51 0-1.25-1.25-1.25-3.25 0-4.48L25.63 2c1.25-1.24 3.27-1.24 4.51 0 1.25 1.25 1.25 3.25 0 4.48L22.49 14.05zM13.1 23.4c1.25-1.24 1.25-3.25 0-4.48-1.25-1.25-3.27-1.25-4.51 0L.94 26.53c-1.25 1.25-1.25 3.25 0 4.48 1.25 1.25 3.27 1.25 4.51 0l7.65-7.61zM5.44 1.96C4.2.72 2.17.72.94 1.96c-1.25 1.25-1.25 3.25 0 4.48l7.65 7.62a4.5 4.5 0 0 0 4.5-4.48L5.44 1.96zm17.05 16.95c-1.25-1.24-3.27-1.24-4.51 0-1.25 1.25-1.25 3.25 0 4.48l7.65 7.61c1.25 1.25 3.27 1.25 4.51 0 1.25-1.25 1.25-3.25 0-4.48l-7.65-7.61z"/>
</svg>
