<svg class="w-[92px] xl:w-[132px]" viewBox="0 0 92 32">
  <path fill="#ffffff" d="M71.043 31.92a3.2 3.2 0 0 1-2.467-1.156 3.17 3.17 0 0 1 .428-4.471c5.404-4.439 14.229-11.723 15.084-12.509 1.546-1.537 1.557-2.562 1.546-3.588 0-2.41-2.829-3.87-5.613-3.87-2.796 0-5.613 1.504-5.613 3.87 0 1.854-1.48 3.174-3.19 3.174a3.18 3.18 0 0 1-3.19-3.173C68.028 4.384 73.18 0 80.02 0s11.993 4.384 11.993 10.197c0 2.366-.263 4.95-3.431 8.102-.768.764-11.105 9.27-15.512 12.89a3.18 3.18 0 0 1-2.028.73m17.78.022a3.18 3.18 0 0 0 3.19-3.174 3.18 3.18 0 0 0-3.19-3.173h-3.485a3.18 3.18 0 0 0-3.19 3.173 3.18 3.18 0 0 0 3.19 3.174zm-30.19 0h-18.35a3.18 3.18 0 0 1-3.19-3.174 3.18 3.18 0 0 1 3.19-3.173h18.362a3.18 3.18 0 0 1 3.19 3.173c0 1.756-1.436 3.174-3.201 3.174M43.472 4.199a3.18 3.18 0 0 0-3.19-3.174 3.18 3.18 0 0 0-3.19 3.174v15.223a3.18 3.18 0 0 0 3.19 3.174 3.18 3.18 0 0 0 3.19-3.174zM22.49 14.057a3.19 3.19 0 0 1-4.506 0 3.15 3.15 0 0 1 0-4.482l7.652-7.612a3.19 3.19 0 0 1 4.505 0 3.15 3.15 0 0 1 0 4.482zm-9.395 9.346a3.15 3.15 0 0 0 0-4.482 3.19 3.19 0 0 0-4.506 0L.937 26.533a3.15 3.15 0 0 0 0 4.482 3.19 3.19 0 0 0 4.506 0zM5.443 1.963a3.19 3.19 0 0 0-4.506 0 3.15 3.15 0 0 0 0 4.482l7.652 7.612a3.19 3.19 0 0 0 4.506 0 3.15 3.15 0 0 0 0-4.482zM22.49 18.91a3.19 3.19 0 0 0-4.506 0 3.15 3.15 0 0 0 0 4.482l7.652 7.612a3.19 3.19 0 0 0 4.505 0 3.15 3.15 0 0 0 0-4.482z" fill="currentColor"/>
</svg>
